<svg xmlns="http://www.w3.org/2000/svg" width="2500" height="1021" viewBox="0 0 512 209" preserveAspectRatio="xMidYMid"><defs><linearGradient x1="37.164" y1="71.07" x2="106.317" y2="85.818" id="prefix__a" gradientTransform="matrix(.39981 0 0 .72092 330.45 48.488)" gradientUnits="userSpaceOnUse"><stop stop-color="#919191" offset="0%"/><stop stop-color="#FFF" offset="100%"/></linearGradient><linearGradient x1="33.756" y1="100.282" x2="73.691" y2="109.627" id="prefix__b" gradientTransform="matrix(.4188 0 0 .68824 330.45 48.488)" gradientUnits="userSpaceOnUse"><stop stop-color="#900" offset="0%"/><stop stop-color="#E80000" offset="100%"/></linearGradient><linearGradient x1="133.521" y1="327.565" x2="133.521" y2="60.939" id="prefix__c" gradientTransform="matrix(.87603 0 0 .32902 118.798 48.488)" gradientUnits="userSpaceOnUse"><stop stop-color="#787878" offset="0%"/><stop stop-color="#4A4A4C" offset="40.26%"/><stop stop-color="#464646" offset="100%"/></linearGradient></defs><path d="M365.386 50.792a1.302 1.302 0 000 .643s.697 4.554-.107 6.59l-33.007 85.894a12.252 12.252 0 007.126 15.753c6.323 2.41 13.343-.697 15.861-6.966l33.007-85.893c.643-1.661 4.34-4.93 4.34-4.93.161-.16.322-.321.429-.482v-.054c0-.053.053-.053.053-.107.858-2.196-4.661-6.376-12.27-9.323s-14.52-3.537-15.378-1.286c0 0-.054.054-.054.16z" opacity=".1"/><path d="M364.421 50.041a1.304 1.304 0 000 .644s.697 4.554-.107 6.59l-33.006 85.894a12.252 12.252 0 007.127 15.753c6.322 2.41 13.341-.697 15.86-6.966l33.007-85.893c.643-1.661 4.34-4.93 4.34-4.93.161-.16.322-.321.429-.482v-.054c0-.053.054-.053.054-.107.857-2.197-4.662-6.376-12.271-9.323-7.61-2.947-14.521-3.537-15.379-1.286 0 .054 0 .107-.054.16z" fill="url(#prefix__a)"/><path d="M374.817 88.889l-23.845 61.942c-1.768 4.447-6.858 6.751-11.413 4.983-4.554-1.768-6.966-6.966-5.304-11.413l15.217-39.598s1.875-3.054 5.627-5.25c3.75-2.198 6.805-1.716 10.93-3.537 4.18-1.822 8.788-7.127 8.788-7.127z" fill="url(#prefix__b)"/><path d="M386.38 58.698c.475-1.24-2.944-3.713-7.636-5.524s-8.88-2.275-9.355-1.036c-.476 1.24 2.943 3.712 7.635 5.524 4.692 1.812 8.881 2.276 9.356 1.036z" fill="#333"/><path d="M364.2 50.678s.692 4.542-.107 6.573l-32.791 85.65c-2.342 6.305.799 13.305 7.08 15.71 1.065.427 2.182.694 3.3.748a12.367 12.367 0 01-4.099-14.106l32.153-83.942s-4.419-4.114-5.536-10.633z" opacity=".3" fill="#fff"/><ellipse ry=".962" rx=".958" cy="105.927" cx="353.66" fill="#fff"/><ellipse ry="1.443" rx="1.437" cy="112.82" cx="359.888" fill="#fff"/><ellipse ry="2.725" rx="2.715" cy="121.048" cx="350.359" fill="#fff"/><ellipse ry="1.443" rx="1.437" cy="126.071" cx="345.994" fill="#fff"/><ellipse ry=".962" rx=".958" cy="136.757" cx="351.69" fill="#fff"/><path d="M183.473 100.637c1.446 1.176 4.072.481 5.84-1.443 1.876-2.03 2.144-4.648.697-5.824-1.447-1.175-4.072-.48-5.84 1.55-1.876 2.03-2.198 4.595-.697 5.717zm-4.34 3.793c-.376 0-1.072.695-.483.963.804.266 1.18.961 1.18 1.923-.697 4.007-5.681 8.55-7.61 10.099-.482.48.215 1.55.697 1.176 1.071-.856 3.322-2.619 5.144-4.97-3 6.679-8.895 15.335-11.145 18.38-8.788 12.13-22.13 23.297-31.293 23.297-7.34 0-13.556-4.97-14.896-12.236-.107-.802-1.179-.962-.964.107 1.66 9.991 9.377 13.892 18.7 13.892 10.234 0 22.237-7.374 28.881-14.96 10.717-12.237 17.629-26.343 15.807-34.304-.75-2.939-2.84-3.42-4.018-3.367zm65.853 26.663c2.84-.694 5.144-2.244 5.144-4.702 0-.267-.483-.267-.483 0 0 1.443-1.66 2.672-3.536 2.94-4.394.693-13.074-4.436-17.147-9.726 4.394 1.656 13.343-.748 17.575-3.793 3.912-2.832 5.466-5.931 5.734-8.443.482-4.167-4.072-6.625-10.449-4.167-4.072 1.656-8.948 5.236-14.038 11.969 5.358-8.817 15.914-23.243 26.255-32.433 12.592-11.167 19.88-9.03 8.574 2.832-4.662 4.861-13.45 11.167-19.505 13.892-1.875.801-.964 1.87.376 1.282 6.43-2.832 15.003-8.656 20.2-13.519 15.325-14.693 2.518-25.754-14.414-10.205-11.52 10.58-19.021 21.64-25.559 36.013-2.25 2.725-3.91 4.97-5.947 6.68-.269.213-.429.426-.59.64-5.626 4.81-14.467 11.328-19.986 11.381-3.912.108-5.573-2.832-4.876-6.625 1.072-5.931 7.233-12.93 12.485-15.335 6.804-3.1 10.823 2.939 1.875 7.747-3.43 1.764-7.501 2.725-9.162 2.725-1.93 0-1.769.802-.108.855 2.733.107 7.127-1.068 10.02-2.404 9.163-4.381 9.752-12.557-.214-12.823-10.824-.375-23.79 8.816-23.683 20.41.107 5.237 4.286 8.069 10.02 8.069 9.59-.108 18.11-7.374 25.13-13.786a47.074 47.074 0 002.947-2.725c-2.465 6.198-3.698 11.969-3.108 16.243.375 3.1 2.143 4.542 3.536 5.718.269.213.858 0 .483-.588-2.037-2.405-1.447-9.618 1.34-16.617 2.357 4.702 11.52 10.633 21.11 8.495zm-11.52-20.25c11.199-9.992 15.592-1.069 8.465 4.38-3.697 2.833-11.038 4.97-13.341 3.58l-.483-.266c-.268-.481-.59-.962-.804-1.443 1.876-2.298 4.02-4.328 6.163-6.252zm62.262-11.381c4.502.48 2.626-4.97-1.929-3.58-2.035.587-4.018 4.488-5.465 7.854-4.5 6.679-12.002 15.816-17.253 20.625-4.662 4.007-8.949 5.076-3.698-2.405 2.144-2.992 4.877-6.198 6.43-9.404 3.698-8.068-4.18-11.648-10.556-6.786-3.697 2.832-8.68 8.656-12.592 11.862-1.071.855-.803 2.137.269 1.283 3.107-2.511 8.573-8.282 13.288-11.649 3.912-2.992 5.465-1.068 3.215 1.443-3.108 3.58-8.574 9.832-9.966 13.785-1.93 5.932.375 8.55 4.286 8.55 5.358 0 13.342-8.335 18.7-14.961 1.769-2.244 3.697-4.862 5.359-7.374-4.662 9.03-9.538 18.167-15.593 26.45-8.573 11.647-19.29 20.41-29.47 20.41-7.341 0-13.664-4.97-15.003-12.236-.108-.801-1.072-.962-.965.107 1.66 9.991 9.377 13.892 18.7 13.892 10.235 0 20.094-5.93 27.006-13.197 13.932-14.695 15.592-31.205 19.88-40.448 2.035-4.221 3.857-4.381 5.357-4.221zm56.691-14.107c2.036-3.473 1.93-6.198-2.84-6.198-3.59.107-10.127 2.618-13.181 4.969-.697.695-.375 1.068.482.695.59-.214 1.286-.588 1.93-.855 3.428-1.87 2.035 2.03 1.285 3.473-4.072 7.107-11.306 17.098-15.11 22.067a75.526 75.526 0 01-5.84 6.946c-3.645 3.474-10.878 9.618-16.397 11.648-17.736 6.626 4.876-23.51 6.751-25.967 4.18-5.236 13.556-14.374 16.396-18.969 2.037-3.473 1.93-6.198-2.84-6.198-3.59.108-10.126 2.618-13.18 4.97-.697.694-.376 1.068.482.694.59-.214 1.285-.588 1.929-.855 3.43-1.87 2.036 2.03 1.285 3.474-4.072 7.106-11.305 17.097-15.11 22.067-3.107 4.167-6.912 8.335-9.859 10.686-1.178.962-.482 1.87.697 1.068 1.071-.694 2.625-2.244 4.394-4.06-3.216 6.411-5.841 15.442 2.625 16.51 7.234.962 15.807-6.358 21.38-11.808l1.982-1.977.482-.481c-3.215 6.412-5.84 15.442 2.625 16.51 9.27 1.283 20.79-11.167 25.239-15.762.857-.855.589-2.351-.858-.855-2.625 2.725-11.52 10.793-17.95 13.197-17.736 6.626 4.876-23.51 6.751-25.967 4.234-5.343 13.61-14.48 16.45-19.022z" opacity=".1"/><path d="M182.508 99.729c1.447 1.175 4.072.48 5.84-1.443 1.876-2.03 2.144-4.648.697-5.824-1.446-1.176-4.072-.481-5.84 1.55-1.875 2.03-2.144 4.541-.697 5.717zm-4.286 3.794c-.376 0-1.072.694-.482.961.803.268 1.178.962 1.178 1.924-.696 4.007-5.68 8.549-7.609 10.098-.482.481.215 1.55.697 1.176 1.072-.855 3.322-2.618 5.144-4.97-3.001 6.68-8.895 15.336-11.145 18.381-8.788 12.13-22.13 23.296-31.293 23.296-7.34 0-13.556-4.969-14.896-12.235-.107-.802-1.178-.962-.964.106 1.661 9.992 9.377 13.892 18.7 13.892 10.235 0 22.237-7.373 28.882-14.96 10.716-12.236 17.628-26.342 15.806-34.303-.803-2.993-2.84-3.474-4.018-3.366zm65.799 26.662c2.84-.695 5.144-2.244 5.144-4.702 0-.267-.482-.267-.482 0 0 1.442-1.66 2.671-3.537 2.939-4.393.694-13.074-4.435-17.146-9.725 4.394 1.657 13.342-.748 17.575-3.794 3.912-2.832 5.466-5.93 5.734-8.442.482-4.168-4.073-6.625-10.45-4.168-4.071 1.657-8.948 5.237-14.038 11.97 5.358-8.817 15.914-23.244 26.256-32.434 12.592-11.167 19.879-9.03 8.573 2.832-4.662 4.862-13.449 11.167-19.504 13.892-1.876.802-.965 1.87.375 1.282 6.43-2.831 15.003-8.655 20.2-13.518 15.325-14.693 2.519-25.754-14.413-10.205-11.52 10.526-19.021 21.64-25.559 36.013-2.25 2.725-3.912 4.97-5.948 6.679-.268.213-.428.428-.589.641-5.626 4.809-14.468 11.328-19.987 11.38-3.91.108-5.572-2.831-4.876-6.624 1.072-5.932 7.234-12.931 12.485-15.335 6.805-3.1 10.824 2.938 1.876 7.747-3.43 1.763-7.502 2.725-9.163 2.725-1.93 0-1.768.801-.108.855 2.733.107 7.127-1.068 10.02-2.405 9.164-4.38 9.753-12.556-.214-12.823-10.823-.374-23.79 8.816-23.683 20.411.107 5.236 4.286 8.068 10.02 8.068 9.591-.107 18.11-7.373 25.13-13.785a47.079 47.079 0 002.947-2.725c-2.465 6.198-3.697 11.968-3.108 16.243.376 3.1 2.144 4.542 3.537 5.718.268.213.857 0 .482-.588-2.036-2.405-1.447-9.618 1.34-16.618 2.41 4.702 11.573 10.633 21.111 8.496zm-11.52-20.305c11.199-9.99 15.593-1.068 8.466 4.382-3.697 2.832-11.038 4.97-13.342 3.58l-.482-.267c-.269-.48-.59-.962-.804-1.443 1.875-2.244 4.019-4.328 6.162-6.251zm62.263-11.326c4.5.48 2.626-4.97-1.929-3.58-2.036.587-4.019 4.488-5.465 7.854-4.501 6.68-12.003 15.816-17.254 20.625-4.662 4.007-8.948 5.076-3.697-2.405 2.143-2.992 4.876-6.197 6.43-9.404 3.697-8.068-4.18-11.648-10.556-6.786-3.697 2.832-8.68 8.656-12.592 11.863-1.071.854-.804 2.136.268 1.282 3.108-2.511 8.573-8.282 13.288-11.648 3.912-2.992 5.466-1.069 3.216 1.442-3.108 3.58-8.574 9.832-9.967 13.786-1.929 5.93.375 8.549 4.286 8.549 5.358 0 13.343-8.335 18.7-14.96 1.77-2.245 3.698-4.863 5.359-7.375-4.661 9.03-9.537 18.167-15.592 26.45-8.574 11.647-19.29 20.41-29.47 20.41-7.341 0-13.664-4.97-15.004-12.236-.108-.801-1.072-.962-.964.107 1.66 9.991 9.377 13.892 18.7 13.892 10.234 0 20.094-5.93 27.006-13.197 13.931-14.694 15.592-31.204 19.879-40.448 2.036-4.221 3.911-4.435 5.358-4.221zm56.69-14.16c2.037-3.473 1.93-6.198-2.84-6.198-3.59.107-10.126 2.618-13.18 4.969-.697.695-.376 1.068.482.695.59-.214 1.285-.588 1.929-.856 3.43-1.87 2.036 2.03 1.285 3.474-4.072 7.106-11.305 17.098-15.11 22.067a75.526 75.526 0 01-5.84 6.946c-3.644 3.473-10.877 9.618-16.396 11.648-17.736 6.626 4.876-23.51 6.751-25.968 4.18-5.236 13.556-14.373 16.396-18.968 2.037-3.473 1.93-6.198-2.84-6.198-3.59.107-10.127 2.618-13.181 4.969-.697.695-.375 1.069.482.695.59-.214 1.286-.588 1.93-.855 3.428-1.87 2.035 2.03 1.285 3.473-4.072 7.107-11.306 17.098-15.11 22.067-3.108 4.168-6.912 8.336-9.86 10.687-1.178.961-.481 1.87.697 1.068 1.072-.694 2.625-2.244 4.394-4.06-3.215 6.411-5.84 15.441 2.625 16.51 7.234.962 15.807-6.359 21.38-11.808l1.983-1.978.482-.48c-3.215 6.412-5.84 15.441 2.625 16.51 9.27 1.282 20.79-11.167 25.238-15.762.857-.855.589-2.351-.857-.855-2.626 2.725-11.52 10.793-17.95 13.197-17.736 6.626 4.875-23.51 6.75-25.968 4.287-5.343 13.61-14.48 16.45-19.021z" fill="url(#prefix__c)"/></svg>