<svg xmlns="http://www.w3.org/2000/svg" xmlns:xlink="http://www.w3.org/1999/xlink" width="1200" height="800"><defs><radialGradient xlink:href="#prefix__a" id="prefix__b" cx="756.941" cy="540.87" fx="756.941" fy="540.87" r="153.253" gradientTransform="matrix(2.38654 .00586 -.00583 2.37418 -1043.309 -746.891)" gradientUnits="userSpaceOnUse"/><radialGradient xlink:href="#prefix__a" id="prefix__c" gradientUnits="userSpaceOnUse" gradientTransform="matrix(2.51857 .0298 -.04313 3.64427 -744.434 -1207.175)" cx="503.024" cy="450.854" fx="503.024" fy="450.854" r="54.993"/><radialGradient xlink:href="#prefix__a" id="prefix__d" gradientUnits="userSpaceOnUse" gradientTransform="matrix(-.07627 -2.5176 2.89625 -.08774 -46.7 730.964)" cx="483.403" cy="189.367" fx="483.403" fy="189.367" r="54.993"/></defs><radialGradient id="prefix__a" cy=".828" r="38.364" gradientTransform="matrix(7.05464 0 0 7.0624 92.206 258.826)" cx="19.992" fx="19.992" fy=".828" gradientUnits="userSpaceOnUse"><stop offset="0" stop-color="#20c6b7"/><stop offset="1" stop-color="#4d9abf"/></radialGradient><path d="M294.002 358.598l-.099-.042c-.056-.021-.113-.042-.162-.092a.776.776 0 01-.198-.656L299 324.449l25.587 25.594-26.61 11.322a.586.586 0 01-.234.043h-.106a.735.735 0 01-.14-.12 12.112 12.112 0 00-3.495-2.69zm37.114-2.033l27.359 27.36c5.682 5.688 8.527 8.526 9.564 11.815.155.487.282.974.381 1.475l-65.383-27.69a5.139 5.139 0 00-.106-.042c-.261-.106-.564-.226-.564-.495 0-.268.31-.395.571-.5l.085-.036zm36.189 49.431c-1.412 2.654-4.164 5.407-8.823 10.073l-30.846 30.838-39.895-8.307-.211-.043c-.353-.056-.727-.12-.727-.437a12.042 12.042 0 00-4.624-8.421c-.162-.163-.12-.417-.07-.65 0-.035 0-.07.013-.098l7.503-46.064.029-.156c.042-.353.106-.762.423-.762a12.211 12.211 0 008.188-4.694c.064-.07.106-.148.19-.19.227-.106.495 0 .728.098l68.115 28.813zm-46.763 48.005l-50.722 50.723 8.682-53.363.013-.07a.952.952 0 01.043-.205c.07-.17.254-.24.43-.31l.085-.036a13.058 13.058 0 004.906-3.649c.169-.198.374-.388.635-.423a.635.635 0 01.205 0l35.716 7.34zm-61.458 61.459l-5.718 5.717-63.209-91.351a2.993 2.993 0 00-.07-.099c-.1-.134-.205-.268-.184-.423 0-.113.078-.212.156-.297l.07-.092c.19-.282.353-.564.53-.868l.14-.247.022-.021c.099-.17.19-.332.36-.424.148-.07.353-.042.515-.007l70.028 14.442a1.158 1.158 0 01.536.233c.092.092.113.19.134.304a12.402 12.402 0 007.256 8.293c.198.1.113.318.021.551a1.68 1.68 0 00-.105.318c-.883 5.364-8.45 51.513-10.482 63.971zm-11.943 11.936c-4.214 4.171-6.699 6.38-9.508 7.27a14.117 14.117 0 01-8.513 0c-3.289-1.045-6.134-3.882-11.816-9.571l-63.477-63.478 16.58-25.714c.078-.127.156-.24.283-.332.176-.127.43-.07.642 0a17.18 17.18 0 0011.562-.585c.19-.071.381-.12.53.013a1.341 1.341 0 01.197.226l63.52 92.177zm-99.434-71.898l-14.561-14.562 28.756-12.268a.593.593 0 01.233-.05c.24 0 .381.24.508.46a20.54 20.54 0 00.918 1.298l.092.113c.084.12.028.24-.057.353l-15.882 24.656zm-21.006-21.007l-18.423-18.422c-3.134-3.134-5.406-5.407-6.988-7.362l56.017 11.618a5.93 5.93 0 00.212.035c.346.057.727.12.727.445 0 .353-.417.515-.77.65l-.162.07zm-28.63-35.257a14.117 14.117 0 01.636-3.494c1.045-3.29 3.882-6.127 9.571-11.816l23.576-23.575a15355.994 15355.994 0 0032.653 47.2c.19.254.402.537.183.748-1.03 1.137-2.061 2.379-2.788 3.727a1.13 1.13 0 01-.353.438c-.092.056-.19.035-.296.013h-.014l-63.167-13.248zm40.093-45.196l31.686-31.7c2.986 1.306 13.835 5.887 23.526 9.981 7.34 3.106 14.032 5.93 16.136 6.847.212.085.402.17.494.381.056.127.028.29 0 .424a14.138 14.138 0 003.691 12.903c.212.212 0 .515-.183.776l-.099.148-32.187 49.855c-.085.141-.162.26-.303.353-.17.106-.41.056-.607.007a16.051 16.051 0 00-3.833-.523c-1.158 0-2.414.212-3.685.445h-.007c-.141.021-.268.05-.38-.035a1.482 1.482 0 01-.319-.36l-33.937-49.501zm38.102-38.101l41.038-41.039c5.682-5.682 8.527-8.526 11.816-9.564a14.117 14.117 0 018.513 0c3.29 1.038 6.134 3.882 11.816 9.564l8.894 8.894-29.187 45.203a1.094 1.094 0 01-.29.339c-.176.12-.423.07-.635 0a14.802 14.802 0 00-13.552 2.611c-.191.198-.473.085-.713-.02-3.812-1.66-33.458-14.188-37.7-15.988zm88.274-25.948l26.95 26.95-6.494 40.22v.105a.953.953 0 01-.057.268c-.07.142-.212.17-.353.212a12.917 12.917 0 00-3.868 1.927 1.087 1.087 0 00-.141.12c-.078.085-.155.162-.283.176a.805.805 0 01-.303-.049l-41.067-17.449-.077-.035c-.261-.106-.572-.233-.572-.501a15.515 15.515 0 00-2.188-6.459c-.198-.324-.417-.663-.247-.995zm-27.754 60.746l38.497 16.305c.212.1.445.19.537.41a.748.748 0 010 .402c-.113.565-.212 1.207-.212 1.856v1.08c0 .269-.276.381-.53.487l-.077.029c-6.099 2.604-85.62 36.513-85.74 36.513-.12 0-.247 0-.367-.12-.212-.211 0-.508.19-.776a5.364 5.364 0 00.1-.141l31.635-48.986.057-.085c.183-.296.395-.628.734-.628l.318.05c.72.098 1.355.19 1.997.19 4.8 0 9.247-2.337 11.929-6.332a1.13 1.13 0 01.24-.282c.19-.141.473-.07.692.028zm-44.088 64.833l86.679-36.966s.127 0 .247.12c.473.473.875.79 1.264 1.087l.19.12c.177.099.353.212.367.395 0 .07 0 .113-.013.177l-7.426 45.612-.028.183c-.05.353-.1.756-.43.756a12.204 12.204 0 00-9.692 5.978l-.035.057c-.1.162-.191.317-.353.402-.149.07-.34.042-.494.007l-69.125-14.258c-.07-.014-1.072-3.664-1.15-3.67z" fill="url(#prefix__a)"/><path d="M914.389 246.895c-84.673 0-153.254 68.58-153.254 153.253 0 67.815 43.87 125.093 104.787 145.4 7.663 1.34 10.536-3.257 10.536-7.28 0-3.64-.191-15.709-.191-28.544-38.505 7.088-48.466-9.386-51.531-18.007-1.725-4.406-9.196-18.007-15.709-21.647-5.364-2.873-13.026-9.961-.191-10.153 12.068-.192 20.689 11.11 23.562 15.708 13.793 23.18 35.823 16.667 44.635 12.644 1.341-9.962 5.364-16.666 9.77-20.498-34.099-3.831-69.73-17.05-69.73-75.668 0-16.667 5.938-30.46 15.708-41.187-1.532-3.832-6.896-19.54 1.533-40.612 0 0 12.835-4.023 42.144 15.708 12.26-3.448 25.287-5.172 38.314-5.172 13.026 0 26.053 1.724 38.313 5.172 29.31-19.923 42.145-15.708 42.145-15.708 8.428 21.072 3.065 36.78 1.532 40.612 9.77 10.727 15.709 24.329 15.709 41.187 0 58.81-35.823 71.837-69.922 75.668 5.555 4.79 10.344 13.985 10.344 28.352 0 20.498-.191 36.972-.191 42.145 0 4.023 2.873 8.812 10.536 7.28 60.535-20.307 104.404-77.777 104.404-145.4 0-84.672-68.581-153.253-153.253-153.253z" clip-rule="evenodd" fill="url(#prefix__b)" fill-rule="evenodd"/><path fill="url(#prefix__c)" paint-order="stroke fill markers" d="M552.928 345.007h9.165v109.985h-9.165z"/><path transform="rotate(90)" fill="url(#prefix__d)" paint-order="stroke fill markers" d="M395.417-612.504h9.165v109.985h-9.165z"/></svg>