<svg xmlns="http://www.w3.org/2000/svg" width="3192" height="928"><path d="M2376.321 193.956h-969.72v540.088h969.72c116.259 0 210.507-94.248 210.507-210.508V404.463c0-116.258-94.248-210.507-210.507-210.507z" fill="none" stroke="#404042" stroke-width="10.127"/><path d="M1406.612 193.956H815.68c-116.26 0-210.507 94.249-210.507 210.507v119.073c0 116.26 94.248 210.508 210.507 210.508h590.933V193.956z" fill="none" stroke="#404042" stroke-width="10.127"/><path d="M1487.036 391.667h17.043v58.682h.388c2.711-4.842 6.972-9.296 12.2-12.201a34.942 34.942 0 0117.432-4.648c12.588 0 32.73 7.747 32.73 39.896v55.778h-17.043v-53.841c0-15.106-5.617-27.695-21.69-27.695-11.04 0-19.562 7.747-22.855 16.85-.967 2.517-1.162 5.035-1.162 8.134v56.552h-17.043zM1614.278 412.97v22.467h24.403v12.976h-24.403v50.548c0 11.62 3.292 18.205 12.782 18.205 4.648 0 7.36-.387 9.878-1.162l.774 12.976c-3.292 1.162-8.521 2.324-15.106 2.324-7.941 0-14.333-2.711-18.399-7.166-4.648-5.229-6.585-13.557-6.585-24.596v-51.13h-14.525v-12.975h14.525v-17.43zM1678.383 412.97v22.467h24.402v12.976h-24.402v50.548c0 11.62 3.292 18.205 12.781 18.205 4.649 0 7.36-.387 9.877-1.162l.775 12.976c-3.293 1.162-8.522 2.324-15.107 2.324-7.94 0-14.33-2.711-18.397-7.166-4.65-5.229-6.585-13.557-6.585-24.596v-51.13H1647.2v-12.975h14.526v-17.43zM1721.958 466.037c0-12.008-.388-21.692-.776-30.6h15.107l.968 16.074h.387c6.779-11.426 18.012-18.011 33.312-18.011 22.853 0 39.896 19.173 39.896 47.45 0 33.698-20.723 50.354-42.801 50.354-12.395 0-23.241-5.423-28.857-14.719h-.388v50.936h-16.849V466.037zm16.848 24.983c0 2.518.195 4.842.776 6.973 3.099 11.814 13.363 19.948 25.565 19.948 18.011 0 28.469-14.72 28.469-36.217 0-18.592-9.877-34.667-27.888-34.667-11.621 0-22.66 8.134-25.76 20.916-.58 2.13-1.162 4.649-1.162 6.779z" fill="#404042"/><path d="M1829.83 511.937c5.229 3.099 14.138 6.585 22.659 6.585 12.202 0 18.012-6.004 18.012-13.945 0-8.134-4.842-12.395-17.237-17.043-17.043-6.197-24.984-15.3-24.984-26.533 0-15.106 12.395-27.501 32.344-27.501 9.489 0 17.817 2.518 22.853 5.81l-4.067 12.395c-3.68-2.324-10.46-5.616-19.174-5.616-10.071 0-15.494 5.81-15.494 12.782 0 7.747 5.423 11.233 17.625 16.075 16.074 6.003 24.596 14.138 24.596 28.082 0 16.656-12.976 28.276-34.861 28.276-10.265 0-19.755-2.711-26.339-6.585z" fill="#339941"/><path d="M1904.974 450.93c0-7.166 4.842-12.201 11.426-12.201 6.973 0 11.427 5.035 11.427 12.201 0 6.779-4.454 12.008-11.62 12.008-6.585 0-11.233-5.23-11.233-12.008zm0 68.367c0-7.166 4.842-12.202 11.426-12.202 6.973 0 11.427 5.036 11.427 12.202 0 6.778-4.454 12.007-11.62 12.007-6.585 0-11.233-5.229-11.233-12.007zM1934.602 536.727l53.84-140.412h13.363l-54.228 140.412zM2001.03 536.727l53.839-140.412h13.364l-54.228 140.412zM2088.566 435.437l12.59 47.643c2.518 10.458 5.034 20.142 6.777 29.825h.582c2.13-9.49 5.23-19.56 8.327-29.631l15.3-47.837h14.333L2161 482.305c3.486 11.233 6.196 21.11 8.326 30.6h.581c1.55-9.49 4.069-19.367 7.166-30.406l13.364-47.062h16.849l-30.213 93.737h-15.493l-14.332-44.738c-3.293-10.459-6.004-19.755-8.328-30.794h-.387c-2.324 11.233-5.23 20.916-8.522 30.987l-15.106 44.545h-15.494l-28.276-93.737zM2233.43 435.437l12.589 47.643c2.518 10.458 5.036 20.142 6.779 29.825h.58c2.13-9.49 5.23-19.56 8.329-29.631l15.3-47.837h14.332l14.525 46.868c3.486 11.233 6.198 21.11 8.328 30.6h.58c1.55-9.49 4.068-19.367 7.167-30.406l13.363-47.062h16.85l-30.213 93.737h-15.494l-14.332-44.738c-3.292-10.459-6.003-19.755-8.328-30.794h-.387c-2.324 11.233-5.23 20.916-8.52 30.987l-15.108 44.545h-15.494L2216 435.437zM2378.294 435.437l12.59 47.643c2.518 10.458 5.034 20.142 6.777 29.825h.583c2.13-9.49 5.229-19.56 8.326-29.631l15.3-47.837h14.333l14.526 46.868c3.486 11.233 6.197 21.11 8.326 30.6h.581c1.55-9.49 4.069-19.367 7.166-30.406l13.364-47.062h16.85l-30.214 93.737h-15.493l-14.332-44.738c-3.293-10.459-6.004-19.755-8.328-30.794h-.387c-2.324 11.233-5.229 20.916-8.522 30.987l-15.106 44.545h-15.494l-28.276-93.737z" fill="#404042"/><g fill="#339941"><path d="M897.858 427.545h-19.73c.6-32.775.608-58.688-21.024-71.78-11.073-6.7-27.965-9.796-45.108-9.724-17.142-.072-34.033 3.024-45.106 9.725-21.633 13.091-21.623 39.004-21.024 71.78h-19.77a6.814 6.814 0 00-6.815 6.815v126.455a6.815 6.815 0 006.815 6.816h171.762a6.815 6.815 0 006.815-6.816V434.36a6.815 6.815 0 00-6.815-6.816zM785.323 374.2c5.93-2.284 14.554-3.38 23.696-3.444v.099c.994-.04 1.987-.065 2.977-.081.991.016 1.984.04 2.978.08v-.098c9.143.064 17.767 1.16 23.698 3.444 17.337 6.678 17.037 29.932 16.846 53.346h-87.042c-.191-23.414-.491-46.668 16.847-53.346zM986.598 505.59c5.183 3.324 12.627 5.849 20.602 5.849 11.83 0 18.741-6.247 18.741-15.286 0-8.24-4.785-13.159-16.88-17.678-14.621-5.316-23.66-13.026-23.66-25.52 0-13.956 11.565-24.323 28.976-24.323 9.038 0 15.817 2.127 19.672 4.386l-3.19 9.438c-2.791-1.728-8.772-4.254-16.88-4.254-12.23 0-16.881 7.31-16.881 13.425 0 8.373 5.45 12.494 17.81 17.279 15.153 5.848 22.73 13.159 22.73 26.318 0 13.822-10.103 25.918-31.236 25.918-8.64 0-18.077-2.658-22.862-5.848zM1060.497 489.64c.266 15.818 10.234 22.33 22.064 22.33 8.373 0 13.557-1.462 17.811-3.322l2.127 8.373c-4.121 1.86-11.299 4.12-21.533 4.12-19.804 0-31.634-13.158-31.634-32.564s11.432-34.559 30.172-34.559c21.134 0 26.584 18.343 26.584 30.172 0 2.392-.133 4.12-.399 5.45h-45.192zm34.293-8.373c.133-7.31-3.057-18.874-16.216-18.874-11.962 0-17.014 10.766-17.944 18.874zM1166.428 517.42c-3.057 1.462-9.836 3.721-18.475 3.721-19.406 0-32.033-13.158-32.033-32.83 0-19.805 13.558-34.293 34.559-34.293 6.911 0 13.026 1.728 16.215 3.456l-2.658 8.905c-2.79-1.462-7.178-3.057-13.557-3.057-14.754 0-22.729 11.032-22.729 24.324 0 14.886 9.57 24.057 22.33 24.057 6.645 0 11.032-1.595 14.355-3.057zM1233.947 502.002c0 6.779.133 12.627.532 17.678h-10.368l-.664-10.5h-.266c-2.924 5.184-9.836 11.962-21.267 11.962-10.102 0-22.197-5.715-22.197-28.178V455.35h11.696v35.488c0 12.228 3.855 20.603 14.355 20.603 7.843 0 13.292-5.45 15.419-10.766.664-1.596 1.063-3.722 1.063-5.982v-39.343h11.696v46.653zM1253.35 475.42c0-7.578-.134-14.09-.532-20.071h10.235l.531 12.76h.399c2.924-8.64 10.102-14.09 17.944-14.09 1.197 0 2.126.133 3.19.266v11.033c-1.197-.266-2.392-.266-3.988-.266-8.24 0-14.089 6.114-15.683 14.887-.266 1.595-.4 3.588-.4 5.45v34.292h-11.696v-44.262zM1301.996 489.64c.266 15.818 10.234 22.33 22.063 22.33 8.374 0 13.558-1.462 17.812-3.322l2.126 8.373c-4.12 1.86-11.298 4.12-21.532 4.12-19.805 0-31.634-13.158-31.634-32.564s11.431-34.559 30.172-34.559c21.134 0 26.584 18.343 26.584 30.172 0 2.392-.133 4.12-.4 5.45h-45.191zm34.292-8.373c.133-7.31-3.057-18.874-16.216-18.874-11.962 0-17.013 10.766-17.944 18.874z"/></g></svg>