<svg xmlns="http://www.w3.org/2000/svg" width="720" height="360"><path d="M525.574 116.214c-3.605-60.645-35.84-104.18-82.95-96.718-57.198 12.08-101.261 73.179-161.906 48.723-86.218-50.789-113.478 72.778-98.784 106.9 28.462 76.478 194.247 72.494 233.092 68.298 78.544-6.63 115.207-40.068 110.548-127.203z" fill="#407bff"/><path d="M525.574 116.214c-3.605-60.645-35.84-104.18-82.95-96.718-57.198 12.08-101.261 73.179-161.906 48.723-86.218-50.789-113.478 72.778-98.784 106.9 28.462 76.478 194.247 72.494 233.092 68.298 78.544-6.63 115.207-40.068 110.548-127.203z" opacity=".9" fill="#fff"/><ellipse cx="250" cy="416.24" rx="193.89" ry="11.32" fill="#f5f5f5" transform="translate(96.465 -109.372) scale(1.05414)"/><path d="M450.593 190.088h-1.054v-56.597a4.027 4.027 0 014.016-4.016v1.054a2.962 2.962 0 00-2.962 2.962zM449.602 209.2H297.068a11.659 11.659 0 01-11.596-11.596v-10.541h1.054v10.541a10.605 10.605 0 0010.542 10.542h152.534z" fill="#263238"/><path d="M382.843 209.2a11.659 11.659 0 01-11.595-11.596v-10.541h1.054v10.541a10.605 10.605 0 0010.541 10.542zM443.983 161.837h9.572v1.054h-9.572zM443.983 157.357h9.572v1.054h-9.572zM443.983 152.866h9.572v1.054h-9.572z" fill="#263238"/><path fill="#407bff" d="M165.648 188.454h388.715v4.217H165.648z"/><path fill="#407bff" d="M169.538 192.671h14.769V324.46h-14.769z"/><path opacity=".4" d="M182.198 192.671h2.108V324.46h-2.108z"/><path opacity=".2" d="M169.538 192.671h14.769v2.34h-14.769z"/><path opacity=".4" d="M165.648 188.454h22.559v4.217h-22.559z"/><path fill="#407bff" d="M438.007 192.671h109.968V324.46H438.007z"/><path opacity=".2" d="M479.297 297.748h68.677v1.023h-68.677zM479.297 272.058h68.677v1.023h-68.677zM479.297 246.379h68.677v1.023h-68.677zM479.297 220.69h68.677v1.023h-68.677zM502.836 278.267h21.61v1.023h-21.61zM502.836 252.588h21.61v1.023h-21.61zM502.836 303.957h21.61v1.023h-21.61zM502.836 226.899h21.61v1.023h-21.61zM502.836 201.22h21.61v1.023h-21.61z"/><path opacity=".4" d="M438.007 192.671h41.291V324.46h-41.291z"/><path opacity=".2" d="M438.007 192.671h109.968v2.34H438.007z"/><path fill="#263238" d="M452.322 116.298h93.355v72.145h-93.355z"/><path opacity=".3" d="M545.677 188.454h-23.539v-72.145h23.539z"/><path opacity=".4" fill="#407bff" d="M456.074 120.178h62.31v50.947h-62.31z"/><path opacity=".4" fill="#407bff" d="M470.948 120.178h47.436v50.947h-47.436z"/><path opacity=".8" fill="#263238" d="M472.677 122.36h35.113v43.199h-35.113z"/><path opacity=".1" fill="#407bff" d="M491.072 126.081h14.769v30.064h-14.769zM477.737 141.429h11.891v12.544h-11.891zM474.258 123.53h5.945v.759h-5.945zM474.258 125.027h5.945v.77h-5.945zM474.258 126.513h5.945v.77h-5.945zM474.258 128.01h5.945v.77h-5.945z"/><path d="M507.78 165.822a.274.274 0 01-.263-.264v-42.935h-34.85a.264.264 0 010-.527h35.113a.264.264 0 01.264.264v43.22a.264.264 0 01-.264.242z" fill="#fff"/><path fill="#407bff" d="M492.137 130.919h4.048v18.3h-4.048z"/><path fill="#263238" d="M492.137 130.919h.664v18.3h-.664z"/><path fill="#407bff" d="M493.855 130.919h4.048v18.3h-4.048z"/><path fill="#263238" d="M493.855 130.919h.664v18.3h-.664z"/><path fill="#407bff" d="M495.563 130.919h4.048v18.3h-4.048z"/><path fill="#263238" d="M495.563 130.919h.664v18.3h-.664z"/><path fill="#407bff" d="M497.281 130.919h4.048v18.3h-4.048z"/><path fill="#263238" d="M497.281 130.919h.664v18.3h-.664z"/><path opacity=".3" fill="#407bff" d="M456.074 171.114h62.31v13.461h-62.31z"/><path opacity=".3" fill="#407bff" d="M456.074 171.114h58.652v13.461h-58.652z"/><path fill="#263238" d="M463.77 157.167h28.725v4.132H463.77zM463.77 129.465h25.099v21.568H463.77z"/><path opacity=".3" d="M483.893 157.167h8.612v4.132h-8.612z"/><ellipse ry="9.529" rx="5.281" cy="140.248" cx="481.943" opacity=".5" fill="#407bff"/><path d="M484.241 140.248c0 2.288-1.054 4.143-2.298 4.143s-2.298-1.855-2.298-4.143c0-2.287 1.054-4.142 2.298-4.142s2.298 1.855 2.298 4.142z" opacity=".5" fill="#407bff"/><path d="M483.682 140.248c0 1.73-.78 3.163-1.739 3.163-.96 0-1.74-1.413-1.74-3.163 0-1.75.78-3.162 1.74-3.162s1.74 1.423 1.74 3.162zM481.943 150.041a.264.264 0 010-.527c2.762 0 5.018-4.153 5.018-9.266a.264.264 0 01.527 0c0 5.398-2.488 9.793-5.545 9.793zM476.651 140.512a.264.264 0 01-.263-.264c0-5.397 2.498-9.793 5.555-9.793a.264.264 0 110 .527c-2.772 0-5.028 4.154-5.028 9.266a.264.264 0 01-.264.264z" fill="#fff"/><path fill="#263238" d="M486.876 159.992v-1.054h9.952v10.015h21.557v1.054h-22.612v-10.015z"/><path fill="#263238" d="M498.019 169.48v-9.488h-8.908v-1.054h9.962v10.542z"/><path fill="#263238" d="M500.264 169.48v-9.488h-8.907v-1.054h9.961v10.542z"/><path d="M544.074 119.703a1.781 1.781 0 11-1.75-2.108 1.95 1.95 0 011.75 2.108zM538.15 119.703a.474.474 0 11-.474-.57.527.527 0 01.474.57zM535.957 119.703a.474.474 0 11-.474-.57.527.527 0 01.474.57z" opacity=".5" fill="#407bff"/><path d="M490.798 159.497H480.32a.264.264 0 01-.264-.264.264.264 0 01.264-.263h10.478a.264.264 0 01.263.263.264.264 0 01-.263.264z" fill="#fff"/><path fill="#407bff" d="M275.3 102.784h98.33v61.688H275.3z"/><path opacity=".7" fill="#263238" d="M371.522 104.892v57.472h-94.114v-57.472z"/><path fill="#407bff" d="M214.982 102.784H275.3v61.688h-60.318z"/><path fill="#263238" d="M214.982 164.462h-2.372v-61.688h2.372z"/><path opacity=".7" fill="#263238" d="M273.782 104.892v57.472H216.51v-57.472z"/><path fill="#407bff" d="M373.63 102.784h70.975v61.688H373.63z"/><path opacity=".7" fill="#263238" d="M443.087 104.892v57.472h-67.939v-57.472z"/><path fill="#407bff" d="M280.686 108.54h9.677v3.342h-9.677zM302.939 108.54h9.677v3.342h-9.677zM336.313 108.54h9.677v3.342h-9.677zM348.071 108.645h9.677v3.342h-9.677zM353.97 115.817h9.677v3.342h-9.677zM291.818 113.02h9.677v3.342h-9.677zM316.089 121.873h9.677v3.342h-9.677zM309.026 139.642h9.677v3.342h-9.677zM287.695 132.688h9.677v3.342h-9.677zM441.601 125.322h-7.168v-3.342h7.168zM425.114 125.322h-7.168v-3.342h7.168zM433.347 120.842h-7.168V117.5h7.168zM425.114 116.372h-7.168v-3.342h7.168zM383.918 116.372h-7.168v-3.342h7.168zM441.601 111.881h-7.168v-3.342h7.168zM272.317 111.881h-6.019v-3.342h6.019zM258.465 111.881h-6.019v-3.342h6.019zM230.773 111.881h-6.019v-3.342h6.019zM265.391 116.372h-6.019v-3.342h6.019zM245.084 126.147h-6.019v-3.342h6.019zM223.847 120.842h-6.019V117.5h6.019zM272.317 125.322h-6.019v-3.342h6.019z"/><path fill="#263238" d="M173.122 153.383h50.188v35.071h-50.188z"/><path opacity=".3" d="M223.32 188.454h-22.632v-35.071h22.632z"/><circle r="7.474" cy="165.611" cx="211.999" opacity=".4" fill="#407bff"/><path d="M215.646 180.19a3.647 3.647 0 11-3.647-3.647 3.647 3.647 0 013.647 3.647z" opacity=".2" fill="#407bff"/><path fill="#263238" d="M282.11 183.13l10.636 5.324h-9.277z"/><path fill="#407bff" d="M351.598 188.454l-10.625-5.323h-58.864l10.637 5.323z"/><path d="M368.433 188.454s-2.277-5.597 7-5.84a24.33 24.33 0 0115.812 5.84z" fill="#263238"/><g><path fill="#7f3e3b" d="M342.67 316.364l1.792-18.838 7.685 2.298-1.792 18.838z"/><path d="M341.88 315.088l8.875 1.487a.58.58 0 01.506.632l-.738 7.105a1.434 1.434 0 01-1.623 1.17c-3.078-.57-4.533-.99-8.433-1.644-2.404-.4-7.896-1.381-11.237-1.697-3.342-.317-2.941-3.627-1.497-3.795 6.493-.728 10.183-1.613 12.702-2.994a2.266 2.266 0 011.444-.264z" fill="#263238"/><path opacity=".2" d="M344.462 297.537l-1.001 10.552 7.769 1.444.917-9.709z"/><path d="M395.84 202.316s-52.843 4.46-51.547 27.408c1.423 25.13-3.394 74.317-3.394 74.317l13.42 2.52s15.168-52.254 13.345-70.407c14.895 0 48.996 1.307 53.95-12.133a59.738 59.738 0 003.532-21.294z" fill="#407bff"/><path d="M395.84 202.316s-52.843 4.46-51.547 27.408c1.423 25.13-3.394 74.317-3.394 74.317l13.42 2.52s15.168-52.254 13.345-70.407c14.895 0 48.996 1.307 53.95-12.133a59.738 59.738 0 003.532-21.294z" opacity=".2" fill="#fff"/><path fill="#407bff" d="M338.717 305.106l.284-7.685 17.984 3.995-.896 6.662zM338.843 316.005a10.12 10.12 0 002.109.064.169.169 0 00.158-.116.2.2 0 000-.2c-.222-.222-2.214-2.109-3.236-1.898a.664.664 0 00-.517.443 1.054 1.054 0 00.063 1.054 2.203 2.203 0 001.423.653zm1.698-.284c-1.466 0-2.499-.169-2.804-.601a.664.664 0 010-.675.337.337 0 01.242-.232c.538-.116 1.74.77 2.562 1.508z"/><path d="M340.962 316.069h.085a.21.21 0 00.126-.137c0-.095.58-2.34-.095-3.237a.896.896 0 00-.738-.39.706.706 0 00-.759.443c-.327.833.58 2.678 1.286 3.279a.137.137 0 00.095.042zm-.548-3.384a.559.559 0 01.369.232 4.132 4.132 0 01.095 2.593 3.784 3.784 0 01-.949-2.625c0-.105.116-.221.39-.21z" fill="#407bff"/><path fill="#7f3e3b" d="M308.78 318.303l5.06-18.046 7.315 3.288-5.06 18.047z"/><path d="M309.507 315.33l8.897 1.424a.58.58 0 01.495.632l-.696 7.105a1.413 1.413 0 01-1.613 1.18c-3.078-.547-4.532-.969-8.433-1.59-2.403-.38-8.95-1.603-12.249-2.267-3.3-.664-2.561-3.9-1.054-3.922 6.525-.073 10.752-.896 13.261-2.298a2.203 2.203 0 011.392-.263z" fill="#263238"/><path opacity=".2" d="M313.84 300.257l-2.605 9.308 7.316 3.289 2.604-9.309z"/><path d="M380.113 202.316c-.348 0-59.243 6.062-59.317 26.038-.126 33.036-11.827 74.4-11.827 74.4l13.62 5.493s20.555-44.274 20.25-70.027c16.202-4.648 58.114 3.163 63.069-10.267 4.058-10.984 1.866-25.637 1.866-25.637z" fill="#407bff"/><path d="M380.113 202.316c-.348 0-59.243 6.062-59.317 26.038-.126 33.036-11.827 74.4-11.827 74.4l13.62 5.493s20.555-44.274 20.25-70.027c16.202-4.648 58.114 3.163 63.069-10.267 4.058-10.984 1.866-25.637 1.866-25.637z" opacity=".4" fill="#fff"/><path fill="#407bff" d="M307.145 305.19l1.255-6.388 16.455 5.682-2.108 7.727zM306.481 316.258a9.972 9.972 0 002.109.053.19.19 0 00.168-.126.18.18 0 00-.053-.19c-.22-.221-2.213-2.108-3.246-1.887a.706.706 0 00-.506.453 1.054 1.054 0 00.063 1.054 2.203 2.203 0 001.465.643zm1.687-.295c-1.455.053-2.488-.158-2.804-.58a.675.675 0 010-.685.316.316 0 01.242-.221c.527-.084 1.74.759 2.562 1.486z"/><path d="M308.59 316.311h.094a.158.158 0 00.116-.126c0-.095.57-2.351-.105-3.247a.917.917 0 00-.738-.38.717.717 0 00-.759.454c-.327.832.59 2.667 1.307 3.268a.21.21 0 00.085.031zm-.57-3.384a.548.548 0 01.38.222 4.217 4.217 0 01.116 2.603 3.763 3.763 0 01-.97-2.624c0-.106.116-.222.39-.211z" fill="#407bff"/><path d="M401.923 107.19l-4.47 5.176-6.092 7.063a23.918 23.918 0 01.927 2.783c1.055 3.774.612 7.379-4.807 9.709 0 0-4.68 6.114 6.452 4.417 11.132-1.698 12.808-7.474 12.808-7.474-4.934-3.51-5.208-15.18-4.818-21.673zM414.626 136.01c1.55 3.332 2.825 6.536 4.1 9.868a153.309 153.309 0 013.447 10.077 110.072 110.072 0 012.678 10.542 55.005 55.005 0 011.18 11.458 23.581 23.581 0 01-1.001 6.673 14.98 14.98 0 01-1.76 3.753 11.986 11.986 0 01-1.508 1.834l-.453.442c-.253.211-.527.443-.79.622a8.36 8.36 0 01-1.413.78 11.153 11.153 0 01-2.277.728 14.758 14.758 0 01-1.866.274 25.552 25.552 0 01-3.215 0 45.054 45.054 0 01-5.671-.633 107.428 107.428 0 01-20.461-5.86l1.528-5.809c6.694.801 13.525 1.655 19.966 1.95 1.602 0 3.162.074 4.617 0a13.535 13.535 0 001.929-.242c.527-.095.98-.285.822-.274a1.212 1.212 0 00-.295.147 1.792 1.792 0 00-.295.222s.052-.085.095-.18a4.912 4.912 0 00.316-.938 14.758 14.758 0 00.284-3.52 46.625 46.625 0 00-1.338-8.95c-.717-3.163-1.645-6.24-2.657-9.372a180.865 180.865 0 00-3.31-9.381 308.46 308.46 0 00-3.71-9.193z" fill="#7f3e3b"/><path d="M405.866 131.657c-6.441 3.626-13.293 17.773-13.293 17.773l15.285 15.549c5.64-5.334 13.862-18.532 14.758-23.813 1.444-8.086-6.472-15.286-16.75-9.509z" fill="#407bff"/><path d="M390.054 182.34l-6.99-3.932-3.51 7.57s8.17 3.404 9.888 1.275zM374.21 184.902l5.344 1.022 3.51-7.568-5.66 1.486z" fill="#7f3e3b"/><path d="M421.846 131.857c-.79-2.108-4.48-4.216-6.746-4.216h-1.497c-2.614 0-5.871.21-9.034.58a160.967 160.967 0 00-17.92 3.014c-2.72.717-5.345 1.624-7.432 2.404-2.656 1.054-4.217 1.76-4.217 1.76s4.428 46.836 5.176 67.297h44.97c1.55-8.792.538-24.878.664-40.753.074-9.53-.706-21.41-3.964-30.086z" fill="#407bff"/><path d="M377.288 161.468c.337 4.038.685 8.275 1.054 12.513 5.27-7.695 8.19-20.956 8.19-20.956z" opacity=".2"/><path d="M383.824 144.591c-1.34 3.363-2.741 6.578-4.217 9.836-1.476 3.257-2.952 6.461-4.512 9.666a185.529 185.529 0 01-10.541 18.975c-1.054 1.56-2.108 3.11-3.289 4.659-.59.78-1.244 1.55-1.94 2.34-.38.4-.685.77-1.128 1.18l-.632.612-.358.338a8.95 8.95 0 01-3.458 1.834 15.232 15.232 0 01-2.045.432 21.23 21.23 0 01-3.394.137 43.831 43.831 0 01-5.84-.58 107.164 107.164 0 01-20.893-5.924l1.539-5.819c6.82.822 13.788 1.697 20.345 1.971a44.537 44.537 0 004.638-.063 11.67 11.67 0 001.844-.295 2.414 2.414 0 00.57-.211c.063 0 0-.074-.285.105a1.391 1.391 0 00-.285.211s.074-.095.106-.126l.295-.327c.19-.19.422-.506.643-.759.432-.548.875-1.138 1.318-1.781.875-1.255 1.729-2.646 2.572-4.059 1.686-2.825 3.257-5.83 4.796-8.865 1.54-3.036 3.015-6.135 4.47-9.256a696.78 696.78 0 008.433-18.869z" fill="#7f3e3b"/><path d="M374.98 135.431c-6.441 3.626-13.293 17.762-13.293 17.762l15.285 15.549c5.629-5.324 13.862-18.532 14.758-23.813 1.444-8.107-6.43-15.275-16.75-9.498z" fill="#407bff"/><path d="M326.11 183.795l-7-3.985-3.51 7.57s8.17 3.414 9.898 1.285z" fill="#7f3e3b"/><path fill="#7f3e3b" d="M310.255 186.357l5.345 1.022 3.51-7.569-5.65 1.497z"/><path d="M379.228 101.35c0 .696-.348 1.287-.812 1.308-.464.02-.833-.527-.843-1.223-.011-.696.358-1.286.811-1.307.454-.021.833.527.844 1.223zM381.557 98.757a.4.4 0 01-.337-.19 3.426 3.426 0 00-2.551-1.623.422.422 0 01-.4-.421.411.411 0 01.42-.401 4.217 4.217 0 013.227 2.003.422.422 0 01-.127.57.453.453 0 01-.232.062z" fill="#263238"/><path d="M378.975 101.74a22.337 22.337 0 01-2.425 5.398 3.373 3.373 0 002.867.21z" fill="#630f0f"/><path d="M402.556 97.84c-.411 8.602-.222 13.704-4.49 18.258a11.206 11.206 0 01-19.207-4.965c-1.94-7.621-.928-20.408 7.379-24.245a11.321 11.321 0 0116.318 10.952z" fill="#7f3e3b"/><path d="M383.191 103.037c-1.876-1.581-.527-7.316.991-8.549-4.217.232-11.395-2.34-7.632-10.31 3.763-7.969 11.733-2.108 12.85 0 6.03-.115 9.54-7.083 14.463-1.58 4.923 5.502-.506 6.915-.506 6.915s6.156 1.16 3.099 11.195a31.624 31.624 0 01-5.587 10.014l-11.195 2.108s-8.844-3.7-6.483-9.793z" fill="#263238"/><path d="M388.135 103.838a10.099 10.099 0 01-2.783 5.63c-1.908 1.823-3.531 0-3.552-2.773 0-2.509.938-6.483 3.162-7.22 2.224-.739 3.584 1.633 3.173 4.363z" fill="#7f3e3b"/><path d="M357.101 234.647h64.197v21.146h-74.654a7.59 7.59 0 01-6.536-11.459 19.734 19.734 0 0116.993-9.687zM386.522 220.753a60.771 60.771 0 00-40.057 0 5.692 5.692 0 01-7.052-2.688c-1.202-2.54.41-5.83 3.679-6.978a70.912 70.912 0 0146.782 0c3.268 1.138 4.881 4.438 3.68 6.978a5.703 5.703 0 01-7.032 2.688z" fill="#263238"/><path fill="#263238" d="M363.563 213.08h5.893v25.14h-5.893zM473.025 118.691l-17.309-18.51a8.17 8.17 0 00-5.987-2.541h-34.25a9.234 9.234 0 00-6.324 2.54l-19.607 18.511a24.066 24.066 0 00-7.559 20.029l3.69 33.67a14.916 14.916 0 003.91 8.58l.686.727a15.022 15.022 0 013.974 11.269l-.78 12.65a17.014 17.014 0 01-5.366 11.269 17.067 17.067 0 00-5.365 11.279l-1.318 21.399a5.83 5.83 0 005.882 6.325h71.028a6.757 6.757 0 006.663-6.325l1.317-21.4a15.053 15.053 0 00-3.974-11.278 15.053 15.053 0 01-3.974-11.27l.78-12.649a17.035 17.035 0 015.366-11.269l.77-.727a17.214 17.214 0 004.975-8.58l7.842-33.67a21.79 21.79 0 00-5.07-20.029z"/><path d="M464.54 181.645l.769-.728a17.214 17.214 0 004.975-8.58l7.843-33.67a21.79 21.79 0 00-5.102-20.029l-17.309-18.458a8.17 8.17 0 00-5.987-2.54H422.9a9.255 9.255 0 00-6.325 2.54l-19.597 18.511a24.077 24.077 0 00-7.568 20.029l3.689 33.67a14.916 14.916 0 003.91 8.58l.686.727a15.022 15.022 0 013.974 11.269l-.78 12.65a17.014 17.014 0 01-5.365 11.269 17.067 17.067 0 00-5.366 11.279l-1.318 21.399a5.83 5.83 0 005.893 6.325h63.596a6.757 6.757 0 006.663-6.325l1.317-21.4a15.053 15.053 0 00-3.974-11.278 15.053 15.053 0 01-3.974-11.27l.78-12.649a17.035 17.035 0 015.397-11.321z" opacity=".5"/><path fill="#263238" d="M398.803 274.683h16.265v40.595h-16.265zM401.143 255.793h11.596v18.88h-11.596z"/><path opacity=".5" d="M401.143 255.793v8.465l11.596-2.92v-5.545z"/><path d="M406.94 324.133v-8.865h-13.134a41.87 41.87 0 00-7.684.716l-30.022 5.608a2.224 2.224 0 00.495 4.407z" fill="#263238"/><path d="M366.852 329.15a4.586 4.586 0 11-4.575-4.585 4.575 4.575 0 014.575 4.586z" fill="#263238"/><path d="M364.343 329.15a4.586 4.586 0 11-4.585-4.585 4.586 4.586 0 014.585 4.586z"/><path d="M406.94 324.133v-8.865h13.146a41.702 41.702 0 017.685.716l30.022 5.608a2.224 2.224 0 01-.496 4.407z" fill="#263238"/><path d="M449.602 329.15a4.586 4.586 0 104.575-4.585 4.575 4.575 0 00-4.575 4.586z" fill="#263238"/><path d="M447.03 329.15a4.586 4.586 0 104.585-4.585 4.586 4.586 0 00-4.585 4.586zM401.112 329.15a4.586 4.586 0 104.585-4.585 4.586 4.586 0 00-4.585 4.586z"/><path d="M403.62 329.15a4.586 4.586 0 104.575-4.585 4.575 4.575 0 00-4.575 4.586z" fill="#263238"/><path d="M406.94 326.526a4.217 4.217 0 01-4.216-4.217v-.854a4.217 4.217 0 014.217-4.216 4.217 4.217 0 014.216 4.216v.854a4.217 4.217 0 01-4.216 4.217z" fill="#263238"/></g></svg>