<svg xmlns="http://www.w3.org/2000/svg" viewBox="0 0 500 500"><g aria-label="Parrot OS" style="line-height:1.25" font-weight="400" font-size="12" font-family="sans-serif" letter-spacing="0" word-spacing="0" fill="#263238" stroke-width=".319"><g><path d="M476.63 400.25a43.35 43.35 0 01-4.69 10.58l5.51 9.21-12.84 12.26-8.95-5.94a43.41 43.41 0 01-10.79 4.19L442.25 441l-17.75-.42-2.12-10.58a43.8 43.8 0 01-10.59-4.69l-9.21 5.51L390.32 418l5.94-8.94a43.45 43.45 0 01-4.18-10.8l-10.41-2.61.42-17.76 10.52-2.12a43.32 43.32 0 014.68-10.58l-5.51-9.19 12.85-12.25 8.94 5.94a43.48 43.48 0 0110.8-4.19l2.61-10.4 17.76.42 2.12 10.48a43.8 43.8 0 0110.59 4.69l9.21-5.51L478.91 358l-5.91 9a43.85 43.85 0 014.18 10.8l10.4 2.61-.42 17.75-10.51 2.13zm-23-11a19.05 19.05 0 10-19.49 18.59 19 19 0 0019.5-18.58z" fill="#e0e0e0" fill-rule="evenodd" opacity=".8"/><path d="M196.09 135.13a5 5 0 01-.16 1.56 6.43 6.43 0 01-8.53 4.31 5.74 5.74 0 01-1.63-.92 6 6 0 01-1.35-1.41 6.47 6.47 0 01.18-7.7 6 6 0 011.42-1.34 5.83 5.83 0 011.67-.84 6.4 6.4 0 016.1 1.11 6.36 6.36 0 012.21 3.63 4.82 4.82 0 01.09 1.57 14 14 0 00-.23-1.54 6.35 6.35 0 00-2.23-3.46 6.23 6.23 0 00-5.84-1 5.86 5.86 0 00-1.57.81 6 6 0 00-1.34 1.28 6.14 6.14 0 00-.17 7.28 6 6 0 001.27 1.34 6.25 6.25 0 001.54.88 6.25 6.25 0 008.27-4.07c.27-.93.26-1.5.3-1.49z" fill="#e0e0e0"/><path d="M203.74 138.78l.21-.06.66-.14 2.61-.56c0-1.51.06-3.5.1-5.9l.07.09-3.46-.86h-.06v-.07a15.05 15.05 0 00-1.39-3.56v-.12l2-3v.16l-4.08-4.26h.17l-3.06 1.84H197.36a14.41 14.41 0 00-3.49-1.54h-.09v-.1l-.71-3.49.16.13-5.91-.13.17-.13-.87 3.46v.1h-.11a13.83 13.83 0 00-3.54 1.37l-.1.05-.08-.06c-.94-.61-1.95-1.29-3-2h.22l-4.27 4.08v-.22l1.76 3.14.06.1-.06.09a14.75 14.75 0 00-1.54 3.47l-.13.12h-.44l-.39.22-.88.18-1.74.35.14-.17q-.06 3-.14 5.9l-.13-.18 3.46.87h.1v.11a14.06 14.06 0 001.37 3.54l.05.1-.06.09-2 3v-.22l4.08 4.28h-.21l3.07-1.83H182.28a13.93 13.93 0 003.47 1.55h.1v.09c.24 1.2.47 2.36.7 3.5l-.15-.12 5.91.15-.14.11.88-3.46v-.08h.07a14.41 14.41 0 003.57-1.37h.12l3 2h-.14l4.3-4.05v.1l-1.81-3.08a15.26 15.26 0 001.28-2.59c.11-.29.19-.51.24-.68a1.35 1.35 0 01.09-.22l-.06.23q-.06.23-.21.69a14.11 14.11 0 01-1.24 2.63v-.06l1.85 3v.06h-.05l-4.26 4.1-.06.06-.07-.05-3-2h.12a14.3 14.3 0 01-3.59 1.47l.1-.09c-.28 1.1-.56 2.25-.86 3.46v.11h-.11l-5.91-.13h-.12v-.12c-.23-1.14-.47-2.3-.71-3.5l.11.12a14.28 14.28 0 01-3.57-1.57h.17l-3.06 1.84-.11.07-.1-.1-4.08-4.27-.09-.1.07-.11 2-3v.18a14.64 14.64 0 01-1.41-3.63l.13.13-3.46-.87h-.14v-.15c.05-1.94.09-3.91.14-5.9v-.15h.15l1.74-.35.88-.18.44-.08.22-.05H175.83c-.27.25-.07.07-.14.12a14.52 14.52 0 011.57-3.56v.19l-1.83-3.07-.07-.12.1-.1 4.28-4.08.1-.09.12.07c1 .69 2 1.36 3 2h-.18a14.67 14.67 0 013.63-1.4l-.12.13.87-3.46v-.14h.14l5.9.14h.13v.12c.24 1.22.48 2.42.7 3.5l-.11-.12a14.83 14.83 0 013.56 1.58h-.16l3.07-1.82.1-.06.07.08 4.07 4.28.07.08v.08l-2 3v-.12a14.62 14.62 0 011.39 3.62l-.08-.07 3.46.88h.07v.07c-.07 2.4-.13 4.39-.18 5.9v.05l-2.6.49-.68.13z" fill="#e0e0e0"/><path d="M259.58 96.24a28.43 28.43 0 01-3.08 7l3.63 6.06-8.46 8.07-5.88-3.91a28.28 28.28 0 01-7.1 2.75L237 123l-11.68-.28-1.4-6.92a28.5 28.5 0 01-7-3.08l-6.06 3.63-8.06-8.46 3.91-5.88a28.28 28.28 0 01-2.75-7.1l-6.85-1.72.28-11.68 6.91-1.4a28.53 28.53 0 013.09-7l-3.63-6.06 8.46-8.05 5.88 4a28.28 28.28 0 017.1-2.75l1.72-6.85 11.68.28 1.4 6.91a28.29 28.29 0 017 3.09l6-3.68 8.06 8.45-3.91 5.89a28.28 28.28 0 012.75 7.1l6.85 1.72-.28 11.68-6.92 1.4zM244.46 89a12.53 12.53 0 10-12.82 12.23A12.53 12.53 0 00244.46 89z" fill="#f5f5f5" fill-rule="evenodd" opacity=".8"/><path d="M76.74 445.6c20-11.07 26.8-34.8 28.35-56.62.26-3.64 1.06-7.42-.33-10.79s-5.19-6-8.6-4.78c-2.83 1-4.33 4-6.11 6.43a21.3 21.3 0 01-9.37 7.23c-2.44 1-5.37 1.39-7.52-.11-3-2.06-2.86-6.42-2.46-10l2.3-20.19c.41-3.61.8-7.29 0-10.83s-2.9-7-6.24-8.31-7.78.21-8.88 3.66a31.9 31.9 0 00-.57 4.48c-.26 1.49-1.13 3.08-2.6 3.34s-2.82-.9-3.79-2.07c-3.34-4-5.37-9-7.25-13.91S40 323.19 37 318.86s-7.3-8-12.44-8.81-11 1.77-12.82 6.71.58 10.42 3.38 14.88a80.71 80.71 0 0015.12 17.76 6.58 6.58 0 012.49 3.31c.53 2.49-2 4.64-4.46 5.18-2.78.61-5.67 0-8.52.06s-6 .95-7.37 3.5c-1.87 3.55.81 7.72 3.62 10.55a69.49 69.49 0 0019.14 14c2.55 1.25 5.25 2.39 7.2 4.48s2.89 5.48 1.33 7.88-5 2.87-7.69 2.06-5.06-2.58-7.6-3.86c-4.77-2.39-11.21-2.72-14.83 1.23-2.39 2.6-3 6.5-2.28 10a26.25 26.25 0 004.53 9.49c7 10.17 16.35 18.75 27.43 23.95s21.63 7.4 33.51 4.43" fill="#f5f5f5"/><path d="M72.56 431.38a323.33 323.33 0 00-9.17-36.17q-1.45-4.74-2.89-9.36c-1-3.07-1.9-6.11-3-9a162.71 162.71 0 00-7.34-16.41c-2.59-5.11-5.24-9.86-7.74-14.28s-4.93-8.5-7.3-12.12a128.36 128.36 0 00-12.42-16.25c-1.61-1.79-2.9-3.14-3.79-4.05l-1-1a2.74 2.74 0 00-.36-.33 2.91 2.91 0 00.31.38l1 1.07c.86.93 2.12 2.31 3.7 4.13a135.88 135.88 0 0112.22 16.33c2.33 3.63 4.72 7.71 7.21 12.14s5.1 9.18 7.67 14.29a163.7 163.7 0 017.28 16.36c1.1 2.9 2 5.92 3 9s1.91 6.19 2.89 9.35A333.78 333.78 0 0172 431.49" fill="#e0e0e0"/><path d="M57.3 376.78a6.92 6.92 0 00.52-1.51c.29-1 .67-2.4 1.11-4.17.89-3.54 2-8.47 3.1-13.91s2.28-10.34 3.22-13.86c.46-1.76.86-3.18 1.14-4.16a6.38 6.38 0 00.36-1.54 7.74 7.74 0 00-.61 1.46c-.36 1-.82 2.36-1.34 4.11-1.06 3.5-2.27 8.4-3.42 13.85s-2.13 10.23-2.91 13.95c-.36 1.67-.66 3.09-.9 4.22a7.29 7.29 0 00-.27 1.56z" fill="#e0e0e0"/><path d="M11.82 363.22a10.38 10.38 0 001.83.41c1.17.23 2.88.56 5 1 4.2.91 10 2.36 16.25 4.25s11.89 3.85 15.91 5.38c2 .75 3.63 1.41 4.75 1.85a10.65 10.65 0 001.76.64 8.69 8.69 0 00-1.66-.88c-1.09-.52-2.68-1.24-4.68-2-4-1.66-9.59-3.69-15.89-5.59a165.18 165.18 0 00-16.35-4.07c-2.11-.41-3.84-.67-5-.82a9.64 9.64 0 00-1.92-.17zM72.08 430.46s.15-.17.38-.53l1-1.59c.84-1.39 2-3.43 3.39-6 2.8-5.08 6.45-12.22 10.36-20.15s7.49-15.1 10.18-20.23a1257.858 1257.858 0 004.06-7.72 3.08 3.08 0 00.27-.6 2.42 2.42 0 00-.38.53l-1 1.59c-.84 1.39-2 3.43-3.39 6-2.8 5.08-6.45 12.22-10.36 20.16S79.1 417 76.41 422.14c-1.32 2.49-2.4 4.54-3.2 6.07-.35.66-.63 1.21-.87 1.65a2.6 2.6 0 00-.26.6zM12.52 404.1a2.33 2.33 0 00.58.31l1.73.79 6.38 2.8c5.38 2.39 12.78 5.79 20.95 9.55s15.61 7.09 21.05 9.37c2.71 1.15 4.92 2.05 6.46 2.64l1.78.67c.4.15.62.22.63.19a2.33 2.33 0 00-.58-.31l-1.73-.79-6.38-2.84c-5.38-2.39-12.78-5.79-21-9.55s-15.61-7.09-21-9.37c-2.72-1.14-4.93-2.05-6.47-2.64l-1.77-.67a2.33 2.33 0 00-.63-.15z" fill="#e0e0e0"/></g><path d="M471.13 447.06c0 .14-99 .26-221.12.26s-221.14-.12-221.14-.26 99-.26 221.14-.26 221.12.11 221.12.26z" style="fill:#263238"/><g><path d="M207.92 430.1h-9.24v-1h9.24a11 11 0 0011-11V175.3a13.25 13.25 0 0113.23-13.23h20v1h-20a12.25 12.25 0 00-12.23 12.23v242.84a12 12 0 01-12 11.96zM84.23 287.39h106.5v142.2H84.23z"/><path fill="#455a64" d="M68.67 310.76H185.1v28.89H68.67z"/><path d="M73.84 316.71h22.92v3.53H73.84zM73.84 322.78h22.92v3.53H73.84zM73.84 329.06h22.92v3.53H73.84zM105.83 318.84a1.32 1.32 0 11-1.31-1.31 1.32 1.32 0 011.31 1.31zM111.64 318.84a1.32 1.32 0 11-1.32-1.31 1.32 1.32 0 011.32 1.31zM117.44 318.84a1.32 1.32 0 11-1.31-1.31 1.32 1.32 0 011.31 1.31zM123.24 318.84a1.32 1.32 0 11-1.31-1.31 1.32 1.32 0 011.31 1.31zM168.21 318.84a1.32 1.32 0 11-1.31-1.31 1.32 1.32 0 011.31 1.31zM174.13 318.84a1.32 1.32 0 11-1.31-1.31 1.32 1.32 0 011.31 1.31zM129.05 318.84a1.32 1.32 0 11-1.32-1.31 1.32 1.32 0 011.32 1.31zM157.55 318.84a1.32 1.32 0 11-1.32-1.31 1.32 1.32 0 011.32 1.31z"/><path d="M134.85 318.84a1.32 1.32 0 11-1.32-1.31 1.32 1.32 0 011.32 1.31zM140.65 318.84a1.32 1.32 0 11-1.31-1.31 1.32 1.32 0 011.31 1.31zM152.43 318.84a1.32 1.32 0 11-1.32-1.31 1.32 1.32 0 011.32 1.31zM179 318.84a1.32 1.32 0 11-1.32-1.31 1.32 1.32 0 011.32 1.31z" fill="#f5f5f5"/><path d="M146.46 318.84a1.32 1.32 0 11-1.32-1.31 1.32 1.32 0 011.32 1.31zM163.07 318.84a1.32 1.32 0 11-1.31-1.31 1.32 1.32 0 011.31 1.31z" fill="#ff725e"/><path d="M176.32 325.18a1.32 1.32 0 111.31 1.32 1.31 1.31 0 01-1.31-1.32zM170.51 325.18a1.32 1.32 0 111.32 1.32 1.32 1.32 0 01-1.32-1.32zM164.71 325.18a1.32 1.32 0 111.29 1.32 1.31 1.31 0 01-1.29-1.32zM158.91 325.18a1.32 1.32 0 111.31 1.32 1.31 1.31 0 01-1.31-1.32zM113.94 325.18a1.32 1.32 0 111.31 1.32 1.31 1.31 0 01-1.31-1.32zM108 325.18a1.32 1.32 0 111.31 1.32 1.31 1.31 0 01-1.31-1.32zM153.1 325.18a1.32 1.32 0 111.32 1.32 1.32 1.32 0 01-1.32-1.32zM124.6 325.18a1.32 1.32 0 111.32 1.32 1.32 1.32 0 01-1.32-1.32z"/><path d="M147.3 325.18a1.32 1.32 0 111.31 1.32 1.31 1.31 0 01-1.31-1.32zM141.5 325.18a1.32 1.32 0 111.31 1.32 1.31 1.31 0 01-1.31-1.32zM129.72 325.18a1.32 1.32 0 111.28 1.32 1.32 1.32 0 01-1.28-1.32zM103.2 325.18a1.32 1.32 0 111.32 1.32 1.32 1.32 0 01-1.32-1.32z" fill="#f5f5f5"/><path d="M135.69 325.18a1.32 1.32 0 111.31 1.32 1.32 1.32 0 01-1.31-1.32zM119.08 325.18a1.32 1.32 0 111.31 1.32 1.31 1.31 0 01-1.31-1.32z" fill="#ff725e"/><path d="M105.83 330.82a1.32 1.32 0 11-1.31-1.32 1.31 1.31 0 011.31 1.32z"/><circle r="1.31" cy="330.82" cx="110.32"/><circle r="1.32" cy="330.82" cx="116.12"/><path d="M123.24 330.82a1.32 1.32 0 11-1.31-1.32 1.31 1.31 0 011.31 1.32z"/><circle r="1.31" cy="330.82" cx="166.9"/><circle r="1.31" cy="330.82" cx="172.82"/><path d="M129.05 330.82a1.32 1.32 0 11-1.32-1.32 1.31 1.31 0 011.32 1.32zM157.55 330.82a1.32 1.32 0 11-1.32-1.32 1.31 1.31 0 011.32 1.32z"/><circle r="1.31" cy="330.82" cx="133.53" fill="#f5f5f5"/><path d="M140.65 330.82a1.32 1.32 0 11-1.31-1.32 1.31 1.31 0 011.31 1.32zM152.43 330.82a1.32 1.32 0 11-1.32-1.32 1.31 1.31 0 011.32 1.32zM179 330.82a1.32 1.32 0 11-1.32-1.32 1.31 1.31 0 011.32 1.32z" fill="#f5f5f5"/><path d="M146.46 330.82a1.32 1.32 0 11-1.32-1.32 1.31 1.31 0 011.32 1.32z" fill="#ff725e"/><circle r="1.31" cy="330.82" cx="161.76" fill="#ff725e"/><path fill="#455a64" d="M68.67 346.41H185.1v28.89H68.67z"/><path d="M105.55 354.2a1.32 1.32 0 11-1.32-1.31 1.32 1.32 0 011.32 1.31zM111.35 354.2a1.32 1.32 0 11-1.32-1.31 1.32 1.32 0 011.32 1.31zM117.15 354.2a1.32 1.32 0 11-1.31-1.31 1.32 1.32 0 011.31 1.31zM123 354.2a1.32 1.32 0 11-1.31-1.31 1.31 1.31 0 011.31 1.31zM167.93 354.2a1.32 1.32 0 11-1.32-1.31 1.32 1.32 0 011.32 1.31zM173.84 354.2a1.32 1.32 0 11-1.31-1.31 1.32 1.32 0 011.31 1.31zM128.76 354.2a1.32 1.32 0 11-1.32-1.31 1.32 1.32 0 011.32 1.31zM157.26 354.2a1.32 1.32 0 11-1.32-1.31 1.32 1.32 0 011.32 1.31z"/><path d="M134.56 354.2a1.32 1.32 0 11-1.31-1.31 1.32 1.32 0 011.31 1.31zM140.36 354.2a1.32 1.32 0 11-1.31-1.31 1.31 1.31 0 011.31 1.31zM152.14 354.2a1.32 1.32 0 11-1.32-1.31 1.32 1.32 0 011.32 1.31zM178.66 354.2a1.32 1.32 0 11-1.32-1.31 1.32 1.32 0 011.32 1.31z" fill="#f5f5f5"/><path d="M146.17 354.2a1.32 1.32 0 11-1.32-1.31 1.32 1.32 0 011.32 1.31zM162.78 354.2a1.32 1.32 0 11-1.31-1.31 1.31 1.31 0 011.31 1.31z" fill="#ff725e"/><path d="M176 360.54a1.32 1.32 0 111.31 1.32 1.31 1.31 0 01-1.31-1.32z"/><circle r="1.32" cy="360.54" cx="171.54"/><path d="M164.42 360.54a1.32 1.32 0 111.32 1.32 1.32 1.32 0 01-1.32-1.32zM158.62 360.54a1.32 1.32 0 111.31 1.32 1.31 1.31 0 01-1.31-1.32zM113.65 360.54a1.32 1.32 0 111.31 1.32 1.31 1.31 0 01-1.31-1.32zM107.73 360.54a1.32 1.32 0 111.32 1.32 1.32 1.32 0 01-1.32-1.32z"/><circle r="1.32" cy="360.54" cx="154.13"/><path d="M124.31 360.54a1.32 1.32 0 111.32 1.32 1.32 1.32 0 01-1.32-1.32z"/><path d="M147 360.54a1.32 1.32 0 111.32 1.32 1.32 1.32 0 01-1.32-1.32zM141.21 360.54a1.32 1.32 0 111.31 1.32 1.31 1.31 0 01-1.31-1.32z" fill="#f5f5f5"/><circle r="1.32" cy="360.54" cx="130.75" fill="#f5f5f5"/><path d="M102.92 360.54a1.32 1.32 0 111.31 1.32 1.31 1.31 0 01-1.31-1.32z" fill="#f5f5f5"/><path d="M135.4 360.54a1.32 1.32 0 111.32 1.32 1.32 1.32 0 01-1.32-1.32zM118.79 360.54a1.32 1.32 0 111.31 1.32 1.31 1.31 0 01-1.31-1.32z" fill="#ff725e"/><path d="M105.55 366.18a1.32 1.32 0 11-1.32-1.32 1.31 1.31 0 011.32 1.32zM111.35 366.18a1.32 1.32 0 11-1.32-1.32 1.31 1.31 0 011.32 1.32zM117.15 366.18a1.32 1.32 0 11-1.31-1.32 1.31 1.31 0 011.31 1.32zM123 366.18a1.32 1.32 0 01-2.63 0 1.32 1.32 0 112.63 0zM167.93 366.18a1.32 1.32 0 11-1.32-1.32 1.31 1.31 0 011.32 1.32zM173.84 366.18a1.32 1.32 0 11-1.31-1.32 1.31 1.31 0 011.31 1.32zM128.76 366.18a1.32 1.32 0 11-1.32-1.32 1.31 1.31 0 011.32 1.32zM157.26 366.18a1.32 1.32 0 11-1.32-1.32 1.31 1.31 0 011.32 1.32z"/><path d="M134.56 366.18a1.32 1.32 0 11-1.31-1.32 1.31 1.31 0 011.31 1.32zM140.36 366.18a1.32 1.32 0 01-2.63 0 1.32 1.32 0 112.63 0zM152.14 366.18a1.32 1.32 0 11-1.32-1.32 1.31 1.31 0 011.32 1.32zM178.66 366.18a1.32 1.32 0 11-1.32-1.32 1.31 1.31 0 011.32 1.32z" fill="#f5f5f5"/><path d="M146.17 366.18a1.32 1.32 0 11-1.32-1.32 1.31 1.31 0 011.32 1.32zM162.78 366.18a1.32 1.32 0 01-2.63 0 1.32 1.32 0 112.63 0z" fill="#ff725e"/><path d="M73.84 352.36h22.92v3.53H73.84zM73.84 358.43h22.92v3.53H73.84zM73.84 364.7h22.92v3.53H73.84z"/><path fill="#455a64" d="M68.67 382.06H185.1v28.89H68.67z"/><path d="M73.84 388.01h22.92v3.53H73.84zM73.84 394.07h22.92v3.53H73.84zM73.84 400.35h22.92v3.53H73.84zM105.12 389.85a1.32 1.32 0 11-1.31-1.32 1.31 1.31 0 011.31 1.32zM110.93 389.85a1.32 1.32 0 11-1.32-1.32 1.31 1.31 0 011.32 1.32zM116.73 389.85a1.32 1.32 0 11-1.32-1.32 1.31 1.31 0 011.32 1.32zM122.53 389.85a1.32 1.32 0 11-1.31-1.32 1.31 1.31 0 011.31 1.32zM167.5 389.85a1.32 1.32 0 11-1.31-1.32 1.31 1.31 0 011.31 1.32zM173.42 389.85a1.32 1.32 0 11-1.31-1.32 1.31 1.31 0 011.31 1.32zM128.34 389.85a1.32 1.32 0 11-1.32-1.32 1.31 1.31 0 011.32 1.32zM156.84 389.85a1.32 1.32 0 11-1.32-1.32 1.31 1.31 0 011.32 1.32z"/><path d="M134.14 389.85a1.32 1.32 0 11-1.32-1.32 1.31 1.31 0 011.32 1.32zM139.94 389.85a1.32 1.32 0 11-1.31-1.32 1.31 1.31 0 011.31 1.32zM151.72 389.85a1.32 1.32 0 11-1.32-1.32 1.31 1.31 0 011.32 1.32zM178.24 389.85a1.32 1.32 0 11-1.32-1.32 1.31 1.31 0 011.32 1.32z" fill="#f5f5f5"/><path d="M145.75 389.85a1.32 1.32 0 11-1.32-1.32 1.31 1.31 0 011.32 1.32zM162.36 389.85a1.32 1.32 0 11-1.31-1.32 1.31 1.31 0 011.31 1.32z" fill="#ff725e"/><path d="M175.61 396.19a1.32 1.32 0 111.31 1.31 1.31 1.31 0 01-1.31-1.31zM169.8 396.19a1.32 1.32 0 111.32 1.31 1.32 1.32 0 01-1.32-1.31zM164 396.19a1.32 1.32 0 111.31 1.31 1.32 1.32 0 01-1.31-1.31zM158.2 396.19a1.32 1.32 0 111.31 1.31 1.32 1.32 0 01-1.31-1.31zM113.23 396.19a1.32 1.32 0 111.31 1.31 1.31 1.31 0 01-1.31-1.31zM107.31 396.19a1.32 1.32 0 111.31 1.31 1.32 1.32 0 01-1.31-1.31zM152.39 396.19a1.32 1.32 0 111.32 1.31 1.32 1.32 0 01-1.32-1.31zM123.89 396.19a1.32 1.32 0 111.32 1.31 1.32 1.32 0 01-1.32-1.31z"/><path d="M146.59 396.19a1.32 1.32 0 111.31 1.31 1.32 1.32 0 01-1.31-1.31zM140.79 396.19a1.32 1.32 0 111.31 1.31 1.32 1.32 0 01-1.31-1.31zM129 396.19a1.32 1.32 0 111.32 1.31 1.32 1.32 0 01-1.32-1.31zM102.49 396.19a1.32 1.32 0 111.32 1.31 1.32 1.32 0 01-1.32-1.31z" fill="#f5f5f5"/><path d="M135 396.19a1.32 1.32 0 111.32 1.31 1.32 1.32 0 01-1.32-1.31zM118.37 396.19a1.32 1.32 0 111.31 1.31 1.32 1.32 0 01-1.31-1.31z" fill="#ff725e"/><path d="M105.12 401.83a1.32 1.32 0 11-1.31-1.32 1.31 1.31 0 011.31 1.32zM110.93 401.83a1.32 1.32 0 11-1.32-1.32 1.32 1.32 0 011.32 1.32zM116.73 401.83a1.32 1.32 0 11-1.32-1.32 1.32 1.32 0 011.32 1.32zM122.53 401.83a1.32 1.32 0 11-1.31-1.32 1.31 1.31 0 011.31 1.32zM167.5 401.83a1.32 1.32 0 11-1.31-1.32 1.31 1.31 0 011.31 1.32zM173.42 401.83a1.32 1.32 0 11-1.31-1.32 1.31 1.31 0 011.31 1.32zM128.34 401.83a1.32 1.32 0 11-1.32-1.32 1.32 1.32 0 011.32 1.32zM156.84 401.83a1.32 1.32 0 11-1.32-1.32 1.32 1.32 0 011.32 1.32z"/><path d="M134.14 401.83a1.32 1.32 0 11-1.32-1.32 1.32 1.32 0 011.32 1.32zM139.94 401.83a1.32 1.32 0 11-1.31-1.32 1.31 1.31 0 011.31 1.32zM151.72 401.83a1.32 1.32 0 11-1.32-1.32 1.32 1.32 0 011.32 1.32zM178.24 401.83a1.32 1.32 0 11-1.32-1.32 1.32 1.32 0 011.32 1.32z" fill="#f5f5f5"/><path d="M145.75 401.83a1.32 1.32 0 11-1.32-1.32 1.32 1.32 0 011.32 1.32zM162.36 401.83a1.32 1.32 0 11-1.31-1.32 1.31 1.31 0 011.31 1.32z" fill="#ff725e"/><path d="M202.61 339.6l-17.51.05v-28.89l17.51-.04v28.88zM202.61 375.02l-17.51.05v-28.89l17.51-.04v28.88zM202.61 410.89l-17.51.05v-28.88l17.51-.05v28.88zM74.69 293.67h22.92v3.53H74.69zM202.61 304.48l-17.51.05v-29.11l17.51-.05v29.11z"/><path fill="#455a64" d="M69.52 275.37h116.43v28.89H69.52z"/><path d="M74.69 281.32h22.92v3.53H74.69zM74.69 287.39h22.92v3.53H74.69zM106.68 283.45a1.32 1.32 0 11-1.32-1.31 1.32 1.32 0 011.32 1.31zM112.48 283.45a1.32 1.32 0 11-1.32-1.31 1.32 1.32 0 011.32 1.31zM118.28 283.45a1.32 1.32 0 11-1.31-1.31 1.32 1.32 0 011.31 1.31zM124.09 283.45a1.32 1.32 0 11-1.32-1.31 1.32 1.32 0 011.32 1.31zM169.06 283.45a1.32 1.32 0 11-1.32-1.31 1.32 1.32 0 011.32 1.31zM175 283.45a1.32 1.32 0 11-1.31-1.31 1.31 1.31 0 011.31 1.31zM129.89 283.45a1.32 1.32 0 11-1.32-1.31 1.32 1.32 0 011.32 1.31zM158.39 283.45a1.32 1.32 0 11-1.32-1.31 1.32 1.32 0 011.32 1.31z"/><path d="M135.69 283.45a1.32 1.32 0 11-1.31-1.31 1.32 1.32 0 011.31 1.31zM141.5 283.45a1.32 1.32 0 11-1.32-1.31 1.32 1.32 0 011.32 1.31zM153.27 283.45a1.32 1.32 0 11-1.31-1.31 1.32 1.32 0 011.31 1.31zM179.79 283.45a1.32 1.32 0 11-1.32-1.31 1.32 1.32 0 011.32 1.31z" fill="#f5f5f5"/><path d="M147.3 283.45a1.32 1.32 0 11-1.32-1.31 1.32 1.32 0 011.32 1.31zM163.92 283.45a1.32 1.32 0 11-1.32-1.31 1.32 1.32 0 011.32 1.31z" fill="#ff725e"/><path d="M177.16 289.79a1.32 1.32 0 111.31 1.32 1.31 1.31 0 01-1.31-1.32z"/><circle r="1.32" cy="289.79" cx="172.67"/><path d="M165.55 289.79a1.32 1.32 0 111.32 1.32 1.32 1.32 0 01-1.32-1.32zM159.75 289.79a1.32 1.32 0 111.31 1.32 1.31 1.31 0 01-1.31-1.32zM114.78 289.79a1.32 1.32 0 111.31 1.32 1.31 1.31 0 01-1.31-1.32zM108.86 289.79a1.32 1.32 0 111.32 1.32 1.32 1.32 0 01-1.32-1.32zM154 289.79a1.32 1.32 0 111.31 1.32 1.31 1.31 0 01-1.31-1.32z"/><circle r="1.32" cy="289.79" cx="126.76"/><circle r="1.32" cy="289.79" cx="149.46" fill="#f5f5f5"/><circle r="1.32" cy="289.79" cx="143.65" fill="#f5f5f5"/><path d="M130.57 289.79a1.32 1.32 0 111.31 1.32 1.31 1.31 0 01-1.31-1.32z" fill="#f5f5f5"/><circle r="1.32" cy="289.79" cx="105.36" fill="#f5f5f5"/><path d="M136.54 289.79a1.32 1.32 0 111.31 1.32 1.31 1.31 0 01-1.31-1.32zM119.92 289.79a1.32 1.32 0 111.32 1.32 1.32 1.32 0 01-1.32-1.32z" fill="#ff725e"/><path d="M106.68 295.43a1.32 1.32 0 11-1.32-1.32 1.31 1.31 0 011.32 1.32zM112.48 295.43a1.32 1.32 0 11-1.32-1.32 1.31 1.31 0 011.32 1.32zM118.28 295.43a1.32 1.32 0 11-1.31-1.32 1.31 1.31 0 011.31 1.32zM124.09 295.43a1.32 1.32 0 11-1.32-1.32 1.31 1.31 0 011.32 1.32zM169.06 295.43a1.32 1.32 0 11-1.32-1.32 1.31 1.31 0 011.32 1.32zM175 295.43a1.32 1.32 0 01-2.63 0 1.32 1.32 0 112.63 0zM129.89 295.43a1.32 1.32 0 11-1.32-1.32 1.31 1.31 0 011.32 1.32zM158.39 295.43a1.32 1.32 0 11-1.32-1.32 1.31 1.31 0 011.32 1.32z"/><path d="M135.69 295.43a1.32 1.32 0 11-1.31-1.32 1.31 1.31 0 011.31 1.32zM141.5 295.43a1.32 1.32 0 11-1.32-1.32 1.31 1.31 0 011.32 1.32zM153.27 295.43a1.32 1.32 0 11-1.31-1.32 1.31 1.31 0 011.31 1.32zM179.79 295.43a1.32 1.32 0 11-1.32-1.32 1.31 1.31 0 011.32 1.32z" fill="#f5f5f5"/><path d="M147.3 295.43a1.32 1.32 0 11-1.32-1.32 1.31 1.31 0 011.32 1.32zM163.92 295.43a1.32 1.32 0 11-1.32-1.32 1.31 1.31 0 011.32 1.32z" fill="#ff725e"/><path d="M201.53 447.04l-17.51.04V418.2l17.51-.05v28.89z"/><path fill="#455a64" d="M68.44 418.2h116.43v28.89H68.44z"/><path d="M73.61 424.15h22.92v3.53H73.61zM73.61 430.22h22.92v3.53H73.61zM105.6 426.28a1.32 1.32 0 11-1.32-1.32 1.32 1.32 0 011.32 1.32zM111.4 426.28a1.32 1.32 0 11-1.31-1.32 1.31 1.31 0 011.31 1.32zM117.2 426.28a1.32 1.32 0 11-1.31-1.32 1.31 1.31 0 011.31 1.32zM123 426.28a1.32 1.32 0 11-1.32-1.32 1.32 1.32 0 011.32 1.32zM168 426.28a1.32 1.32 0 11-1.32-1.32 1.32 1.32 0 011.32 1.32zM173.9 426.28a1.32 1.32 0 11-1.32-1.32 1.32 1.32 0 011.32 1.32zM128.81 426.28a1.32 1.32 0 11-1.31-1.28 1.31 1.31 0 011.31 1.28zM157.31 426.28A1.32 1.32 0 11156 425a1.31 1.31 0 011.31 1.28z"/><path d="M134.61 426.28a1.32 1.32 0 11-1.31-1.28 1.31 1.31 0 011.31 1.28zM140.42 426.28a1.32 1.32 0 11-1.32-1.28 1.32 1.32 0 011.32 1.28zM152.19 426.28a1.32 1.32 0 11-1.31-1.32 1.31 1.31 0 011.31 1.32zM178.71 426.28a1.32 1.32 0 11-1.31-1.28 1.31 1.31 0 011.31 1.28z" fill="#f5f5f5"/><path d="M146.22 426.28a1.32 1.32 0 11-1.31-1.32 1.31 1.31 0 011.31 1.32zM162.84 426.28a1.32 1.32 0 11-1.32-1.32 1.32 1.32 0 011.32 1.32z" fill="#ff725e"/><path d="M176.08 432.62a1.32 1.32 0 111.32 1.31 1.32 1.32 0 01-1.32-1.31zM170.28 432.62a1.32 1.32 0 111.31 1.31 1.32 1.32 0 01-1.31-1.31zM164.47 432.62a1.32 1.32 0 111.32 1.31 1.32 1.32 0 01-1.32-1.31zM158.67 432.62a1.32 1.32 0 111.32 1.31 1.32 1.32 0 01-1.32-1.31zM113.7 432.62a1.32 1.32 0 111.32 1.31 1.32 1.32 0 01-1.32-1.31zM107.78 432.62a1.32 1.32 0 111.32 1.31 1.32 1.32 0 01-1.32-1.31zM152.87 432.62a1.32 1.32 0 111.31 1.31 1.32 1.32 0 01-1.31-1.31zM124.37 432.62a1.32 1.32 0 111.31 1.31 1.32 1.32 0 01-1.31-1.31z"/><path d="M147.06 432.62a1.32 1.32 0 111.32 1.31 1.32 1.32 0 01-1.32-1.31zM141.26 432.62a1.32 1.32 0 111.32 1.31 1.32 1.32 0 01-1.32-1.31zM129.49 432.62a1.32 1.32 0 111.31 1.31 1.32 1.32 0 01-1.31-1.31zM103 432.62a1.32 1.32 0 111.31 1.31 1.32 1.32 0 01-1.31-1.31z" fill="#f5f5f5"/><path d="M135.46 432.62a1.32 1.32 0 111.31 1.31 1.32 1.32 0 01-1.31-1.31zM118.84 432.62a1.32 1.32 0 111.32 1.31 1.32 1.32 0 01-1.32-1.31z" fill="#ff725e"/><path d="M105.6 438.25a1.32 1.32 0 11-1.32-1.31 1.32 1.32 0 011.32 1.31zM111.4 438.25a1.32 1.32 0 11-1.31-1.31 1.32 1.32 0 011.31 1.31z"/><circle r="1.32" cy="438.25" cx="115.89"/><path d="M123 438.25a1.32 1.32 0 11-1.32-1.31 1.32 1.32 0 011.32 1.31z"/><circle r="1.32" cy="438.25" cx="166.66"/><circle r="1.32" cy="438.25" cx="172.58"/><path d="M128.81 438.25a1.32 1.32 0 11-1.31-1.31 1.32 1.32 0 011.31 1.31zM157.31 438.25a1.32 1.32 0 11-1.31-1.31 1.32 1.32 0 011.31 1.31z"/><path d="M134.61 438.25a1.32 1.32 0 11-1.31-1.31 1.31 1.31 0 011.31 1.31z" fill="#f5f5f5"/><circle r="1.32" cy="438.25" cx="139.1" fill="#f5f5f5"/><path d="M152.19 438.25a1.32 1.32 0 11-1.31-1.31 1.32 1.32 0 011.31 1.31zM178.71 438.25a1.32 1.32 0 11-1.31-1.31 1.32 1.32 0 011.31 1.31z" fill="#f5f5f5"/><path d="M146.22 438.25a1.32 1.32 0 11-1.31-1.31 1.32 1.32 0 011.31 1.31z" fill="#ff725e"/><circle r="1.32" cy="438.25" cx="161.52" fill="#ff725e"/><path d="M219.87 230.41h-1v-1.2a15.36 15.36 0 0115.34-15.34h5.46v1h-5.46a14.36 14.36 0 00-14.34 14.34zM219.87 287.46h-1v-1.21a15.36 15.36 0 0115.34-15.34h5.46v1h-5.46a14.36 14.36 0 00-14.34 14.34zM219.87 336.93h-1v-1.21a15.35 15.35 0 0115.34-15.33h5.46v1h-5.46a14.36 14.36 0 00-14.34 14.33zM219.87 392.3h-1v-1.21a15.36 15.36 0 0115.34-15.34h5.46v1h-5.46a14.37 14.37 0 00-14.34 14.34z"/></g><g><path d="M55.28 358.55l.36 19.06s-19.13 5.17-19.41 8.7l36.86 2.21.65-29.71z" fill="#ff725e"/><path d="M67.1 376.2a1.51 1.51 0 011 1.74 1.46 1.46 0 01-1.72 1 1.6 1.6 0 01-1.06-1.85 1.5 1.5 0 011.9-.87M73.09 388.52l.07-3-34.94-1.42s-2.06 1.1-2.06 2.25z" fill="#ebebeb"/><path d="M55.05 377.41c0 .18.9.28 1.78.87s1.34 1.36 1.51 1.29-.09-1.11-1.16-1.81-2.18-.52-2.13-.35zM51.14 379c0 .17.74.49 1.34 1.27s.76 1.58.94 1.58.31-1-.45-2-1.82-1.07-1.83-.85zM48.87 383.55c.16 0 .42-.85 0-1.85s-1.29-1.4-1.37-1.26.44.69.79 1.51.4 1.58.58 1.6zM55.45 373.06c.07.16.9-.07 1.92 0s1.81.43 1.91.27-.66-.81-1.86-.89-2.06.47-1.97.62zM55.44 369.21a3.41 3.41 0 001.86 0 7.87 7.87 0 001.94-.56 8.26 8.26 0 001.07-.54 2.3 2.3 0 00.57-.43.79.79 0 00.1-1 1 1 0 00-.78-.43 2.38 2.38 0 00-.7.09 6.84 6.84 0 00-1.16.37 6.38 6.38 0 00-1.72 1.1c-.87.78-1.18 1.45-1.12 1.48s.51-.5 1.39-1.14a7.63 7.63 0 011.67-.9 6.69 6.69 0 011.07-.31c.39-.1.73-.09.82.08s0 .1 0 .21a2.29 2.29 0 01-.42.31 8.75 8.75 0 01-1 .54 10.41 10.41 0 01-1.81.66 13.4 13.4 0 00-1.78.47z"/><path d="M55.67 369.48a2.91 2.91 0 00.52-1.78 6.11 6.11 0 00-.22-2 5.54 5.54 0 00-.45-1.13 1.52 1.52 0 00-1.16-.95.88.88 0 00-.79.5 2.86 2.86 0 00-.2.68 4.27 4.27 0 00.74 3.17c.71 1 1.46 1.2 1.47 1.14s-.56-.45-1.1-1.38a4.35 4.35 0 01-.55-1.75 3.88 3.88 0 010-1.07c.06-.39.21-.71.36-.66s.49.3.64.61a6.73 6.73 0 01.44 1 6.9 6.9 0 01.33 1.86c.08 1.05-.12 1.73-.03 1.76z"/><path d="M167 242.45L76.19 259a26.68 26.68 0 00-21.38 19.87q-.16.69-.3 1.41c-3 15.37-3.16 85.63-3.16 85.63l24.65-.34 4.45-79.34 70-9.57a20.64 20.64 0 0012.55-6.53c5.92-6.6 7.76-15.53 4-27.68z"/><path d="M65.57 321.3l1.67 19s-18.73 6.48-18.77 10l36.93-.3-1.4-29.71z" fill="#ff725e"/><path d="M78.58 338.09a1.52 1.52 0 011.13 1.67 1.44 1.44 0 01-1.64 1.13 1.59 1.59 0 01-1.19-1.77 1.5 1.5 0 011.84-1M85.4 350l-.14-3-34.95 1s-1.86 1.49-1.84 2.3z" fill="#ebebeb"/><path d="M66.64 340.13c0 .18.92.21 1.83.75s1.43 1.26 1.6 1.18-.17-1.1-1.29-1.73-2.19-.33-2.14-.2zM62.85 341.93c0 .18.76.45 1.41 1.18s.87 1.52 1 1.51.24-1.05-.58-1.94-1.84-.92-1.83-.75zM60.89 346.68c.16 0 .37-.88-.15-1.84s-1.37-1.32-1.44-1.16.48.65.89 1.45.52 1.54.7 1.55zM66.73 335.76c.09.16.9-.13 1.92-.11s1.84.29 1.92.13-.71-.76-1.91-.76-2.02.6-1.93.74zM66.47 331.93a3.63 3.63 0 001.85-.11 8.45 8.45 0 001.9-.7 9.26 9.26 0 001-.61 2.23 2.23 0 00.54-.47.78.78 0 000-1 1 1 0 00-.81-.37 2.29 2.29 0 00-.69.13 7.19 7.19 0 00-1.13.45 6.78 6.78 0 00-1.65 1.21c-.81.84-1.07 1.53-1 1.56s.48-.53 1.31-1.23a7.32 7.32 0 011.61-1 6.38 6.38 0 011-.38c.39-.12.72-.14.83 0s0 .09 0 .2a1.57 1.57 0 01-.4.34 8.32 8.32 0 01-.94.61 9.54 9.54 0 01-1.76.78 11.42 11.42 0 00-1.66.59z"/><path d="M66.71 332.17c.07 0 .39-.64.4-1.81a6.07 6.07 0 00-.36-2 5.83 5.83 0 00-.53-1.1 1.51 1.51 0 00-1.23-.87.85.85 0 00-.74.55 2.94 2.94 0 00-.16.69 4.28 4.28 0 00.07 1.25 4.19 4.19 0 00.89 1.87c.77.92 1.53 1.09 1.54 1s-.59-.41-1.19-1.3a4.23 4.23 0 01-.67-1.71 3.47 3.47 0 010-1.07c0-.39.16-.72.31-.68s.51.26.68.57a5.39 5.39 0 01.51 1 6.75 6.75 0 01.46 1.82c.08 1.08-.07 1.77.02 1.79z"/><path d="M165.47 242.87l-84.53-18.64a17.65 17.65 0 00-8.25-.79 17.63 17.63 0 00-15 19.71L58.88 327l29.73-1.94-1.14-68.16z"/><path d="M57.86 255.71a1.65 1.65 0 010 .36v1c0 .94 0 2.29.1 4 .07 3.53.17 8.62.29 15 .2 12.77.49 30.58.82 50.9l-.27-.25 17.54-.92 12.66-.61-.25.26c-.53-21.56-1-40.6-1.35-54.28-.14-6.81-.26-12.29-.34-16.09 0-1.87-.06-3.32-.07-4.34v-1.12a1.59 1.59 0 010-.38v.38c0 .27 0 .65.05 1.12 0 1 .09 2.47.16 4.34.12 3.79.29 9.27.51 16.08.38 13.68.91 32.72 1.52 54.28v.25h-.26l-12.62.66-17.54.91h-.27V327c-.26-20.32-.48-38.14-.64-50.9-.06-6.36-.11-11.45-.14-15v-4-1a2.63 2.63 0 01.1-.39zM87.3 256c0-.14 7.07-1.79 15.84-3.68s15.92-3.32 16-3.18-7.06 1.79-15.84 3.69-15.96 3.32-16 3.17z" fill="#455a64"/><path d="M91.18 247.93a2.75 2.75 0 01.27 1.41 7.74 7.74 0 01-2.84 6.1 2.86 2.86 0 01-1.24.7 13 13 0 002.89-3.64 12.63 12.63 0 00.92-4.57z" fill="#455a64"/><path d="M149.87 154.55L130.69 153c-.12-2.24 0-10.9 0-10.9s-8-1.24-8.07-9.21 1.28-26.29 1.28-26.29a27.7 27.7 0 0127.85 3.5l1.25.9z" fill="#ffbe9d"/><path d="M130.72 142a18.54 18.54 0 0010.4-3s-2.46 5.74-10.42 5z" fill="#eb996e"/><path d="M152 119.29c.14-.06 5.48-1.62 5.31 3.83s-5.61 4.15-5.62 4 .31-7.83.31-7.83z" fill="#ffbe9d"/><path d="M153.41 125.11s.1.06.26.14a.92.92 0 00.71 0 2.35 2.35 0 001.15-2.07 3.19 3.19 0 00-.22-1.37 1.11 1.11 0 00-.69-.75.48.48 0 00-.57.24c-.08.15-.05.26-.08.27s-.11-.1-.06-.32a.57.57 0 01.22-.34.73.73 0 01.53-.12 1.33 1.33 0 011 .88 3.3 3.3 0 01.28 1.53 2.47 2.47 0 01-1.46 2.31 1 1 0 01-.87-.17c-.19-.1-.21-.23-.2-.23z" fill="#eb996e"/><path d="M127.27 119a1.15 1.15 0 001.1 1.15 1.1 1.1 0 001.18-1 1.15 1.15 0 00-1.1-1.15 1.1 1.1 0 00-1.18 1zM125.45 117.84c.14.15 1-.49 2.23-.49s2.13.62 2.26.47-.08-.34-.47-.62a3.11 3.11 0 00-1.81-.56 3 3 0 00-1.77.57c-.38.29-.51.56-.44.63zM139.48 119.41a1.13 1.13 0 001.1 1.14 1.08 1.08 0 001.17-1 1.14 1.14 0 00-1.1-1.15 1.08 1.08 0 00-1.17 1.01zM137.5 118.07c.14.14 1-.49 2.23-.49s2.12.62 2.26.47-.08-.34-.47-.62a3.14 3.14 0 00-1.81-.56 3 3 0 00-1.78.57c-.37.29-.5.56-.43.63zM133.05 127.16a7.5 7.5 0 00-2-.36c-.31 0-.61-.1-.66-.31a1.63 1.63 0 01.21-.93l.92-2.38a40.28 40.28 0 002.08-6.24A40.36 40.36 0 00131 123l-.89 2.39a1.81 1.81 0 00-.16 1.23.8.8 0 00.51.46 2.21 2.21 0 00.53.07 8.65 8.65 0 002.06.01zM136.66 128c-.2 0-.2 1.32-1.34 2.27s-2.56.79-2.57 1 .32.26.92.27a3.3 3.3 0 002.14-.74 2.93 2.93 0 001-1.9c.09-.58-.06-.9-.15-.9zM137.18 113.26c.12.34 1.35.18 2.79.35s2.6.57 2.79.27c.08-.15-.12-.46-.59-.78a4.68 4.68 0 00-2.07-.73 4.78 4.78 0 00-2.18.26c-.52.21-.79.47-.74.63zM125.9 114.29c.22.28 1.06 0 2.08 0s1.87.18 2.07-.11c.09-.14-.05-.42-.42-.68a3 3 0 00-3.35.1c-.35.27-.47.55-.38.69z"/><path d="M120.06 101.58a2.94 2.94 0 011.08-2.58 2.1 2.1 0 012.71.2 2.43 2.43 0 012.1-3c1.3-.08 2.41.9 3.66 1.24a5.88 5.88 0 003.73-.43c1.18-.47 2.28-1.13 3.47-1.56a10.2 10.2 0 0113.05 6 4.53 4.53 0 014.8 1.81 7.44 7.44 0 011.14 5.24 17 17 0 01-.91 3.57v.31c-.08 4.39-.57 9.54-2.45 9.56-3.26 0-2.48-6.09-2.48-6.09-4-1.55-2.51-7.54-3.51-8.45s-3.1-3-11.47 1.26a16.24 16.24 0 01-9.95 1.07h-.27a7.25 7.25 0 01-2.15-.91 4.22 4.22 0 01-1.77-2 2.31 2.31 0 01.46-2.49 5.09 5.09 0 01-1.24-2.75z"/><path d="M187.42 211.15a10.91 10.91 0 01-5.56 12.49h-.08c-3.35 1.67-8 1.28-11.22-.17l-2.75-1.24.93 23c-13.56 8.83-51 2.16-58.3-13.47 0-4-1.66-36.37-1.66-36.37l-.69-35.94c6.37-6.27 9.78-8.15 18.66-9.2l3.43-.38a34 34 0 0020.45 0c3.15.13 5.77 1.1 8.46 1.62 8.46 1.62 14.55 7.78 16.25 13.48 1.39 4.68 10.33 39.42 10.33 39.42z" fill="#ff725e"/><path d="M117.23 152.61s-8.45 2.88-12 11c-2.31 5.3-5.72 30.83-5.72 30.83l-4.29 8.28a13.93 13.93 0 00-1.56 6.42v1.27a13.93 13.93 0 003.13 8.81 14 14 0 009.59 5.09c4.28.38 9.47.55 10.57-.71 2-2.23 4.89-8.23 4.89-8.23l-12.5-6.64 5.38-10z" fill="#ff725e"/><path d="M163.16 202.09c.15 0 .28-5.35.28-11.94s-.13-11.94-.28-11.94-.27 5.34-.27 11.94.11 11.94.27 11.94zM114.37 193.05a42.55 42.55 0 00.28-6.83 42.55 42.55 0 00-.28-6.83 43.32 43.32 0 00-.27 6.83 43.32 43.32 0 00.27 6.83z"/><path d="M168.68 243.6c1-.16 1.55 1.33 1 2.18a4.94 4.94 0 01-2.53 1.56c-3.2 1.27-5.82 3.64-8.85 5.29-6.44 3.5-14.2 3.47-21.48 2.57a40.48 40.48 0 01-12.05-3 18.38 18.38 0 01-9-8.25c-1-2.05-1.53-4.35-2.83-6.23-.85-1.24-2-2.24-2.92-3.44a5.07 5.07 0 01-1.15-4.21c.4-1.45 2.22-2.51 3.5-1.71" fill="#ff725e"/><path d="M142.71 251.52a23.09 23.09 0 01-13.18-6.31 44.21 44.21 0 01-8.72-12c-.32-.6-1-1.31-1.55-.88a1.15 1.15 0 00-.32.57 11.83 11.83 0 002.39 10.48 19.26 19.26 0 009.26 6 54.37 54.37 0 0011 2" opacity=".3"/><path d="M172.11 159.7s0 .06-.05.16a3.51 3.51 0 01-.24.46 6 6 0 01-1.29 1.51 8 8 0 01-2.77 1.48 10.29 10.29 0 01-4.15.3 21.33 21.33 0 01-4.87-1.28c-1.69-.63-3.45-1.41-5.35-2a22 22 0 00-12.8-.19 33.37 33.37 0 00-6.19 2.69 19.18 19.18 0 01-6 2.15 12.44 12.44 0 01-5.74-.73 37 37 0 01-4.57-2.08 38.37 38.37 0 00-6.55-3c-1.63-.49-2.58-.55-2.57-.61a3.48 3.48 0 01.68 0 12.12 12.12 0 012 .37 36.09 36.09 0 016.66 2.86 37.19 37.19 0 004.54 2 12.09 12.09 0 005.54.67 18.79 18.79 0 005.85-2.14 33.54 33.54 0 016.27-2.73 22.29 22.29 0 0113.1.24c1.93.64 3.68 1.44 5.35 2.08a21.07 21.07 0 004.76 1.31 10.16 10.16 0 004-.21 7.91 7.91 0 002.73-1.36 7.41 7.41 0 001.66-1.95zM162.64 184.09c0 .06-.69.1-1.93.37a45.66 45.66 0 00-5.18 1.45 40.48 40.48 0 01-7.77 2 14.09 14.09 0 01-4.77-.24 18.91 18.91 0 01-4.73-1.95c-3-1.7-5.78-3.61-8.64-4.45a18.62 18.62 0 00-7.82-.41 41.23 41.23 0 00-5.24 1.15l-1.41.39a2.45 2.45 0 01-.5.11s.15-.09.46-.21.78-.29 1.39-.49a34.83 34.83 0 015.24-1.31 18.46 18.46 0 018 .31c3 .85 5.75 2.78 8.75 4.46a19.06 19.06 0 004.6 1.9 13.59 13.59 0 004.6.26 41.31 41.31 0 007.71-1.87 40 40 0 015.25-1.29 10.52 10.52 0 011.46-.16 1.51 1.51 0 01.53-.02zM183.29 195.08a10.1 10.1 0 00-3 .11 13.58 13.58 0 00-3.1 1.15c-1.13.55-2.33 1.26-3.69 1.87a10.15 10.15 0 01-4.07 1 9.43 9.43 0 01-3.39-.56 8.38 8.38 0 01-2-1.07c-.44-.32-.65-.54-.63-.56a20.79 20.79 0 002.78 1.28 9.42 9.42 0 003.25.43 10.05 10.05 0 003.88-1c1.32-.59 2.53-1.28 3.69-1.83a13 13 0 013.24-1.07 6.55 6.55 0 012.31 0 1.94 1.94 0 01.73.25zM114.22 186.92a7.08 7.08 0 00-2-.36 8.31 8.31 0 00-2.2.35 27.88 27.88 0 01-2.74.7 6.54 6.54 0 01-5-1.18 3.8 3.8 0 01-1.41-1.61c.08-.06.55.62 1.62 1.3a6.65 6.65 0 004.7 1c1-.16 1.85-.46 2.7-.65a8 8 0 012.33-.26 2.79 2.79 0 012 .71zM167.4 227.07c0 .06-.84-.17-2.38-.24a18.7 18.7 0 00-6.42 1 65.31 65.31 0 00-8.89 3.88 51.24 51.24 0 01-5.32 2.27 21.22 21.22 0 01-6.09 1.27 14.08 14.08 0 01-6.15-1.09 28.28 28.28 0 01-5-2.89c-1.52-1-2.93-2.06-4.3-2.92a19.9 19.9 0 00-4-2 11.4 11.4 0 00-6.37-.57 13.76 13.76 0 00-2.23.87 6.17 6.17 0 012.18-1.06 11.25 11.25 0 016.54.41 20 20 0 014.14 1.95c1.4.86 2.82 1.87 4.34 2.9a29.21 29.21 0 004.95 2.81 13.64 13.64 0 005.92 1c4.19-.22 7.94-1.91 11.23-3.45a60.77 60.77 0 019-3.8 22 22 0 013.68-.78 15.57 15.57 0 012.85-.06 9.79 9.79 0 011.77.27 2.21 2.21 0 01.55.23zM119.09 238a9.36 9.36 0 00-3.27-1.14 9.18 9.18 0 00-3.41.63c0-.05.25-.36.86-.67a5 5 0 012.59-.47 5.1 5.1 0 012.48.86c.56.37.79.72.75.79zM162 250.43c-.06 0-.11-.48-.46-1.27a7.15 7.15 0 00-2.32-2.76 10 10 0 00-5-1.81 16.28 16.28 0 00-6.51 1.13c-2.24.81-4.29 1.82-6.21 2.63a27 27 0 01-5.29 1.71 13.28 13.28 0 01-3.75.22 9.81 9.81 0 01-1-.17c-.22-.05-.34-.09-.34-.11a16.46 16.46 0 005-.3 29.45 29.45 0 005.18-1.79c1.89-.82 3.95-1.85 6.22-2.68a16.13 16.13 0 016.73-1.12 10.07 10.07 0 015.21 2 6.82 6.82 0 012.28 3 4.55 4.55 0 01.26 1c0 .2.05.32 0 .32z" fill="#e0e0e0"/><path d="M119 239.24c.05 0 .24.71.87 1.89a14.57 14.57 0 003.57 4.3c3.62 3.15 10.22 5.12 17.46 5.63A30.09 30.09 0 00151 250a50.68 50.68 0 007.83-3c2.17-1 3.89-1.93 5.08-2.54l1.38-.7a2.49 2.49 0 01.5-.22s-.14.12-.45.31l-1.33.78c-1.17.67-2.86 1.63-5 2.7a47.34 47.34 0 01-7.86 3.14 30 30 0 01-10.3 1.16 43.61 43.61 0 01-10.2-1.88 21.1 21.1 0 01-7.47-4 13.88 13.88 0 01-3.51-4.49 9.05 9.05 0 01-.57-1.45 1.85 1.85 0 01-.1-.57z"/><path d="M167.82 222.57c-2.27.35-4.68-.86-6.79-1.79s-4.66-1.59-6.61-.37a22.39 22.39 0 00-2.46 2.32c-2.31 2-5.69 1.94-8.71 1.59-7.14-.82-14.09-2.73-21-4.64-.68-.19-3.5-1.25-3.5-1.25l3.1-.7 2.84-.89 2.17-.47 21.35 3.27s1.46-1.54 1.46-1.58l-4.84-5.87c7 3.11 22.56 10.13 23 10.08" opacity=".3"/><path d="M121.49 195.9l.65-.49a15 15 0 0111.77-2.72 20.65 20.65 0 019.17 4.3l5.12 4.22-5.45 9.79-3.75-5.21s-3.46 4.69-4.07 4.2a8 8 0 01-1.36-2l2.47-3.46-5.93 1.24-8.66-4 3.71-4.69-3.71 1.23z" fill="#ffbe9d"/><path d="M168.47 222.57a2.48 2.48 0 00-.48-.27l-1.43-.69-5.37-2.51-18.33-8.37.13.38c1.13-2 2.3-4.13 3.51-6.28l2.17-3.9-.26.13 21.91 2.16 6.51.58 1.76.13a3 3 0 00.62 0 3.11 3.11 0 00-.61-.11l-1.75-.23-6.49-.75-21.89-2.33h-.18l-.09.15c-.7 1.25-1.44 2.57-2.18 3.91l-3.5 6.28-.14.25.26.12 18.41 8.19 5.43 2.37 1.47.61a2.27 2.27 0 00.52.18zM111.69 210.07a3.14 3.14 0 00-.91-.14 8.74 8.74 0 00-2.53.15 3 3 0 00-1.58.9 4.21 4.21 0 00-.83 1.9 4.5 4.5 0 00.21 2.28 4.27 4.27 0 001.51 1.94 11.3 11.3 0 004.33 1.55 20.35 20.35 0 003.71.36 6.7 6.7 0 003.37-.59 17.38 17.38 0 01-3.36.2 22.35 22.35 0 01-3.62-.47 11.41 11.41 0 01-4.11-1.49 3.89 3.89 0 01-.86-5.39 2.74 2.74 0 011.34-.82 10.32 10.32 0 012.41-.31 3.48 3.48 0 00.92-.07zM106.73 224.53a6.06 6.06 0 002.14.26 13.86 13.86 0 005.17-.86 11.19 11.19 0 002.57-1.37 6.16 6.16 0 001.59-1.79 4.85 4.85 0 00.77-2c-.09 0-.37.75-1.1 1.83a6.14 6.14 0 01-1.56 1.59 11.9 11.9 0 01-2.47 1.27 16 16 0 01-5 1 13.43 13.43 0 00-2.11.07zM100.75 198.62a10.17 10.17 0 001.48 1.78c1 1 2.31 2.48 3.83 4s2.91 2.94 3.94 3.93a10 10 0 001.75 1.52 9.59 9.59 0 00-1.47-1.79c-1-1-2.31-2.49-3.83-4a52.39 52.39 0 00-5.7-5.44z"/><path d="M130.63 195l19.03 23.06-1.46 1.58-30.89-4.71L102 191.88l1.42-1.28 27.21 4.4z"/><path d="M110.44 201.09a2.93 2.93 0 012.74 1.87c.46 1.2 1.13 2.59 1.87 3 1.38.75 3.75 1.35 5 .74s6.24-5.1 7.11-4.6 1.62 1.62.75 2.62-5.49 4-4.62 5 10.61-3.4 12.11-3 2.37 1.31 1.49 1.91-7.48 3.1-7.86 4c0 0 10-2.62 10.36-2s1 1.62 0 2-9.61 2.62-10.36 3a17.89 17.89 0 01-3.85 1.13 41.6 41.6 0 00-4 1.27 8.85 8.85 0 01-6.21-.16l-1-.42a4 4 0 01-2.46-3.9l.21-3.41-1.09-2.81z" fill="#ffbe9d"/><path d="M102 192a2.25 2.25 0 00.57.14l1.66.3 6.08 1 9 1.38 5.34.81a10.22 10.22 0 015.17 2.09 34.82 34.82 0 013.76 4.33l3.38 4.21 5.75 7.12c1.61 2 2.93 3.58 3.91 4.76l1.08 1.28a3.43 3.43 0 00.41.43 2.85 2.85 0 00-.32-.5l-1-1.34-3.79-4.91-5.65-7.19-3.35-4.23a33.76 33.76 0 00-3.83-4.41 10.6 10.6 0 00-5.43-2.21l-5.35-.78-9.07-1.28-6.11-.81-1.67-.19a2.21 2.21 0 00-.54 0z" fill="#455a64"/><path d="M116.4 197a2.55 2.55 0 01.86.7.89.89 0 010 1 1 1 0 01-1.28 0 1.32 1.32 0 01-.49-.74.88.88 0 01.26-.83.69.69 0 01.84 0" fill="#fafafa"/><path d="M111.18 209.43c-3.46-3.22-6.3-6.49-9.76-9.7-.7-.66-1.47-1.64-1-2.48a1.44 1.44 0 011.41-.62 3.62 3.62 0 011.5.6c4.17 2.57 5.71 7.89 7.85 12.2" opacity=".3"/><path d="M166.51 221.24s0-.3.22-.77a6.57 6.57 0 011.3-1.71 9.1 9.1 0 002.91-6 19.15 19.15 0 00-.78-6.8 20.63 20.63 0 01-.71-2.81 13.58 13.58 0 011.06 2.7 17.16 17.16 0 011 7 9.87 9.87 0 01-1.14 3.75 9.38 9.38 0 01-2 2.45 8.63 8.63 0 00-1.39 1.55 7.49 7.49 0 01-.47.64zM155.52 202.13a4.87 4.87 0 01.21 2.1 10.19 10.19 0 01-1.53 4.88 10.3 10.3 0 01-3.7 3.53 4.93 4.93 0 01-2 .74c0-.08.72-.36 1.79-1.06a11 11 0 005.05-8.12c.17-1.26.09-2.06.18-2.07zM107 206.17s.12.24.12.71a4.17 4.17 0 01-.47 1.91 4.52 4.52 0 01-2.1 2 10.39 10.39 0 01-3.5.54 5.85 5.85 0 00-3 1.27 6.74 6.74 0 00-1.73 2.12 10.86 10.86 0 00-.76 2.45 1.67 1.67 0 010-.72 5.3 5.3 0 01.48-1.89 6.52 6.52 0 011.76-2.33 6 6 0 013.28-1.41 11.1 11.1 0 003.35-.47 4.4 4.4 0 002-1.78 6 6 0 00.57-2.4z" fill="#e0e0e0"/></g><g><path d="M454 89.73a15 15 0 019.37.12 7.76 7.76 0 014.28 2.65c1 1.41.88 3.65-.57 4.55a4.37 4.37 0 01-3 .34c-2.43-.36-5.07-1.15-7.22 0-1.22.69-2.15 2-3.53 2.21a3.16 3.16 0 01-3.25-2 5.41 5.41 0 01.15-4 6.09 6.09 0 013.77-3.87zM449.25 76.47c1.38 2.68 4.82 2.32 6.57 1s2.69-3.36 3.56-5.35c2-4.53 4-9.3 3.67-14.24a8.07 8.07 0 00-1.32-4.18 4.25 4.25 0 00-3.8-1.87c-1.74.22-3 1.73-4 3.19a34.84 34.84 0 00-5.41 14.34 12.09 12.09 0 00.7 7.08M444.07 79.34a9 9 0 002.49-8 16 16 0 00-3.91-7.69 26.26 26.26 0 00-8-6.31 9.42 9.42 0 00-3.82-1.19 4.14 4.14 0 00-3.54 1.54c-1.16 1.63-.56 3.86.15 5.72a66.8 66.8 0 004.56 9.45c1.41 2.44 3.08 4.88 5.55 6.23s5.2 1.6 6.83 0" fill="#ff725e"/><path d="M444.15 113.38a6.5 6.5 0 00.3-1.1c.19-.79.43-1.8.71-3a42.72 42.72 0 011.28-4.36 34.9 34.9 0 012.33-5 19.82 19.82 0 013.32-4.39 10 10 0 013.78-2.36 9.65 9.65 0 013-.51 5 5 0 001.13 0 5.3 5.3 0 00-1.12-.17 8.61 8.61 0 00-3.09.38 10.09 10.09 0 00-4 2.36 19 19 0 00-3.43 4.47 31.43 31.43 0 00-2.33 5.13 35.79 35.79 0 00-1.2 4.43c-.27 1.27-.45 2.31-.57 3a5.2 5.2 0 00-.11 1.12z"/><path d="M444.67 111.07a2.06 2.06 0 00.1-.51c.05-.39.12-.88.2-1.48.16-1.28.42-3.13.79-5.41.73-4.57 1.79-9.44 3.49-16.28 1.61-6.44 3.6-13.91 5.29-18.71.37-1.1.72-2.08 1-2.93s.59-1.61.84-2.2l.54-1.39a2.42 2.42 0 00.16-.5 1.81 1.81 0 00-.25.46l-.62 1.36c-.27.58-.57 1.32-.91 2.17s-.73 1.83-1.12 2.92A167.7 167.7 0 00449 85.88c-1.7 6.86-2.9 13.15-3.55 17.74-.34 2.29-.54 4.15-.65 5.44-.05.6-.08 1.1-.11 1.49a2.05 2.05 0 00-.02.52z"/><path d="M446.35 98.85a10.69 10.69 0 00.2-1.54c.08-1 .13-2.45.09-4.24a54.4 54.4 0 00-.54-6.27 50.29 50.29 0 00-1.57-7.55 38.62 38.62 0 00-5.9-12.64 19.23 19.23 0 00-1.54-1.88c-.24-.26-.45-.52-.66-.73l-.62-.56a9 9 0 00-1.19-1 46.7 46.7 0 013.74 4.37 40.69 40.69 0 015.72 12.58 56.07 56.07 0 011.6 7.48 60.58 60.58 0 01.63 6.22c.09 1.78.08 3.22.06 4.22a10.8 10.8 0 00-.02 1.54z"/></g><g><path d="M72.86 106.84h-1.63l-3.54-4.93v-3.24s-2.51-.16-2.21 4.08 0 3.17 0 3.17-5.33 0-5.77.48-.47 5.63-.52 8.5a3.11 3.11 0 002.2 3.13 2.24 2.24 0 00.57.08c1.33 0 8.12-1.08 8.12-1.08h2.81zM77.5 105.95l-1 11.11h-2.78v-10.88l3.78-.23z" fill="#ff725e"/><path d="M97.87 133.32h-.26l-.79-.08-3.11-.31-11.83-1.24-.13-.14.23.12a27.62 27.62 0 01-13.82 4.85 28 28 0 01-17.55-4.78 27.66 27.66 0 01-11.37-29 28 28 0 015.11-10.83 27.7 27.7 0 0140-4 27 27 0 016.08 7.44 29 29 0 013 8.25c.11.7.21 1.38.31 2a19.39 19.39 0 01.14 2 22.11 22.11 0 01-.07 3.83 27.75 27.75 0 01-1.5 6.72V118c1.74 4.83 3.13 8.66 4.09 11.3.45 1.28.81 2.28 1.06 3 .11.32.2.57.27.76s.08.25.08.25a1.65 1.65 0 01-.11-.27l-.31-.78c-.26-.7-.64-1.7-1.14-3l-4.22-11.14a27 27 0 001.44-6.65 22.61 22.61 0 000-3.78c-.06-.65 0-1.32-.15-2s-.21-1.33-.32-2a28.26 28.26 0 00-3-8.12 26.54 26.54 0 00-6-7.31 27.29 27.29 0 00-44.35 14.63 27.54 27.54 0 00-.17 11.32 27.23 27.23 0 0011.3 17.21 27.75 27.75 0 0017.26 4.76 27.33 27.33 0 0013.68-4.7l.23.12-.13-.15 11.71 1.41 3.14.38.82.11z"/></g><path fill="#f5f5f5" d="M239.293 88.19h209.38v314.05h-209.38z"/><path fill="#ebebeb" d="M239.293 133.15h209.38v51.51h-209.38zM239.293 242.71h209.38v51.51h-209.38z"/><circle cx="266.083" cy="159.12" r="10.64" fill="#ff725e"/><path d="M271.373 156c.3.31-1.78 2.81-4.64 5.57-.59.57-1.16 1.1-1.7 1.58l-.56.5-.47-.51c-1.95-2.08-3.19-3.73-2.95-4 .24-.27 1.9 1 4 2.93h-1c.49-.52 1.05-1.08 1.63-1.64 2.83-2.8 5.39-4.79 5.69-4.43z" fill="#fff"/><path d="M288.053 169.39a90.5 90.5 0 01-.26-9.63 90.78 90.78 0 01.26-9.64 87.69 87.69 0 01.26 9.64 87.43 87.43 0 01-.26 9.63zM405.883 215.61v5.76h-.63l-3.46-4.3v4.3h-.82v-5.76h.67l3.47 4.3v-4.3zM407.143 218.49a3.07 3.07 0 113.07 2.95 2.93 2.93 0 01-3.07-2.95zm5.31 0a2.25 2.25 0 10-2.24 2.22 2.17 2.17 0 002.24-2.22zM418.393 221.37l-1.24-1.77h-1.79v1.75h-.83v-5.76h2.25c1.5 0 2.41.75 2.41 2a1.82 1.82 0 01-1.27 1.82l1.37 1.93zm0-3.75c0-.83-.55-1.3-1.6-1.3h-1.4v2.6h1.4c1.02 0 1.57-.48 1.57-1.3zM425.873 221.37v-4.2l-2.08 3.5h-.38l-2.08-3.47v4.17h-.8v-5.76h.72l2.41 4 2.37-4h.67v5.76zM432.073 219.93h-3.07l-.63 1.44h-.85l2.61-5.76h.82l2.62 5.76h-.87zm-.29-.66l-1.24-2.82-1.29 2.82zM434.433 215.61h.82v5h3.12v.71h-3.94zM405.883 163.17v5.77h-.63l-3.46-4.3v4.3h-.82v-5.77h.67l3.47 4.3v-4.3zM407.143 166.05a3.07 3.07 0 113.11 2.95 2.94 2.94 0 01-3.11-2.95zm5.31 0a2.25 2.25 0 10-2.24 2.22 2.17 2.17 0 002.24-2.22zM418.393 168.94l-1.24-1.77h-1.79v1.76h-.83v-5.77h2.25c1.5 0 2.41.76 2.41 2a1.82 1.82 0 01-1.27 1.82l1.37 1.94zm0-3.76c0-.82-.55-1.29-1.6-1.29h-1.4v2.59h1.4c1.02 0 1.57-.48 1.57-1.3zM425.873 168.94v-4.2l-2.08 3.5h-.38l-2.08-3.48v4.18h-.8v-5.77h.72l2.41 4.05 2.37-4.05h.67v5.77zM432.073 167.5h-3.07l-.63 1.44h-.85l2.61-5.77h.82l2.62 5.77h-.87zm-.29-.66l-1.24-2.84-1.29 2.84zM434.433 163.17h.82v5.05h3.12v.72h-3.94z"/><circle cx="50.42" cy="335.236" r="10.64" transform="rotate(-42.97)" fill="#ff725e"/><path d="M270.693 207.75c.3.31-1.78 2.81-4.64 5.57-.59.57-1.17 1.1-1.7 1.58l-.56.5-.48-.51c-1.94-2.08-3.18-3.73-2.94-4 .24-.27 1.89 1 4 2.92h-1c.5-.52 1.05-1.08 1.64-1.64 2.81-2.74 5.38-4.73 5.68-4.42z" fill="#fff"/><path d="M287.373 221.19a87.43 87.43 0 01-.26-9.63 87.69 87.69 0 01.26-9.64 90.78 90.78 0 01.26 9.64 90.5 90.5 0 01-.26 9.63z"/><path fill="#ff725e" d="M308.003 214.19h55.76v7.19h-55.76z"/><path d="M406.253 269.56h.82v5.05h3.12v.71h-3.94zM411.113 269.56h.83v5.76h-.83zM417.663 272.41h.79v2.25a3.41 3.41 0 01-2.18.73 3 3 0 112.23-5l-.51.51a2.28 2.28 0 00-1.67-.67 2.22 2.22 0 100 4.44 2.45 2.45 0 001.35-.37zM424.993 269.56v5.76h-.82v-2.57h-3.32v2.57h-.82v-5.76h.82V272h3.32v-2.48zM427.873 270.27h-2v-.71h4.77v.71h-2v5.05h-.81z"/><circle cx="-1.681" cy="377.979" r="10.64" transform="rotate(-45)" fill="#ff725e"/><path d="M271.373 265.3c.3.31-1.78 2.8-4.64 5.56-.59.57-1.16 1.1-1.7 1.58l-.56.51-.47-.51c-1.95-2.09-3.19-3.74-2.95-4 .24-.26 1.9 1 4 2.93h-1c.49-.52 1.05-1.07 1.63-1.64 2.83-2.73 5.39-4.73 5.69-4.43z" fill="#fff"/><path d="M288.053 278.74a90.78 90.78 0 01-.26-9.64 90.5 90.5 0 01.26-9.63 87.43 87.43 0 01.26 9.63 87.69 87.69 0 01-.26 9.64z"/><path fill="#ff725e" d="M308.693 271.73h25.87v7.19h-25.87z"/><path d="M400.453 326.09a3.07 3.07 0 113.07 3 2.93 2.93 0 01-3.07-3zm5.31 0a2.25 2.25 0 10-2.24 2.22 2.17 2.17 0 002.24-2.22zM408.673 323.93v2h2.89v.7h-2.89V329h-.83v-5.77h4.07v.72zM413.903 323.93v2h2.89v.7h-2.89V329h-.83v-5.77h4.07v.72zM418.313 323.21h.82v5.05h3.12v.74h-3.94zM423.253 323.21h.83V329h-.83zM430.723 323.21V329h-.68l-3.46-4.3v4.3h-.82v-5.77h.67l3.46 4.3v-4.3zM436.633 328.26v.74h-4.18v-5.77h4.07v.72h-3.27v1.77h2.89v.7h-2.89v1.86z"/><path d="M276.613 321.46a10.63 10.63 0 11-9.09-12 10.63 10.63 0 019.09 12z" fill="#455a64"/><path d="M288.023 330.52a90.5 90.5 0 01-.26-9.63 90.78 90.78 0 01.26-9.64 87.69 87.69 0 01.26 9.64 87.43 87.43 0 01-.26 9.63zM384.403 330.52v-.46-1.32c0-1.18 0-2.87-.05-5l.1.1c-12.63.09-41.79.16-75.74.16l.26-.26v6.8l-.26-.26 53.7.11 16.11.08h5.93a1.39 1.39 0 01-.37 0H378.653l-16.05.07-53.89.11h-.26v-7.06c-.23.23.31-.32.26-.26 33.95 0 63.11.06 75.74.16h.1v.1c0 2.2 0 3.91-.06 5.1v1.3a3 3 0 01-.09.53z"/><path d="M269.503 316.52c.31.3-1 2.11-2.86 4.05-1.86 1.94-3.68 3.26-4 2.95-.32-.31 1-2.11 2.87-4 1.87-1.89 3.68-3.3 3.99-3z" fill="#fff"/><path d="M269.583 323.44c-.3.31-2.11-1-4.05-2.86-1.94-1.86-3.26-3.68-3-4 .26-.32 2.12 1 4.05 2.86 1.93 1.86 3.3 3.7 3 4z" fill="#fff"/><path fill="#ff725e" d="M308.693 162.66h64.37v7.01h-64.37z"/><path d="M384.433 169.67v-.47-1.32c0-1.18 0-2.87-.05-5l.1.1c-12.63.1-41.79.16-75.74.16l.26-.26v6.81l-.26-.26 53.7.11 16.11.07H384.083a1.87 1.87 0 01.4 0H378.683l-16.05.07-53.89.11h-.26v-7.07l.26-.26c33.95 0 63.11.06 75.74.16h.1v.1c0 2.2 0 3.91-.06 5.1v1.3a3.42 3.42 0 01-.09.55zM383.753 221.19a4.13 4.13 0 010-.46v-1.32c0-1.18 0-2.87-.06-5l.11.1c-12.64.09-41.8.16-75.74.16l.26-.26v6.8l-.26-.26 53.71.11 16.11.08h5.93a1.46 1.46 0 01-.37 0H378.013l-16.05.07-53.9.11h-.25v-.26V214.26c-.23.23.32-.32.27-.26 33.94 0 63.1.06 75.74.15h.1v.1c0 2.2-.05 3.91-.06 5.09v1.31c0 .31-.11.55-.11.54zM384.433 278.74v-.47-1.32c0-1.18 0-2.87-.05-5l.1.11c-12.63.09-41.79.15-75.74.15l.26-.26v6.82l-.26-.26 53.7.11 16.11.07H384.083a1.87 1.87 0 01.4 0H378.683l-16.05.08-53.89.11h-.26v-7.08l.26-.26c33.95 0 63.11.07 75.74.16h.1v.1c0 2.2 0 3.91-.06 5.1v1.3a3.42 3.42 0 01-.09.54z"/><path fill="#ebebeb" d="M239.293 350.74h209.38v51.51h-209.38z"/><path d="M406.253 381h.82v5.05h3.12v.72h-3.94zM411.113 381h.83v5.77h-.83zM417.663 383.85h.79v2.25a3.36 3.36 0 01-2.18.73 3 3 0 112.23-5l-.51.51a2.27 2.27 0 00-1.67-.66 2.22 2.22 0 100 4.43 2.45 2.45 0 001.35-.37zM424.993 381v5.77h-.82v-2.57h-3.32v2.57h-.82V381h.82v2.48h3.32V381zM427.873 381.72h-2V381h4.77v.72h-2v5h-.81z"/><circle cx="266.083" cy="376.49" r="10.64" fill="#ff725e"/><path d="M271.373 373.33c.3.31-1.78 2.8-4.64 5.56-.59.57-1.16 1.1-1.7 1.58l-.56.51-.47-.51c-1.95-2.09-3.19-3.74-2.95-4 .24-.26 1.9 1 4 2.93h-1c.49-.52 1.05-1.07 1.63-1.64 2.83-2.76 5.39-4.76 5.69-4.43z" fill="#fff"/><path d="M288.053 386.77a90.78 90.78 0 01-.26-9.64 90.5 90.5 0 01.26-9.63 87.43 87.43 0 01.26 9.63 87.69 87.69 0 01-.26 9.64z"/><path fill="#ff725e" d="M308.693 379.76h25.87v7.19h-25.87z"/><path d="M384.433 386.77v-.47-1.32c0-1.18 0-2.87-.05-5l.1.11c-12.63.09-41.79.15-75.74.15l.26-.26v6.82l-.26-.26 53.7.11 16.11.07h5.93H378.683l-16.05.08-53.89.11h-.26V380l.26-.26c33.95 0 63.11.07 75.74.16h.1v.1c0 2.2 0 3.91-.06 5.1v1.3a3.42 3.42 0 01-.09.37z"/><rect x="253.703" y="106.08" width="10.2" height="2.94" rx=".17"/><rect x="253.703" y="109.76" width="10.2" height="2.94" rx=".17"/><rect x="253.703" y="113.43" width="10.2" height="2.94" rx=".17"/><circle cx="437.713" cy="105.5" r="1.57"/><path d="M439.253 109.76a1.57 1.57 0 11-1.56-1.56 1.56 1.56 0 011.56 1.56z"/><circle cx="437.713" cy="114.27" r="1.57"/><path d="M448.683 402.25c0-2.14-.1-129.12-.24-314.06l.24.24h-209.36l.26-.26c0 118.4 0 227.6-.05 314.06l-.28-.23 209.39.21-209.39.2h-.2v-.2c0-86.46 0-195.66-.06-314.06v-.26h209.88v.24c-.1 185-.19 311.98-.19 314.12z"/><g style="line-height:1.25" aria-label="Docker status" font-size="40"><path d="M294.635 111.466q0 3.885-2.125 5.86-2.103 1.952-5.88 1.952h-4.271v-15.324h4.721q2.318 0 4.014.859 1.695.858 2.618 2.532.923 1.653.923 4.121zm-2.039.064q0-3.069-1.524-4.485-1.502-1.438-4.27-1.438h-2.512v12.019h2.082q6.224 0 6.224-6.096zM307.77 113.505q0 2.855-1.46 4.421-1.437 1.567-3.905 1.567-1.524 0-2.726-.687-1.18-.708-1.867-2.039-.687-1.352-.687-3.262 0-2.854 1.438-4.4 1.438-1.545 3.906-1.545 1.567 0 2.747.708 1.202.687 1.868 2.018.686 1.309.686 3.219zm-8.692 0q0 2.039.794 3.24.816 1.181 2.576 1.181 1.738 0 2.554-1.18.815-1.202.815-3.241t-.815-3.198q-.816-1.159-2.576-1.159-1.76 0-2.554 1.16-.794 1.158-.794 3.197zM315.368 119.493q-1.524 0-2.726-.622-1.18-.623-1.867-1.932-.665-1.31-.665-3.348 0-2.125.708-3.456.708-1.33 1.91-1.953 1.224-.622 2.769-.622.88 0 1.695.193.816.172 1.331.43l-.58 1.566q-.514-.193-1.201-.365-.687-.171-1.288-.171-3.391 0-3.391 4.356 0 2.082.815 3.198.837 1.095 2.469 1.095.944 0 1.652-.193.73-.193 1.331-.472v1.674q-.58.3-1.288.45-.687.172-1.674.172zM322.923 102.967v8.52q0 .344-.043.902-.021.558-.043.966h.086q.129-.172.386-.494l.515-.644q.28-.343.473-.558l3.67-3.884h2.21l-4.657 4.914 4.98 6.59h-2.276l-3.992-5.366-1.309 1.137v4.228h-1.867v-16.311zM336.96 107.56q1.48 0 2.532.644 1.073.644 1.631 1.824.58 1.16.58 2.726v1.137h-7.877q.043 1.953.987 2.984.966 1.008 2.683 1.008 1.095 0 1.932-.193.858-.214 1.76-.6v1.652q-.88.386-1.739.558-.858.193-2.039.193-1.63 0-2.897-.665-1.245-.666-1.953-1.975-.687-1.33-.687-3.24 0-1.89.622-3.242.644-1.352 1.782-2.081 1.159-.73 2.682-.73zm-.022 1.545q-1.352 0-2.146.88-.773.859-.923 2.404h5.86q-.022-1.46-.688-2.36-.665-.924-2.103-.924zM349.987 107.56q.322 0 .687.043.386.021.665.086l-.236 1.738q-.279-.064-.622-.107-.322-.043-.622-.043-.88 0-1.653.494-.773.472-1.245 1.352-.45.858-.45 2.017v6.138h-1.89v-11.503h1.546l.215 2.103h.085q.558-.945 1.438-1.631.88-.687 2.082-.687zM366.556 116.102q0 1.674-1.244 2.533-1.245.858-3.349.858-1.202 0-2.081-.193-.859-.193-1.524-.537v-1.717q.686.344 1.652.644.988.28 1.996.28 1.438 0 2.082-.451.644-.473.644-1.245 0-.43-.236-.773t-.859-.687q-.6-.343-1.738-.772-1.116-.43-1.91-.859-.794-.43-1.224-1.03-.429-.601-.429-1.545 0-1.46 1.18-2.254 1.203-.794 3.134-.794 1.052 0 1.953.215.923.193 1.717.558l-.644 1.502q-.73-.3-1.523-.515-.795-.215-1.632-.215-1.159 0-1.781.387-.6.364-.6 1.008 0 .472.278.816.28.322.923.644.665.3 1.76.73 1.095.407 1.867.837.773.429 1.18 1.051.408.601.408 1.524zM373.188 117.948q.43 0 .88-.065.451-.085.73-.171v1.438q-.3.15-.858.236-.559.107-1.074.107-.901 0-1.674-.3-.75-.322-1.223-1.095-.472-.773-.472-2.168v-6.696h-1.631v-.901l1.652-.752.751-2.446h1.116v2.64h3.327v1.459h-3.327v6.653q0 1.052.494 1.567.515.494 1.31.494zM381.451 107.581q2.104 0 3.112.923 1.01.923 1.01 2.94v7.834h-1.374l-.365-1.63h-.086q-.751.944-1.588 1.394-.816.451-2.275.451-1.567 0-2.597-.815-1.03-.838-1.03-2.597 0-1.717 1.352-2.64 1.352-.945 4.163-1.03l1.953-.065v-.687q0-1.438-.622-1.996t-1.76-.558q-.901 0-1.717.28-.815.257-1.524.6l-.58-1.416q.752-.408 1.782-.687 1.03-.3 2.146-.3zm2.254 6.074l-1.696.065q-2.146.086-2.983.686-.815.601-.815 1.696 0 .966.579 1.417.601.45 1.524.45 1.46 0 2.425-.794.966-.815.966-2.49zM392.977 117.948q.43 0 .88-.065.45-.085.73-.171v1.438q-.3.15-.859.236-.558.107-1.073.107-.902 0-1.674-.3-.751-.322-1.224-1.095-.472-.773-.472-2.168v-6.696h-1.63v-.901l1.652-.752.75-2.446h1.117v2.64h3.327v1.459h-3.327v6.653q0 1.052.494 1.567.515.494 1.309.494zM406.498 107.775v11.503h-1.545l-.28-1.523h-.085q-.558.901-1.545 1.33-.988.408-2.104.408-2.081 0-3.133-.987-1.052-1.009-1.052-3.198v-7.533h1.91v7.404q0 2.747 2.554 2.747 1.91 0 2.64-1.073.752-1.073.752-3.09v-5.988zM417.637 116.102q0 1.674-1.244 2.533-1.245.858-3.349.858-1.202 0-2.082-.193-.858-.193-1.523-.537v-1.717q.686.344 1.652.644.988.28 1.996.28 1.438 0 2.082-.451.644-.473.644-1.245 0-.43-.236-.773t-.859-.687q-.6-.343-1.738-.772-1.116-.43-1.91-.859-.794-.43-1.224-1.03-.429-.601-.429-1.545 0-1.46 1.18-2.254 1.202-.794 3.134-.794 1.052 0 1.953.215.923.193 1.717.558l-.644 1.502q-.73-.3-1.523-.515-.795-.215-1.632-.215-1.159 0-1.781.387-.601.364-.601 1.008 0 .472.279.816.279.322.923.644.665.3 1.76.73 1.094.407 1.867.837.773.429 1.18 1.051.408.601.408 1.524z"/></g><g style="line-height:1.25" aria-label="Metasploitable2" font-size="12"><path d="M312.73 260.826l-2.82-7.512h-.049q.036.372.06 1.008.024.624.024 1.308v5.196h-.996v-8.568h1.596l2.64 7.02h.048l2.688-7.02h1.584v8.568h-1.068v-5.268q0-.624.024-1.236l.06-.996h-.048l-2.856 7.5zM322.173 254.274q.828 0 1.416.36.6.36.912 1.02.324.648.324 1.524v.636h-4.404q.024 1.092.552 1.668.54.564 1.5.564.612 0 1.08-.108.48-.12.984-.336v.924q-.492.216-.972.312-.48.108-1.14.108-.912 0-1.62-.372-.696-.372-1.092-1.104-.384-.744-.384-1.812 0-1.056.348-1.812.36-.756.996-1.164.648-.408 1.5-.408zm-.012.864q-.756 0-1.2.492-.432.48-.516 1.344h3.276q-.012-.816-.384-1.32-.372-.516-1.176-.516zM328.605 260.082q.24 0 .492-.036.252-.048.408-.096v.804q-.168.084-.48.132-.312.06-.6.06-.504 0-.936-.168-.42-.18-.684-.612-.264-.432-.264-1.212v-3.744h-.912v-.504l.924-.42.42-1.368h.624v1.476h1.86v.816h-1.86v3.72q0 .588.276.876.288.276.732.276zM333.225 254.286q1.176 0 1.74.516.564.516.564 1.644v4.38h-.768l-.204-.912h-.048q-.42.528-.888.78-.456.252-1.272.252-.876 0-1.452-.456-.576-.468-.576-1.452 0-.96.756-1.476.756-.528 2.328-.576l1.092-.036v-.384q0-.804-.348-1.116-.348-.312-.984-.312-.504 0-.96.156-.456.144-.852.336l-.324-.792q.42-.228.996-.384.576-.168 1.2-.168zm1.26 3.396l-.948.036q-1.2.048-1.668.384-.456.336-.456.948 0 .54.324.792.336.252.852.252.816 0 1.356-.444.54-.456.54-1.392zM341.71 259.05q0 .936-.697 1.416-.696.48-1.872.48-.672 0-1.164-.108-.48-.108-.852-.3v-.96q.384.192.924.36.552.156 1.116.156.804 0 1.164-.252.36-.264.36-.696 0-.24-.132-.432t-.48-.384q-.336-.192-.972-.432-.624-.24-1.068-.48-.444-.24-.684-.576-.24-.336-.24-.864 0-.816.66-1.26.672-.444 1.752-.444.588 0 1.092.12.516.108.96.312l-.36.84q-.408-.168-.852-.288-.444-.12-.912-.12-.648 0-.996.216-.336.204-.336.564 0 .264.156.456.156.18.516.36.372.168.984.408.612.228 1.044.468.432.24.66.588.228.336.228.852zM346.33 254.274q1.187 0 1.907.828.732.828.732 2.496 0 1.644-.732 2.496-.72.852-1.92.852-.744 0-1.236-.276-.48-.288-.756-.66h-.072q.024.204.048.516.024.312.024.54v2.64h-1.056v-9.312h.864l.144.876h.048q.288-.42.756-.708t1.248-.288zm-.193.888q-.984 0-1.392.552-.396.552-.42 1.68v.204q0 1.188.384 1.836.396.636 1.452.636.588 0 .96-.324.384-.324.564-.876.192-.564.192-1.284 0-1.104-.432-1.764-.42-.66-1.308-.66zM351.705 260.826h-1.056v-9.12h1.056zM359.337 257.598q0 1.596-.816 2.472-.804.876-2.184.876-.852 0-1.524-.384-.66-.396-1.044-1.14-.384-.756-.384-1.824 0-1.596.804-2.46.804-.864 2.184-.864.876 0 1.536.396.672.384 1.044 1.128.384.732.384 1.8zm-4.86 0q0 1.14.444 1.812.456.66 1.44.66.972 0 1.428-.66.456-.672.456-1.812 0-1.14-.456-1.788-.456-.648-1.44-.648t-1.428.648q-.444.648-.444 1.788zM361.545 251.982q.24 0 .42.168.192.156.192.504 0 .336-.192.504-.18.168-.42.168-.264 0-.444-.168t-.18-.504q0-.348.18-.504.18-.168.444-.168zm.516 2.412v6.432h-1.056v-6.432zM366.25 260.082q.24 0 .491-.036.252-.048.408-.096v.804q-.168.084-.48.132-.312.06-.6.06-.504 0-.936-.168-.42-.18-.684-.612-.264-.432-.264-1.212v-3.744h-.912v-.504l.924-.42.42-1.368h.624v1.476h1.86v.816h-1.86v3.72q0 .588.276.876.288.276.732.276zM370.87 254.286q1.175 0 1.74.516.563.516.563 1.644v4.38h-.768l-.204-.912h-.048q-.42.528-.888.78-.456.252-1.272.252-.876 0-1.452-.456-.576-.468-.576-1.452 0-.96.756-1.476.756-.528 2.328-.576l1.092-.036v-.384q0-.804-.348-1.116-.348-.312-.984-.312-.504 0-.96.156-.456.144-.852.336l-.324-.792q.42-.228.996-.384.576-.168 1.2-.168zm1.26 3.396l-.949.036q-1.2.048-1.668.384-.456.336-.456.948 0 .54.324.792.336.252.852.252.816 0 1.356-.444.54-.456.54-1.392zM376.221 251.706v2.22q0 .408-.024.768-.012.348-.036.552h.06q.276-.408.756-.684.48-.276 1.236-.276 1.2 0 1.92.84.732.828.732 2.484 0 1.656-.732 2.496-.732.84-1.92.84-.756 0-1.236-.276t-.756-.66h-.084l-.216.816h-.756v-9.12zm1.812 3.456q-1.02 0-1.416.588-.396.588-.396 1.824v.048q0 1.188.384 1.824.396.624 1.452.624.864 0 1.284-.636.432-.636.432-1.836 0-2.436-1.74-2.436zM383.601 260.826h-1.056v-9.12h1.056zM388.125 254.274q.828 0 1.416.36.6.36.912 1.02.324.648.324 1.524v.636h-4.404q.024 1.092.552 1.668.54.564 1.5.564.612 0 1.08-.108.48-.12.984-.336v.924q-.492.216-.972.312-.48.108-1.14.108-.912 0-1.62-.372-.696-.372-1.092-1.104-.384-.744-.384-1.812 0-1.056.348-1.812.36-.756.996-1.164.648-.408 1.5-.408zm-.012.864q-.756 0-1.2.492-.432.48-.516 1.344h3.276q-.012-.816-.384-1.32-.372-.516-1.176-.516zM397.63 260.826h-5.665v-.876l2.244-2.268q.648-.648 1.092-1.152.444-.504.672-.984.228-.492.228-1.068 0-.708-.42-1.068-.42-.372-1.092-.372-.624 0-1.104.216-.468.216-.96.6l-.564-.708q.504-.42 1.152-.708.66-.3 1.476-.3 1.2 0 1.896.612.696.6.696 1.668 0 .672-.276 1.26t-.768 1.164q-.492.564-1.152 1.212l-1.788 1.764v.048h4.332z"/></g><g style="line-height:1.25" aria-label="Kali Linux" font-size="12"><path d="M317.306 317.67h-1.272l-3.036-4.092-.876.768v3.324h-1.08v-8.568h1.08v4.224q.36-.408.732-.816l.744-.816 2.316-2.592h1.26l-3.396 3.732zM320.762 311.13q1.176 0 1.74.516.564.516.564 1.644v4.38h-.768l-.204-.912h-.048q-.42.528-.888.78-.456.252-1.272.252-.876 0-1.452-.456-.576-.468-.576-1.452 0-.96.756-1.476.756-.528 2.328-.576l1.092-.036v-.384q0-.804-.348-1.116-.348-.312-.984-.312-.504 0-.96.156-.456.144-.852.336l-.324-.792q.42-.228.996-.384.576-.168 1.2-.168zm1.26 3.396l-.948.036q-1.2.048-1.668.384-.456.336-.456.948 0 .54.324.792.336.252.852.252.816 0 1.356-.444.54-.456.54-1.392zM326.114 317.67h-1.056v-9.12h1.056zM328.694 308.826q.24 0 .42.168.192.156.192.504 0 .336-.192.504-.18.168-.42.168-.264 0-.444-.168t-.18-.504q0-.348.18-.504.18-.168.444-.168zm.516 2.412v6.432h-1.056v-6.432zM334.514 317.67v-8.568h1.08v7.608h3.744v.96zM341.198 308.826q.24 0 .42.168.192.156.192.504 0 .336-.192.504-.18.168-.42.168-.264 0-.444-.168t-.18-.504q0-.348.18-.504.18-.168.444-.168zm.516 2.412v6.432h-1.056v-6.432zM346.85 311.118q1.152 0 1.74.564.588.552.588 1.8v4.188h-1.044v-4.116q0-1.548-1.44-1.548-1.068 0-1.476.6-.408.6-.408 1.728v3.336h-1.056v-6.432h.852l.156.876h.06q.312-.504.864-.744.552-.252 1.164-.252zM356.546 311.238v6.432h-.864l-.156-.852h-.048q-.312.504-.864.744-.552.228-1.176.228-1.164 0-1.752-.552-.588-.564-.588-1.788v-4.212h1.068v4.14q0 1.536 1.428 1.536 1.068 0 1.476-.6.42-.6.42-1.728v-3.348zM360.11 314.382l-2.22-3.144h1.2l1.656 2.424 1.644-2.424h1.188l-2.22 3.144 2.34 3.288h-1.2l-1.752-2.568-1.776 2.568h-1.188z"/></g><g style="line-height:1.25" aria-label="Webgoat" font-size="12"><path d="M318.755 363.185l-2.28 8.568h-1.092l-1.668-5.616-.192-.696q-.096-.348-.156-.612l-.084-.384q-.012.156-.132.672-.108.504-.276 1.056l-1.62 5.58h-1.092l-2.268-8.568h1.128l1.332 5.232q.144.552.24 1.068.108.516.168.972.06-.468.18-1.02t.276-1.08l1.512-5.172h1.116l1.572 5.208q.168.552.288 1.104.12.54.18.96.06-.444.168-.96.108-.528.252-1.092l1.32-5.22zM322.175 365.201q.828 0 1.416.36.6.36.912 1.02.324.648.324 1.524v.636h-4.404q.024 1.092.552 1.668.54.564 1.5.564.612 0 1.08-.108.48-.12.984-.336v.924q-.492.216-.972.312-.48.108-1.14.108-.912 0-1.62-.372-.696-.372-1.092-1.104-.384-.744-.384-1.812 0-1.056.348-1.812.36-.756.996-1.164.648-.408 1.5-.408zm-.012.864q-.756 0-1.2.492-.432.48-.516 1.344h3.276q-.012-.816-.384-1.32-.372-.516-1.176-.516zM327.515 362.633v2.22q0 .408-.024.768-.012.348-.036.552h.06q.276-.408.756-.684.48-.276 1.236-.276 1.2 0 1.92.84.732.828.732 2.484 0 1.656-.732 2.496-.732.84-1.92.84-.756 0-1.236-.276t-.756-.66h-.084l-.216.816h-.756v-9.12zm1.812 3.456q-1.02 0-1.416.588-.396.588-.396 1.824v.048q0 1.188.384 1.824.396.624 1.452.624.864 0 1.284-.636.432-.636.432-1.836 0-2.436-1.74-2.436zM336.12 365.201q.635 0 1.14.24.515.24.875.732h.06l.144-.852h.84v6.54q0 1.38-.708 2.076-.696.696-2.172.696-1.416 0-2.316-.408v-.972q.948.504 2.376.504.828 0 1.296-.492.48-.48.48-1.32v-.252q0-.144.012-.408.012-.276.024-.384h-.048q-.648.972-1.992.972-1.248 0-1.956-.876-.696-.876-.696-2.448 0-1.536.696-2.436.708-.912 1.944-.912zm.143.888q-.804 0-1.248.648-.444.636-.444 1.824 0 1.188.432 1.824.444.624 1.284.624.972 0 1.416-.516.444-.528.444-1.692v-.252q0-1.32-.456-1.884-.456-.576-1.428-.576zM346.811 368.525q0 1.596-.816 2.472-.804.876-2.184.876-.852 0-1.524-.384-.66-.396-1.044-1.14-.384-.756-.384-1.824 0-1.596.804-2.46.804-.864 2.184-.864.876 0 1.536.396.672.384 1.044 1.128.384.732.384 1.8zm-4.86 0q0 1.14.444 1.812.456.66 1.44.66.972 0 1.428-.66.456-.672.456-1.812 0-1.14-.456-1.788-.456-.648-1.44-.648t-1.428.648q-.444.648-.444 1.788zM350.915 365.213q1.176 0 1.74.516.564.516.564 1.644v4.38h-.768l-.204-.912h-.048q-.42.528-.888.78-.456.252-1.272.252-.876 0-1.452-.456-.576-.468-.576-1.452 0-.96.756-1.476.756-.528 2.328-.576l1.092-.036v-.384q0-.804-.348-1.116-.348-.312-.984-.312-.504 0-.96.156-.456.144-.852.336l-.324-.792q.42-.228.996-.384.576-.168 1.2-.168zm1.26 3.396l-.948.036q-1.2.048-1.668.384-.456.336-.456.948 0 .54.324.792.336.252.852.252.816 0 1.356-.444.54-.456.54-1.392zM357.36 371.01q.24 0 .491-.037.252-.048.408-.096v.804q-.168.084-.48.132-.312.06-.6.06-.504 0-.936-.168-.42-.18-.684-.612-.264-.432-.264-1.212v-3.744h-.912v-.504l.924-.42.42-1.368h.624v1.476h1.86v.816h-1.86v3.72q0 .588.276.876.288.276.732.276z"/></g><g style="line-height:1.25" aria-label="Juiceshop" font-size="12"><path d="M307.198 207.642q-.288 0-.504-.048-.216-.036-.384-.108v-.912q.192.048.408.084.216.036.456.036.3 0 .564-.12.276-.12.444-.42.168-.3.168-.84v-8.52h1.08v8.436q0 1.236-.612 1.824-.612.588-1.62.588zM316.918 198.93v6.432h-.864l-.156-.852h-.048q-.312.504-.864.744-.552.228-1.176.228-1.164 0-1.752-.552-.588-.564-.588-1.788v-4.212h1.068v4.14q0 1.536 1.428 1.536 1.068 0 1.476-.6.42-.6.42-1.728v-3.348zM319.498 196.518q.24 0 .42.168.192.156.192.504 0 .336-.192.504-.18.168-.42.168-.264 0-.444-.168t-.18-.504q0-.348.18-.504.18-.168.444-.168zm.516 2.412v6.432h-1.056v-6.432zM324.634 205.482q-.852 0-1.524-.348-.66-.348-1.044-1.08-.372-.732-.372-1.872 0-1.188.396-1.932t1.068-1.092q.684-.348 1.548-.348.492 0 .948.108.456.096.744.24l-.324.876q-.288-.108-.672-.204-.384-.096-.72-.096-1.896 0-1.896 2.436 0 1.164.456 1.788.468.612 1.38.612.528 0 .924-.108.408-.108.744-.264v.936q-.324.168-.72.252-.384.096-.936.096zM330.298 198.81q.828 0 1.416.36.6.36.912 1.02.324.648.324 1.524v.636h-4.404q.024 1.092.552 1.668.54.564 1.5.564.612 0 1.08-.108.48-.12.984-.336v.924q-.492.216-.972.312-.48.108-1.14.108-.912 0-1.62-.372-.696-.372-1.092-1.104-.384-.744-.384-1.812 0-1.056.348-1.812.36-.756.996-1.164.648-.408 1.5-.408zm-.012.864q-.756 0-1.2.492-.432.48-.516 1.344h3.276q-.012-.816-.384-1.32-.372-.516-1.176-.516zM338.77 203.586q0 .936-.696 1.416-.696.48-1.872.48-.672 0-1.164-.108-.48-.108-.852-.3v-.96q.384.192.924.36.552.156 1.116.156.804 0 1.164-.252.36-.264.36-.696 0-.24-.132-.432t-.48-.384q-.336-.192-.972-.432-.624-.24-1.068-.48-.444-.24-.684-.576-.24-.336-.24-.864 0-.816.66-1.26.672-.444 1.752-.444.588 0 1.092.12.516.108.96.312l-.36.84q-.408-.168-.852-.288-.444-.12-.912-.12-.648 0-.996.216-.336.204-.336.564 0 .264.156.456.156.18.516.36.372.168.984.408.612.228 1.044.468.432.24.66.588.228.336.228.852zM341.386 196.242v2.676q0 .48-.06.9h.072q.312-.492.84-.744.54-.252 1.164-.252 1.176 0 1.764.564.588.552.588 1.788v4.188h-1.044v-4.116q0-1.548-1.44-1.548-1.08 0-1.488.612-.396.6-.396 1.728v3.324h-1.056v-9.12zM353.338 202.134q0 1.596-.816 2.472-.804.876-2.184.876-.852 0-1.524-.384-.66-.396-1.044-1.14-.384-.756-.384-1.824 0-1.596.804-2.46.804-.864 2.184-.864.876 0 1.536.396.672.384 1.044 1.128.384.732.384 1.8zm-4.86 0q0 1.14.444 1.812.456.66 1.44.66.972 0 1.428-.66.456-.672.456-1.812 0-1.14-.456-1.788-.456-.648-1.44-.648t-1.428.648q-.444.648-.444 1.788zM358.066 198.81q1.188 0 1.908.828.732.828.732 2.496 0 1.644-.732 2.496-.72.852-1.92.852-.744 0-1.236-.276-.48-.288-.756-.66h-.072q.024.204.048.516.024.312.024.54v2.64h-1.056v-9.312h.864l.144.876h.048q.288-.42.756-.708t1.248-.288zm-.192.888q-.984 0-1.392.552-.396.552-.42 1.68v.204q0 1.188.384 1.836.396.636 1.452.636.588 0 .96-.324.384-.324.564-.876.192-.564.192-1.284 0-1.104-.432-1.764-.42-.66-1.308-.66z"/></g><path d="M310.75 142.5q1.68 0 2.449.66.768.66.768 1.86 0 .709-.324 1.333-.312.612-1.068.996-.744.384-2.028.384h-.984v3.336h-1.08V142.5zm-.095.925h-1.092v3.384h.864q1.224 0 1.824-.396.6-.396.6-1.344 0-.828-.528-1.236-.528-.408-1.668-.408zM318.035 144.529q1.176 0 1.74.516.564.516.564 1.644v4.38h-.768l-.204-.912h-.048q-.42.528-.888.78-.456.252-1.272.252-.876 0-1.452-.456-.576-.468-.576-1.452 0-.96.756-1.476.756-.528 2.328-.576l1.092-.036v-.384q0-.804-.348-1.116-.348-.312-.984-.312-.504 0-.96.156-.456.144-.852.336l-.324-.792q.42-.228.996-.384.576-.168 1.2-.168zm1.26 3.396l-.948.036q-1.2.048-1.668.384-.456.336-.456.948 0 .54.324.792.336.252.852.252.816 0 1.356-.444.54-.456.54-1.392zM325.33 144.517q.18 0 .385.024.216.012.372.048l-.132.972q-.156-.036-.348-.06-.18-.024-.348-.024-.492 0-.924.276-.432.264-.696.756-.252.48-.252 1.128v3.432h-1.056v-6.432h.864l.12 1.176h.048q.312-.528.804-.912.492-.384 1.164-.384zM330.287 144.517q.18 0 .384.024.216.012.372.048l-.132.972q-.156-.036-.348-.06-.18-.024-.348-.024-.492 0-.924.276-.432.264-.696.756-.252.48-.252 1.128v3.432h-1.056v-6.432h.864l.12 1.176h.048q.312-.528.804-.912.492-.384 1.164-.384zM337.595 147.84q0 1.597-.816 2.473-.804.876-2.184.876-.852 0-1.524-.384-.66-.396-1.044-1.14-.384-.756-.384-1.824 0-1.596.804-2.46.804-.864 2.184-.864.876 0 1.536.396.672.384 1.044 1.128.384.732.384 1.8zm-4.86 0q0 1.14.444 1.813.456.66 1.44.66.972 0 1.428-.66.456-.672.456-1.812 0-1.14-.456-1.788-.456-.648-1.44-.648t-1.428.648q-.444.648-.444 1.788zM341.41 150.325q.24 0 .493-.036.252-.048.408-.096v.804q-.168.084-.48.132-.312.06-.6.06-.504 0-.936-.168-.42-.18-.684-.612-.264-.432-.264-1.212v-3.744h-.912v-.504l.924-.42.42-1.368h.624v1.476h1.86v.816h-1.86v3.72q0 .588.276.876.288.276.732.276zM354.335 146.773q0 1.332-.456 2.328-.444.984-1.32 1.536-.876.552-2.172.552-1.332 0-2.22-.552-.876-.552-1.308-1.548-.432-.996-.432-2.328 0-1.32.432-2.304.432-.984 1.308-1.536.888-.552 2.232-.552 1.284 0 2.16.552.876.54 1.32 1.536.456.984.456 2.316zm-6.768 0q0 1.62.684 2.556.684.924 2.136.924 1.464 0 2.136-.924.672-.936.672-2.556t-.672-2.532q-.672-.924-2.124-.924t-2.148.924q-.684.912-.684 2.532zM361.09 148.777q0 1.14-.827 1.776-.828.636-2.232.636-.72 0-1.332-.108-.612-.108-1.02-.3v-1.032q.432.192 1.068.348.648.156 1.332.156.96 0 1.44-.372.492-.372.492-1.008 0-.42-.18-.708t-.624-.528q-.432-.252-1.212-.528-1.092-.396-1.656-.972-.552-.576-.552-1.572 0-.684.348-1.164.348-.492.96-.756.624-.264 1.428-.264.708 0 1.296.132.588.132 1.068.348l-.336.924q-.444-.192-.972-.324-.516-.132-1.08-.132-.804 0-1.212.348-.408.336-.408.9 0 .432.18.72t.588.516q.408.228 1.104.492.756.276 1.272.6.528.312.792.756.276.444.276 1.116z"/></g><text style="line-height:1.25" x="821.097" y="175.603" font-weight="400" font-size="40" font-family="sans-serif" letter-spacing="0" word-spacing="0"/></svg>