<svg xmlns="http://www.w3.org/2000/svg" height="360" viewBox="14.658 16.443 207.86 74.574" width="1000"><path d="M194.116 62.767c2.529.206 4.592-.335 4.592-.335V46.54h3.406v18.29c-2.649.594-10.406 3.122-13.854-1.96-1.405-2.433-1.393-5.185-1.393-5.185V46.54h3.56s-.005 9.55-.014 11.197c0 2.958 1.358 5.03 3.702 5.03zm-10.25-.49s-.705.693-3.509.93c-2.89 0-3.56-2.456-3.543-3.544V49.93h7.052v-2.82h-7.052V41.19l-3.44.689v17.336s.12 3.732 1.617 5.229c1.496 1.496 3.99 2.683 9.631.722-.492-2.092-.756-2.89-.756-2.89zm-21.922-13.483c-2.528-.207-4.592.335-4.592.335v15.892h-3.405V46.73c2.648-.593 10.405-3.122 13.853 1.96 1.405 2.434 1.394 5.186 1.394 5.186v11.145h-3.56s.005-9.551.013-11.197c0-2.958-1.357-5.03-3.702-5.03zm-20.607 13.973c2.529.206 4.593-.335 4.593-.335V46.54h3.405v18.29c-2.649.594-10.405 3.122-13.854-1.96-1.404-2.433-1.393-5.185-1.393-5.185V46.54h3.56s-.005 9.55-.013 11.197c0 2.958 1.357 5.03 3.702 5.03zm-23.838-.09V51.04s.748-1.47 4.076-1.47c3.328 0 3.793.98 4.18 1.419.387.438 1.238 1.29 1.238 4.488.077 3.664-.697 7.688-5.676 7.688-3.008 0-3.563-.125-3.818-.49zm-3.444 2.382s2.27 1.135 6.914 1.135 9.649-2.58 9.649-10.164c0-7.585-5.8-9.7-8.37-9.7-2.569 0-4.749 1.496-4.749 1.496v-9.958l-3.444.516zm-11.93-2.292c2.529.206 4.593-.335 4.593-.335V46.54h3.405v18.29c-2.649.594-10.405 3.122-13.854-1.96-1.404-2.433-1.393-5.185-1.393-5.185V46.54h3.56s-.006 9.55-.012 11.197c0 2.958 1.357 5.03 3.701 5.03z" fill="#666"/><g fill="#f60"><path d="M42.64 49.174a5.542 5.542 0 011.819 1.905 5.57 5.57 0 01-1.872 7.51 16.53 16.53 0 001.55 3.63c1.394 2.414 2.921 4.105 5.129 5.49l2.844-4.927c-1.373-.899-2.18-1.882-3.057-3.4-2.993-5.183-1.217-11.81 3.966-14.802l-2.838-4.915a16.452 16.452 0 00-7.541 9.509zm27.894-6.452l-.056-.031-.042.074.042-.074-.031-.018a5.57 5.57 0 01-7.875-1.878c-.559-.967-.798-1.952-.744-2.99a16.447 16.447 0 00-9.794.942l2.871 4.974c4.81-1.664 10.276.255 12.915 4.826a10.783 10.783 0 011.45 5.206h5.667a.207.207 0 01.01-.03 16.427 16.427 0 00-2.212-8.014 16.55 16.55 0 00-2.201-2.987zm-16.66 21.132l-2.821 4.886c3.818 1.962 8.167 2.306 12.392.957a5.568 5.568 0 012.784-4.644 5.561 5.561 0 014.776-.38 16.552 16.552 0 003.835-8.857h-5.729a10.81 10.81 0 01-5.257 7.532c-3.235 1.868-6.838 1.987-9.96.471"/><path d="M66.968 66.346a4.229 4.229 0 015.778 1.547 4.228 4.228 0 01-1.548 5.778 4.228 4.228 0 01-5.778-1.548 4.228 4.228 0 011.548-5.777zm-1.362-32.557a4.229 4.229 0 015.778 1.547 4.228 4.228 0 01-1.548 5.778 4.228 4.228 0 01-5.778-1.548 4.228 4.228 0 011.548-5.777zM37.178 50.244a4.229 4.229 0 015.778 1.548 4.229 4.229 0 01-1.548 5.778 4.227 4.227 0 01-5.778-1.548 4.228 4.228 0 011.548-5.778z"/></g></svg>