<svg xmlns="http://www.w3.org/2000/svg" width="2500" height="446" viewBox="0 .04 490.41 87.54"><path d="M96.292 17.033a2489.94 2489.94 0 0134.332-4.986c.007 10.036 0 20.065.007 30.101-11.444.044-22.888.218-34.339.254-.007-8.461-.007-16.915 0-25.37zm-29.027 4.049c8.606-1.328 17.25-2.475 25.893-3.556.007 8.323.007 16.64.014 24.963-8.635-.007-17.271.124-25.907.102zm136.732 1.4c2.264-1.444 5.16 1.568 3.839 3.832-.639 1.662-2.975 2.293-4.296 1.074-1.655-1.125-1.422-4.115.457-4.906zm59.295-.297c1.451-.007 2.903-.007 4.354-.007v40.637h-4.339a59.888 59.888 0 00-.123-4.419c-3.142 5.645-11.546 6.894-16.35 2.707-3.431-2.954-4.477-7.758-4.296-12.105.037-4.412 1.488-9.1 5-11.981 4.565-3.76 12.656-3.541 15.784 1.981-.059-5.609-.008-11.211-.03-16.813m-9.376 16.066c-3.483.552-5.841 3.73-6.494 7.018-.857 3.962-.704 8.547 1.793 11.915 2.7 3.584 8.657 3.665 11.545.276 1.967-2.046 2.525-4.978 2.54-7.721.021-2.896.269-6.161-1.654-8.578-1.7-2.416-4.87-3.505-7.73-2.91zM391.89 23.738c.384-.051 1.154-.16 1.53-.21.022 13.09.009 26.189.009 39.287h-4.296c.028-10.9-.074-21.806.05-32.706-2.736 1.894-5.69 3.512-8.904 4.412.02-1.451.036-2.902.05-4.354 4.21-1.43 8.04-3.737 11.561-6.43zm17.408-.015c3.774-.631 7.962.748 10.204 3.955 3.186 4.5 3.483 10.269 3.643 15.588-.108 5.616-.726 11.704-4.31 16.284-3.302 4.332-10.065 5.348-14.492 2.162-3.592-2.59-5-7.112-5.639-11.298-.725-6.22-.66-12.743 1.502-18.68 1.364-4.027 4.731-7.496 9.092-8.01m-.667 3.896c-3.868 1.568-4.978 6.14-5.515 9.855-.566 5.181-.697 10.522.537 15.623.616 2.512 1.915 5.175 4.404 6.277 2.823 1.422 6.597.197 8.085-2.59 2.373-4.1 2.43-9.02 2.46-13.628-.095-4.492-.276-9.325-2.758-13.23-1.473-2.38-4.644-3.337-7.213-2.307zm-258.675-3.273c1.633.008 3.265.008 4.905.03 2.548 9.201 5.06 18.417 7.613 27.625a38.634 38.634 0 011.19 5.908c2.656-11.299 6.284-22.358 9.332-33.563 1.415.008 2.83.008 4.246.015 2.242 7.975 4.339 15.987 6.56 23.969.82 3.178 1.88 6.313 2.213 9.6 2.402-11.284 5.827-22.344 8.548-33.555 1.611-.021 3.222-.021 4.833-.021-3.512 12.837-7.17 25.638-10.725 38.46h-5.232c-2.577-9.208-5.13-18.425-7.735-27.619-.437-1.487-.618-3.026-.755-4.564-.203 1.328-.392 2.67-.734 3.97-2.634 9.375-5.304 18.735-7.866 28.126-1.741.095-3.483.102-5.225.087-3.737-12.815-7.445-25.645-11.168-38.468zm69.019 15.334c2.49-4.434 8.295-6.473 12.975-4.42 3.723 1.452 5.109 5.762 5.225 9.434.202 6.037.036 12.082.087 18.12-1.451 0-2.903 0-4.354-.007-.066-5.798.152-11.61-.102-17.409-.116-2.873-1.336-6.328-4.462-7.06-4.565-1.38-9.122 2.735-9.268 7.249-.13 5.74-.007 11.487-.05 17.227h-4.355c.008-9.194.008-18.38 0-27.575h4.362c-.007 1.48-.014 2.96-.058 4.44zm65.609-5.123c3.882-.341 8.184.268 11.102 3.076 3.295 3.041 4.275 7.765 4.093 12.083-.05 3.882-1.487 7.823-4.332 10.53-5.936 5.399-16.96 4.216-20.726-3.208-2.96-6.219-2.366-14.825 3.04-19.55 1.939-1.64 4.391-2.387 6.823-2.931m-.784 3.947c-6.394 1.967-7.475 10.32-5.48 15.813 1.59 4.876 7.787 7.039 12.235 4.76 3.012-1.386 4.383-4.782 4.673-7.895.326-3.636.037-7.757-2.532-10.595-2.176-2.453-5.863-2.983-8.896-2.083zm66.813-3.962c2.721-.189 5.493.073 8.056 1.074.71 1.35.16 3.12.326 4.637-3.055-1.908-7.265-3.127-10.58-1.183-2.272 1.234-2.38 4.883-.167 6.241 3.171 2.054 7.199 2.59 10.014 5.232 3.106 2.99 2.351 8.737-1.284 10.98-4.42 2.815-10.24 2.54-14.87.392 0-1.626-.007-3.25-.036-4.877 3.295 2.51 7.925 3.904 11.865 2.12 2.3-1.155 2.417-4.689.392-6.176-3.171-2.337-7.517-2.707-10.334-5.624-2.778-2.802-2.278-7.954.821-10.327 1.602-1.473 3.772-1.916 5.797-2.489zm-147.552.704c1.451-.007 2.903-.007 4.354-.007v27.575h-4.354c0-9.194.007-18.38 0-27.568zm98.532-.007h4.543c1.8 6.567 3.542 13.149 5.377 19.71.37 1.232.508 2.51.639 3.787 2.054-7.909 4.652-15.674 6.981-23.505l3.97.022c1.996 7.838 4.478 15.559 6.131 23.476 1.707-7.874 4.13-15.573 6.024-23.403 1.459-.073 2.918-.095 4.383-.109-2.765 9.195-5.414 18.418-8.193 27.597h-4.514c-1.96-7.474-4.5-14.803-6.088-22.358-1.894 7.547-4.521 14.891-6.684 22.358h-4.361c-2.729-9.194-5.515-18.367-8.208-27.575zM67.265 45.21c8.629-.028 17.257.11 25.885.095 0 8.345.022 16.69.008 25.036-8.621-1.278-17.257-2.395-25.893-3.563zm28.976.334h34.383c.014 10.007 0 20.015 0 30.029-11.43-1.713-22.88-3.302-34.332-4.854-.014-8.39-.036-16.779-.05-25.175z" fill="#00adef"/></svg>