<svg xmlns="http://www.w3.org/2000/svg" id="prefix__layer" width="1080" height="480" x="0" y="0" version="1.1" xml:space="preserve"><style id="style2" type="text/css"/><path id="prefix__path4" fill="#6d6d6f" fill-opacity="1" stroke-width="1.357" d="M940.243 324.623c-3.8 0-6.921-3.122-6.921-6.922s3.121-6.922 6.921-6.922c3.8 0 6.922 3.121 6.922 6.922-.136 3.664-3.257 6.921-6.922 6.921m0-12.486c-3.121 0-5.564 2.443-5.564 5.565 0 3.121 2.443 5.564 5.564 5.564 3.122 0 5.565-2.443 5.565-5.564-.136-3.122-2.579-5.565-5.565-5.565m3.393 9.093h-1.628l-1.357-2.578h-1.765v2.578h-1.493v-7.6h3.665c1.628 0 2.578 1.086 2.578 2.443 0 1.086-.678 1.9-1.628 2.307zm-2.714-3.935c.543 0 1.086-.408 1.086-1.086 0-.95-.407-1.086-1.086-1.086h-2.307v2.307h2.307zM220.104 310.1h17.644v48.181h30.673v15.473h-48.317zm66.64 31.895v-.272c0-18.186 14.793-33.116 34.337-33.116 19.544 0 34.066 14.658 34.066 32.845v.271c0 18.187-14.794 33.117-34.338 33.117s-34.066-14.523-34.066-32.845m50.489 0v-.272c0-9.229-6.515-17.1-16.287-17.1-9.636 0-16.15 7.871-16.15 16.965v.271c0 9.23 6.514 17.101 16.15 17.101 9.908 0 16.287-7.736 16.287-16.965m39.63 3.8V310.1h17.916v35.288c0 9.229 4.614 13.436 11.672 13.436 7.057 0 11.672-4.207 11.672-13.029v-35.83h17.915v35.287c0 20.494-11.672 29.452-29.859 29.452-18.05 0-29.316-8.958-29.316-28.909M462.91 310.1h24.43c22.666 0 35.966 13.03 35.966 31.352v.271c0 18.323-13.436 31.895-36.237 31.895H462.91zm24.837 47.91c10.586 0 17.508-5.836 17.508-16.15v-.272c0-10.18-7.057-16.151-17.508-16.151h-7.193v32.302zm61.21-47.91h50.896v15.473h-33.252v10.857h30.13v14.523h-30.13v22.665h-17.643zm75.326 0h17.508v48.181h30.81v15.473h-48.318zm94.327-.543h16.965l27.144 64.061h-18.865l-4.615-11.265h-24.43l-4.478 11.265h-18.458zm15.608 39.088l-7.058-18.05-7.193 18.05zm51.167-38.545h29.994c9.772 0 16.423 2.443 20.766 6.922 3.8 3.665 5.7 8.55 5.7 14.794v.271c0 9.772-5.157 16.151-13.03 19.544l15.202 22.258h-20.359l-12.757-19.272h-7.737v19.272h-17.643zm29.316 30.402c5.972 0 9.365-2.986 9.365-7.465v-.271c0-5.022-3.665-7.465-9.5-7.465h-11.537v15.201zm52.524-30.402h51.167v14.93h-33.659v9.636h30.538v13.98h-30.538v10.043H918.8v14.929h-51.574zM181.56 349.46c-2.443 5.564-7.736 9.5-14.522 9.5-9.637 0-16.151-8.007-16.151-17.1v-.272c0-9.23 6.514-16.965 16.15-16.965 7.194 0 12.759 4.478 15.066 10.586h18.594c-2.986-15.201-16.287-26.466-33.524-26.466-19.544 0-34.337 14.794-34.337 33.116v.272c0 18.186 14.522 32.844 34.066 32.844 16.83 0 29.859-10.857 33.252-25.38z"/><path id="prefix__path8" fill="#f38020" stroke-width="1.357" d="M809 270.198c2.443-8.143 1.493-15.608-2.443-21.172-3.664-5.158-9.771-8.008-17.1-8.415l-139.522-1.765c-.95 0-1.765-.407-2.172-1.085-.407-.679-.543-1.63-.407-2.443.407-1.358 1.764-2.443 3.257-2.443l140.744-1.765c16.693-.814 34.744-14.25 41.123-30.809l8.008-20.9c.407-.95.407-1.765.271-2.715-9.093-40.988-45.602-71.661-89.44-71.661-40.31 0-74.511 26.058-86.726 62.16-7.872-5.836-18.051-9.093-28.91-8.007-19.407 1.9-34.88 17.508-36.78 36.78-.407 5.022-.135 9.908 1.086 14.387-31.623.95-56.867 26.737-56.867 58.632 0 2.85.271 5.7.542 8.55.272 1.357 1.358 2.443 2.715 2.443h257.464c1.493 0 2.85-1.086 3.257-2.443z"/><path id="prefix__path10" fill="#faae40" stroke-width="1.357" d="M853.381 180.757c-1.221 0-2.578 0-3.8.136-.95 0-1.764.679-2.036 1.629l-5.428 18.865c-2.443 8.143-1.493 15.608 2.443 21.173 3.664 5.157 9.772 8.007 17.1 8.415l29.724 1.764c.95 0 1.764.407 2.171 1.086.407.678.543 1.764.407 2.443-.407 1.357-1.764 2.443-3.257 2.443l-30.945 1.764c-16.83.814-34.744 14.25-41.123 30.809l-2.308 5.836c-.407 1.086.408 2.307 1.63 2.307h106.27c1.22 0 2.442-.814 2.714-2.036 1.764-6.514 2.85-13.436 2.85-20.63-.136-41.802-34.338-76.004-76.412-76.004"/></svg>