<svg xmlns="http://www.w3.org/2000/svg" height="738" viewBox=".75 .625 564.96 166.185" width="2500"><path d="M216.365 63.233c-5.204-.008-9.524 1.059-11.194 1.641l-1.722 9.286c0 .034 8.563-2.284 12.335-2.147 6.242.224 6.822 2.387 6.713 5.306.103.17-1.612-2.638-7.016-2.732-6.822-.117-16.436 2.413-16.423 12.703-.187 11.575 8.64 14.98 14.657 15.038 5.403-.097 7.943-2.044 9.33-3.089 1.824-1.908 3.914-3.823 5.9-6.126-1.883 3.425-3.515 5.791-5.217 7.596v1.535l8.221-1.386.058-22.337c-.083-3.161 1.812-15.259-15.642-15.288zm-1.18 19.448c3.41.046 7.318 1.725 7.318 5.767.02 3.675-4.604 5.652-7.608 5.62-3.005-.03-6.997-2.363-7.016-5.946.058-3.204 3.766-5.524 7.306-5.441zm22.239-17.383l-.058 36.991 9.575-1.844.013-20.973c.006-3.123 4.468-6.772 10.059-6.714 1.192-2.149 3.423-7.641 3.965-8.89-12.502-.03-12.657 3.593-14.837 5.375-.019-3.4-.006-5.441-.006-5.441l-8.71 1.497zm53.872 4.857c-.09-.044-4.99-5.733-14.843-5.777-9.227-.154-19.576 3.424-19.743 18.897.083 13.604 9.942 18.924 19.795 19.027 10.549.11 14.74-6.596 14.991-6.764-1.257-1.09-5.97-5.758-5.97-5.758s-2.94 4.191-8.654 4.244c-5.713.054-10.678-4.415-10.748-10.651-.071-6.236 4.565-9.615 10.793-9.888 5.39 0 8.499 3.48 8.499 3.48zm12.071-17.804l-9.04 2.125.064 48.18 8.905-1.605.103-22.675c.02-2.377 3.437-6.028 9.15-5.912 5.461.056 6.68 3.639 6.667 4.091l.155 26.25 8.782-1.554.032-27.832c.058-2.678-5.867-8.335-15.391-8.375-4.52.008-7.028 1.032-8.305 1.787-2.18 1.686-4.675 3.301-7.125 5.362 2.263-2.91 4.165-4.922 6.022-6.419l-.019-13.422z" fill="#9b9b9b"/><path d="M335.8 53.605l4.114-1.02-.496 48.576-4.179.703zm10.942 14.497l3.618-1.591-.465 34.83-3.481.716zm-.677-12.56L349 53.191l2.367 2.662-2.934 2.414zm11.04 11.926l4.113-.832-.084 7.282c-.006.312 2.367-8.135 13.225-7.947 10.549.058 12.16 8.173 12.077 9.992l-.238 25.604-3.605.774.342-25.288c.051-.74-1.548-6.985-9.001-7.008-7.448-.022-12.69 5.379-12.729 8.83l-.258 22.28-4.178 1.083.335-34.771zm64.885 34.28l-4.114.831.084-7.28c.006-.309-2.366 8.138-13.225 7.951-10.549-.065-12.154-8.176-12.077-9.996l.239-25.605 4.372-.874-.297 25.291c-.006.691.735 7.083 8.189 7.109 7.447.02 12.735-4.462 12.864-11.21l.232-19.955 4.075-1.03zm8.53-34.568l-2.907 2.238 10.82 14.343-11.994 16.575 3.018 2.25 11.277-15.393 11.188 15.754 2.856-2.238-11.993-16.843 9.949-13.622-2.96-2.522-9.072 12.605zM154.646 30.14c-4.77 11.693-7.646 19.342-12.956 30.688 3.255 3.45 7.251 7.469 13.741 12.008-6.977-2.871-11.735-5.754-15.293-8.744-6.795 14.18-17.443 34.38-39.049 73.203 16.983-9.8 30.146-15.849 42.415-18.15a31.151 31.151 0 01-.806-7.274l.02-.548c.27-10.878 5.929-19.244 12.633-18.676 6.705.568 11.915 9.855 11.644 20.733a30.016 30.016 0 01-.684 5.842c12.135 2.372 25.16 8.401 41.912 18.073a5130.224 5130.224 0 01-9.066-16.784c-4.436-3.437-9.06-7.911-18.499-12.754 6.487 1.69 11.13 3.63 14.753 5.803-28.629-53.304-30.946-60.386-40.766-83.417zm305.427 69.477v-3.005h-1.122v-.4h2.702v.4h-1.129v3.005zm2.05 0v-3.405h.677l.806 2.412c.078.225.13.393.161.503.04-.123.104-.304.187-.542l.813-2.373h.606v3.405h-.432v-2.85l-.993 2.85h-.406l-.987-2.902v2.902zm-253.366 28.12v-2.935h-1.096v-.393h2.637v.393h-1.102v2.934zm1.999 0v-3.328h.664l.787 2.36c.077.22.129.38.16.49.04-.123.098-.297.181-.535l.794-2.315h.593v3.327h-.426v-2.785l-.967 2.785h-.393l-.968-2.83v2.83z" fill="#50baec"/></svg>