<svg xmlns="http://www.w3.org/2000/svg" width="720mm" height="297mm" viewBox="0 0 720 297"><path d="M364.242 63.413v169.522L450.3 215.96l.764-135.572z" fill="#fff" stroke="#000" stroke-width=".265"/><path d="M312.363 225.605l-42.39-8.591-1.037-69.095.264-68.596 42.64-8.437 46.153-7.809.084 85.052v85.794l-2.312-.113-43.402-8.205z" fill="#505050"/><path d="M364.242 63.413l3.044.609 83.778 16.366-.764 135.572-83.746 16.43-2.312.545zm50.405 146.738v-18.665l29.738-35.457-29.797-.93.059-22.673-23.216-.22 22.826-24.632.331-23.712-8.956.1-.377 19.943-30.513 35.563 31.323.535-.449 24.082 21.978-.292-21.527 25.975-.28 21.725z" fill="#ef7850"/></svg>