<svg xmlns="http://www.w3.org/2000/svg" viewBox="0 0 500 500"><g id="freepik--background-complete--inject-97"><rect y="382.4" width="500" height="0.25" style="fill:#ebebeb"></rect><rect x="416.78" y="398.49" width="33.12" height="0.25" style="fill:#ebebeb"></rect><rect x="322.53" y="401.21" width="8.69" height="0.25" style="fill:#ebebeb"></rect><rect x="396.59" y="389.21" width="19.19" height="0.25" style="fill:#ebebeb"></rect><rect x="52.46" y="390.89" width="43.19" height="0.25" style="fill:#ebebeb"></rect><rect x="104.56" y="390.89" width="6.33" height="0.25" style="fill:#ebebeb"></rect><rect x="131.47" y="395.11" width="93.68" height="0.25" style="fill:#ebebeb"></rect><path d="M237,337.8H43.91a5.71,5.71,0,0,1-5.7-5.71V60.66A5.71,5.71,0,0,1,43.91,55H237a5.71,5.71,0,0,1,5.71,5.71V332.09A5.71,5.71,0,0,1,237,337.8ZM43.91,55.2a5.46,5.46,0,0,0-5.45,5.46V332.09a5.46,5.46,0,0,0,5.45,5.46H237a5.47,5.47,0,0,0,5.46-5.46V60.66A5.47,5.47,0,0,0,237,55.2Z" style="fill:#ebebeb"></path><path d="M453.31,337.8H260.21a5.72,5.72,0,0,1-5.71-5.71V60.66A5.72,5.72,0,0,1,260.21,55h193.1A5.71,5.71,0,0,1,459,60.66V332.09A5.71,5.71,0,0,1,453.31,337.8ZM260.21,55.2a5.47,5.47,0,0,0-5.46,5.46V332.09a5.47,5.47,0,0,0,5.46,5.46h193.1a5.47,5.47,0,0,0,5.46-5.46V60.66a5.47,5.47,0,0,0-5.46-5.46Z" style="fill:#ebebeb"></path><path d="M500,317V382.4H0V317c14.05,2.31,18.37,7.88,39.27,7.88C65.61,324.86,65.61,316,92,316s26.34,8.85,52.68,8.85S171,316,197.33,316s26.34,8.85,52.68,8.85S276.35,316,302.7,316s26.34,8.85,52.68,8.85S381.72,316,408.06,316s26.35,8.85,52.69,8.85C481.64,324.86,486,319.3,500,317Z" style="fill:#e0e0e0;opacity:0.4"></path><path d="M280.31,167.57H56.11s10.21-18,29.67-18,1.21,10,16.29,10,30.64-32.34,78.54-32.34,8.27,24.32,33.07,24.32S317.88,130,280.31,167.57Z" style="fill:#fafafa"></path><path d="M450.15,196.38H338.05s5.11-9,14.84-9,.6,5,8.14,5,15.32-16.17,39.27-16.17,4.14,12.16,16.54,12.16S468.94,177.59,450.15,196.38Z" style="fill:#fafafa"></path><path d="M230.27,100.26c9.46,0,.59,4.85,7.92,4.85s14.92-15.74,38.23-15.74c22.91,0,5.62,13.39,16.48,13.85h.59c10.88,0,22.11-23.33,56.66-23.33s6,17.54,23.85,17.54S449.17,81.92,422.07,109H215.83S220.8,100.26,230.27,100.26Z" style="fill:#fafafa"></path><path d="M99.56,93a23.64,23.64,0,0,0-4.77-1.35,21.61,21.61,0,0,0-5-.23,21.25,21.25,0,0,0-3.69.63,24.17,24.17,0,0,0-2.76-2.78,22.83,22.83,0,0,0-9-4.68,19.52,19.52,0,0,0-4.77-.71A20,20,0,0,1,74,85.7a22.86,22.86,0,0,1,3.93,2.67,21.53,21.53,0,0,1,5.67,7.46l.91,2,1.73-1.07A18.44,18.44,0,0,1,94.7,94a21,21,0,0,1,4.61.18,19.8,19.8,0,0,1,4.58,1.23A21.06,21.06,0,0,0,99.56,93Z" style="fill:#e0e0e0"></path><path d="M130.65,112.54a18.33,18.33,0,0,0-3.92-.44,16.94,16.94,0,0,0-4,.48,16.4,16.4,0,0,0-2.81,1,19.94,19.94,0,0,0-2.53-1.82,18.88,18.88,0,0,0-3.76-1.71,18.43,18.43,0,0,0-3.89-.8,15.89,15.89,0,0,0-3.84.07,15.68,15.68,0,0,1,3.71.82,17.86,17.86,0,0,1,3.44,1.58,17.37,17.37,0,0,1,5.43,5.12l1,1.42,1.22-1.07A14.68,14.68,0,0,1,127,113.9a17,17,0,0,1,3.65-.46,15.45,15.45,0,0,1,3.75.37A16.69,16.69,0,0,0,130.65,112.54Z" style="fill:#e0e0e0"></path><path d="M413.8,135.65a26.62,26.62,0,0,0-5.24,2,24.17,24.17,0,0,0-4.71,3.26,23.74,23.74,0,0,0-2.9,3.1,26.93,26.93,0,0,0-4.4-.62,26.06,26.06,0,0,0-11.32,1.92,22.85,22.85,0,0,0-4.81,2.64,23.31,23.31,0,0,1,5.23-1.43,25.72,25.72,0,0,1,5.4-.29,24.54,24.54,0,0,1,10.25,2.85l2.16,1.14.83-2.16a21,21,0,0,1,5.75-8.28,23.82,23.82,0,0,1,4.3-3,22.27,22.27,0,0,1,5-2A24,24,0,0,0,413.8,135.65Z" style="fill:#e0e0e0"></path></g><g id="freepik--Shadow--inject-97"><ellipse id="freepik--path--inject-97" cx="250" cy="416.24" rx="193.89" ry="11.32" style="fill:#f5f5f5"></ellipse></g><g id="freepik--container-ship--inject-97"><rect x="138.61" y="259.12" width="44.05" height="22.83" transform="translate(321.27 541.08) rotate(180)" style="fill:#407BFF"></rect><rect x="138.61" y="259.12" width="44.05" height="22.83" transform="translate(321.27 541.08) rotate(180)" style="fill:#fafafa;opacity:0.4"></rect><rect x="127.29" y="259.12" width="11.32" height="22.83" style="fill:#407BFF"></rect><rect x="127.29" y="259.12" width="11.32" height="22.83" style="fill:#fafafa;opacity:0.4"></rect><rect x="127.29" y="259.12" width="11.32" height="22.83" style="opacity:0.2"></rect><rect x="180.8" y="260.05" width="1.11" height="20.97" transform="translate(362.72 541.08) rotate(180)" style="opacity:0.2"></rect><rect x="178.37" y="260.05" width="1.11" height="20.97" transform="translate(357.84 541.08) rotate(180)" style="opacity:0.2"></rect><rect x="175.93" y="260.05" width="1.11" height="20.97" transform="translate(352.97 541.08) rotate(180)" style="opacity:0.2"></rect><rect x="173.49" y="260.05" width="1.11" height="20.97" transform="translate(348.09 541.08) rotate(180)" style="opacity:0.2"></rect><rect x="171.05" y="260.05" width="1.11" height="20.97" transform="translate(343.21 541.08) rotate(180)" style="opacity:0.2"></rect><rect x="168.61" y="260.05" width="1.11" height="20.97" transform="translate(338.34 541.08) rotate(180)" style="opacity:0.2"></rect><rect x="166.18" y="260.05" width="1.11" height="20.97" transform="translate(333.46 541.08) rotate(180)" style="opacity:0.2"></rect><rect x="163.74" y="260.05" width="1.11" height="20.97" transform="translate(328.59 541.08) rotate(180)" style="opacity:0.2"></rect><rect x="161.3" y="260.05" width="1.11" height="20.97" transform="translate(323.71 541.08) rotate(180)" style="opacity:0.2"></rect><rect x="158.86" y="260.05" width="1.11" height="20.97" transform="translate(318.83 541.08) rotate(180)" style="opacity:0.2"></rect><rect x="156.42" y="260.05" width="1.11" height="20.97" transform="translate(313.96 541.08) rotate(180)" style="opacity:0.2"></rect><rect x="153.99" y="260.05" width="1.11" height="20.97" transform="translate(309.08 541.08) rotate(180)" style="opacity:0.2"></rect><rect x="151.55" y="260.05" width="1.11" height="20.97" transform="translate(304.21 541.08) rotate(180)" style="opacity:0.2"></rect><rect x="149.11" y="260.05" width="1.11" height="20.97" transform="translate(299.33 541.08) rotate(180)" style="opacity:0.2"></rect><rect x="146.67" y="260.05" width="1.11" height="20.97" transform="translate(294.45 541.08) rotate(180)" style="opacity:0.2"></rect><rect x="144.23" y="260.05" width="1.11" height="20.97" transform="translate(289.58 541.08) rotate(180)" style="opacity:0.2"></rect><rect x="141.8" y="260.05" width="1.11" height="20.97" transform="translate(284.7 541.08) rotate(180)" style="opacity:0.2"></rect><rect x="139.36" y="260.05" width="1.11" height="20.97" transform="translate(279.82 541.08) rotate(180)" style="opacity:0.2"></rect><rect x="86.42" y="259.12" width="44.05" height="22.83" transform="translate(216.9 541.08) rotate(180)" style="fill:#407BFF"></rect><rect x="75.11" y="259.12" width="11.32" height="22.83" style="fill:#407BFF"></rect><rect x="75.11" y="259.12" width="11.32" height="22.83" style="opacity:0.2"></rect><rect x="128.62" y="260.05" width="1.11" height="20.97" transform="translate(258.35 541.08) rotate(180)" style="opacity:0.2"></rect><rect x="126.18" y="260.05" width="1.11" height="20.97" transform="translate(253.47 541.08) rotate(180)" style="opacity:0.2"></rect><rect x="123.74" y="260.05" width="1.11" height="20.97" transform="translate(248.6 541.08) rotate(180)" style="opacity:0.2"></rect><rect x="121.31" y="260.05" width="1.11" height="20.97" transform="translate(243.72 541.08) rotate(180)" style="opacity:0.2"></rect><rect x="118.87" y="260.05" width="1.11" height="20.97" transform="translate(238.85 541.08) rotate(180)" style="opacity:0.2"></rect><rect x="116.43" y="260.05" width="1.11" height="20.97" transform="translate(233.97 541.08) rotate(180)" style="opacity:0.2"></rect><rect x="113.99" y="260.05" width="1.11" height="20.97" transform="translate(229.09 541.08) rotate(180)" style="opacity:0.2"></rect><rect x="111.55" y="260.05" width="1.11" height="20.97" transform="translate(224.22 541.08) rotate(180)" style="opacity:0.2"></rect><rect x="109.12" y="260.05" width="1.11" height="20.97" transform="translate(219.34 541.08) rotate(180)" style="opacity:0.2"></rect><rect x="106.68" y="260.05" width="1.11" height="20.97" transform="translate(214.46 541.08) rotate(180)" style="opacity:0.2"></rect><rect x="104.24" y="260.05" width="1.11" height="20.97" transform="translate(209.59 541.08) rotate(180)" style="opacity:0.2"></rect><rect x="101.8" y="260.05" width="1.11" height="20.97" transform="translate(204.71 541.08) rotate(180)" style="opacity:0.2"></rect><rect x="99.36" y="260.05" width="1.11" height="20.97" transform="translate(199.84 541.08) rotate(180)" style="opacity:0.2"></rect><rect x="96.93" y="260.05" width="1.11" height="20.97" transform="translate(194.96 541.08) rotate(180)" style="opacity:0.2"></rect><rect x="94.49" y="260.05" width="1.11" height="20.97" transform="translate(190.08 541.08) rotate(180)" style="opacity:0.2"></rect><rect x="92.05" y="260.05" width="1.11" height="20.97" transform="translate(185.21 541.08) rotate(180)" style="opacity:0.2"></rect><rect x="89.61" y="260.05" width="1.11" height="20.97" transform="translate(180.33 541.08) rotate(180)" style="opacity:0.2"></rect><rect x="87.17" y="260.05" width="1.11" height="20.97" transform="translate(175.46 541.08) rotate(180)" style="opacity:0.2"></rect><rect x="131.41" y="281.95" width="44.05" height="22.83" transform="translate(306.88 586.73) rotate(180)" style="fill:#407BFF"></rect><rect x="120.1" y="281.95" width="11.32" height="22.83" style="fill:#407BFF"></rect><rect x="120.1" y="281.95" width="11.32" height="22.83" style="opacity:0.2"></rect><rect x="173.61" y="282.88" width="1.11" height="20.97" transform="translate(348.33 586.73) rotate(180)" style="opacity:0.2"></rect><rect x="171.17" y="282.88" width="1.11" height="20.97" transform="translate(343.45 586.73) rotate(180)" style="opacity:0.2"></rect><rect x="168.73" y="282.88" width="1.11" height="20.97" transform="translate(338.57 586.73) rotate(180)" style="opacity:0.2"></rect><rect x="166.29" y="282.88" width="1.11" height="20.97" transform="translate(333.7 586.73) rotate(180)" style="opacity:0.2"></rect><rect x="163.86" y="282.88" width="1.11" height="20.97" transform="translate(328.82 586.73) rotate(180)" style="opacity:0.2"></rect><rect x="161.42" y="282.88" width="1.11" height="20.97" transform="translate(323.95 586.73) rotate(180)" style="opacity:0.2"></rect><rect x="158.98" y="282.88" width="1.11" height="20.97" transform="translate(319.07 586.73) rotate(180)" style="opacity:0.2"></rect><rect x="156.54" y="282.88" width="1.11" height="20.97" transform="translate(314.19 586.73) rotate(180)" style="opacity:0.2"></rect><rect x="154.1" y="282.88" width="1.11" height="20.97" transform="translate(309.32 586.73) rotate(180)" style="opacity:0.2"></rect><rect x="151.67" y="282.88" width="1.11" height="20.97" transform="translate(304.44 586.73) rotate(180)" style="opacity:0.2"></rect><rect x="149.23" y="282.88" width="1.11" height="20.97" transform="translate(299.57 586.73) rotate(180)" style="opacity:0.2"></rect><rect x="146.79" y="282.88" width="1.11" height="20.97" transform="translate(294.69 586.73) rotate(180)" style="opacity:0.2"></rect><rect x="144.35" y="282.88" width="1.11" height="20.97" transform="translate(289.81 586.73) rotate(180)" style="opacity:0.2"></rect><rect x="141.91" y="282.88" width="1.11" height="20.97" transform="translate(284.94 586.73) rotate(180)" style="opacity:0.2"></rect><rect x="139.48" y="282.88" width="1.11" height="20.97" transform="translate(280.06 586.73) rotate(180)" style="opacity:0.2"></rect><rect x="137.04" y="282.88" width="1.11" height="20.97" transform="translate(275.18 586.73) rotate(180)" style="opacity:0.2"></rect><rect x="134.6" y="282.88" width="1.11" height="20.97" transform="translate(270.31 586.73) rotate(180)" style="opacity:0.2"></rect><rect x="132.16" y="282.88" width="1.11" height="20.97" transform="translate(265.43 586.73) rotate(180)" style="opacity:0.2"></rect><rect x="82.45" y="281.95" width="44.05" height="22.83" transform="translate(208.96 586.73) rotate(180)" style="fill:#407BFF"></rect><rect x="82.45" y="281.95" width="44.05" height="22.83" transform="translate(208.96 586.73) rotate(180)" style="fill:#fafafa;opacity:0.4"></rect><rect x="71.14" y="281.95" width="11.32" height="22.83" style="fill:#407BFF"></rect><rect x="71.14" y="281.95" width="11.32" height="22.83" style="fill:#fafafa;opacity:0.4"></rect><rect x="71.14" y="281.95" width="11.32" height="22.83" style="opacity:0.2"></rect><rect x="124.65" y="282.88" width="1.11" height="20.97" transform="translate(250.41 586.73) rotate(180)" style="opacity:0.2"></rect><rect x="122.21" y="282.88" width="1.11" height="20.97" transform="translate(245.53 586.73) rotate(180)" style="opacity:0.2"></rect><rect x="119.77" y="282.88" width="1.11" height="20.97" transform="translate(240.65 586.73) rotate(180)" style="opacity:0.2"></rect><rect x="117.33" y="282.88" width="1.11" height="20.97" transform="translate(235.78 586.73) rotate(180)" style="opacity:0.2"></rect><rect x="114.9" y="282.88" width="1.11" height="20.97" transform="translate(230.9 586.73) rotate(180)" style="opacity:0.2"></rect><rect x="112.46" y="282.88" width="1.11" height="20.97" transform="translate(226.03 586.73) rotate(180)" style="opacity:0.2"></rect><rect x="110.02" y="282.88" width="1.11" height="20.97" transform="translate(221.15 586.73) rotate(180)" style="opacity:0.2"></rect><rect x="107.58" y="282.88" width="1.11" height="20.97" transform="translate(216.27 586.73) rotate(180)" style="opacity:0.2"></rect><rect x="105.14" y="282.88" width="1.11" height="20.97" transform="translate(211.4 586.73) rotate(180)" style="opacity:0.2"></rect><rect x="102.71" y="282.88" width="1.11" height="20.97" transform="translate(206.52 586.73) rotate(180)" style="opacity:0.2"></rect><rect x="100.27" y="282.88" width="1.11" height="20.97" transform="translate(201.65 586.73) rotate(180)" style="opacity:0.2"></rect><rect x="97.83" y="282.88" width="1.11" height="20.97" transform="translate(196.77 586.73) rotate(180)" style="opacity:0.2"></rect><rect x="95.39" y="282.88" width="1.11" height="20.97" transform="translate(191.89 586.73) rotate(180)" style="opacity:0.2"></rect><rect x="92.95" y="282.88" width="1.11" height="20.97" transform="translate(187.02 586.73) rotate(180)" style="opacity:0.2"></rect><rect x="90.52" y="282.88" width="1.11" height="20.97" transform="translate(182.14 586.73) rotate(180)" style="opacity:0.2"></rect><rect x="88.08" y="282.88" width="1.11" height="20.97" transform="translate(177.26 586.73) rotate(180)" style="opacity:0.2"></rect><rect x="85.64" y="282.88" width="1.11" height="20.97" transform="translate(172.39 586.73) rotate(180)" style="opacity:0.2"></rect><rect x="83.2" y="282.88" width="1.11" height="20.97" transform="translate(167.51 586.73) rotate(180)" style="opacity:0.2"></rect><rect x="165.95" y="178.4" width="20.66" height="32.08" style="fill:#407BFF"></rect><rect x="165.95" y="181.66" width="20.66" height="3.31" style="fill:#fff"></rect><rect x="165.95" y="188.79" width="20.66" height="2.55" style="fill:#fff"></rect><rect x="126.89" y="178.4" width="20.66" height="32.08" style="fill:#407BFF"></rect><rect x="126.89" y="181.66" width="20.66" height="3.31" style="fill:#fff"></rect><rect x="126.89" y="188.79" width="20.66" height="2.55" style="fill:#fff"></rect><rect x="104.97" y="223.99" width="26.18" height="80.79" style="fill:#e0e0e0"></rect><rect x="107.88" y="235.02" width="17.73" height="1.74" style="fill:#fff;opacity:0.7000000000000001"></rect><rect x="107.88" y="241.77" width="17.73" height="1.74" style="fill:#fff;opacity:0.7000000000000001"></rect><rect x="107.88" y="248.51" width="17.73" height="1.74" style="fill:#fff;opacity:0.7000000000000001"></rect><rect x="107.88" y="255.25" width="17.73" height="1.74" style="fill:#fff;opacity:0.7000000000000001"></rect><rect x="107.88" y="261.99" width="17.73" height="1.74" style="fill:#fff;opacity:0.7000000000000001"></rect><rect x="107.88" y="268.74" width="17.73" height="1.74" style="fill:#fff;opacity:0.7000000000000001"></rect><rect x="107.88" y="275.48" width="17.73" height="1.74" style="fill:#fff;opacity:0.7000000000000001"></rect><rect x="107.88" y="282.22" width="17.73" height="1.74" style="fill:#fff;opacity:0.7000000000000001"></rect><rect x="131.15" y="223.99" width="72.11" height="80.79" transform="translate(334.41 528.76) rotate(180)" style="fill:#fafafa"></rect><g style="opacity:0.8"><rect x="139.08" y="232.87" width="0.96" height="4" style="opacity:0.2"></rect><rect x="152.9" y="232.87" width="0.96" height="4" style="opacity:0.2"></rect><rect x="166.72" y="232.87" width="0.96" height="4" style="opacity:0.2"></rect><rect x="180.54" y="232.87" width="0.96" height="4" style="opacity:0.2"></rect><rect x="194.36" y="232.87" width="0.96" height="4" style="opacity:0.2"></rect><rect x="139.08" y="245.53" width="0.96" height="4" style="opacity:0.2"></rect><rect x="152.9" y="245.53" width="0.96" height="4" style="opacity:0.2"></rect><rect x="166.72" y="245.53" width="0.96" height="4" style="opacity:0.2"></rect><rect x="180.54" y="245.53" width="0.96" height="4" style="opacity:0.2"></rect><rect x="194.36" y="245.53" width="0.96" height="4" style="opacity:0.2"></rect><rect x="139.08" y="258.18" width="0.96" height="4" style="opacity:0.2"></rect><rect x="152.9" y="258.18" width="0.96" height="4" style="opacity:0.2"></rect><rect x="166.72" y="258.18" width="0.96" height="4" style="opacity:0.2"></rect><rect x="180.54" y="258.18" width="0.96" height="4" style="opacity:0.2"></rect><rect x="194.36" y="258.18" width="0.96" height="4" style="opacity:0.2"></rect><rect x="139.08" y="270.84" width="0.96" height="4" style="opacity:0.2"></rect><rect x="152.9" y="270.84" width="0.96" height="4" style="opacity:0.2"></rect><rect x="166.72" y="270.84" width="0.96" height="4" style="opacity:0.2"></rect><rect x="180.54" y="270.84" width="0.96" height="4" style="opacity:0.2"></rect><rect x="194.36" y="270.84" width="0.96" height="4" style="opacity:0.2"></rect><rect x="139.08" y="283.49" width="0.96" height="4" style="opacity:0.2"></rect><rect x="152.9" y="283.49" width="0.96" height="4" style="opacity:0.2"></rect><rect x="166.72" y="283.49" width="0.96" height="4" style="opacity:0.2"></rect><rect x="180.54" y="283.49" width="0.96" height="4" style="opacity:0.2"></rect><rect x="194.36" y="283.49" width="0.96" height="4" style="opacity:0.2"></rect><rect x="139.08" y="296.15" width="0.96" height="4" style="opacity:0.2"></rect><rect x="152.9" y="296.15" width="0.96" height="4" style="opacity:0.2"></rect><rect x="166.72" y="296.15" width="0.96" height="4" style="opacity:0.2"></rect><rect x="180.54" y="296.15" width="0.96" height="4" style="opacity:0.2"></rect><rect x="194.36" y="296.15" width="0.96" height="4" style="opacity:0.2"></rect></g><rect x="113.57" y="205.88" width="21.6" height="18.1" style="fill:#e0e0e0"></rect><rect x="135.17" y="205.88" width="59.48" height="18.1" transform="translate(329.82 429.87) rotate(180)" style="fill:#fafafa"></rect><rect x="113.57" y="205.88" width="81.08" height="3.62" transform="translate(308.23 415.39) rotate(180)" style="opacity:0.1;mix-blend-mode:multiply"></rect><rect x="139.26" y="212.38" width="3.27" height="3.27" style="opacity:0.2"></rect><rect x="144.06" y="212.38" width="3.27" height="3.27" style="opacity:0.2"></rect><rect x="148.87" y="212.38" width="3.27" height="3.27" style="opacity:0.2"></rect><rect x="153.67" y="212.38" width="3.27" height="3.27" style="opacity:0.2"></rect><rect x="158.47" y="212.38" width="3.27" height="3.27" style="opacity:0.2"></rect><rect x="163.27" y="212.38" width="3.27" height="3.27" style="opacity:0.2"></rect><rect x="168.08" y="212.38" width="3.27" height="3.27" style="opacity:0.2"></rect><rect x="172.88" y="212.38" width="3.27" height="3.27" style="opacity:0.2"></rect><rect x="177.68" y="212.38" width="3.27" height="3.27" style="opacity:0.2"></rect><rect x="182.48" y="212.38" width="3.27" height="3.27" style="opacity:0.2"></rect><rect x="187.29" y="212.38" width="3.27" height="3.27" style="opacity:0.2"></rect><rect x="139.26" y="217.13" width="3.27" height="3.27" style="opacity:0.2"></rect><rect x="144.06" y="217.13" width="3.27" height="3.27" style="opacity:0.2"></rect><rect x="148.87" y="217.13" width="3.27" height="3.27" style="opacity:0.2"></rect><rect x="153.67" y="217.13" width="3.27" height="3.27" style="opacity:0.2"></rect><rect x="158.47" y="217.13" width="3.27" height="3.27" style="opacity:0.2"></rect><rect x="163.27" y="217.13" width="3.27" height="3.27" style="opacity:0.2"></rect><rect x="168.08" y="217.13" width="3.27" height="3.27" style="opacity:0.2"></rect><rect x="172.88" y="217.13" width="3.27" height="3.27" style="opacity:0.2"></rect><rect x="177.68" y="217.13" width="3.27" height="3.27" style="opacity:0.2"></rect><rect x="182.48" y="217.13" width="3.27" height="3.27" style="opacity:0.2"></rect><rect x="187.29" y="217.13" width="3.27" height="3.27" style="opacity:0.2"></rect><polygon points="131.62 195.8 101.54 195.8 105.98 205.88 131.62 205.88 131.62 195.8" style="fill:#e0e0e0"></polygon><polygon points="131.62 195.8 206.68 195.8 202.24 205.88 131.62 205.88 131.62 195.8" style="fill:#fafafa"></polygon><rect x="267.16" y="281.95" width="58.91" height="22.83" transform="translate(593.22 586.73) rotate(180)" style="fill:#407BFF"></rect><rect x="267.16" y="281.95" width="58.91" height="22.83" transform="translate(593.22 586.73) rotate(180)" style="fill:#fafafa;opacity:0.4"></rect><rect x="252.02" y="281.95" width="15.13" height="22.83" style="fill:#407BFF"></rect><rect x="252.02" y="281.95" width="15.13" height="22.83" style="fill:#fafafa;opacity:0.4"></rect><rect x="252.02" y="281.95" width="15.13" height="22.83" style="opacity:0.2"></rect><rect x="323.58" y="282.88" width="1.48" height="20.97" transform="translate(648.64 586.73) rotate(180)" style="opacity:0.2"></rect><rect x="320.32" y="282.88" width="1.48" height="20.97" transform="translate(642.12 586.73) rotate(180)" style="opacity:0.2"></rect><rect x="317.06" y="282.88" width="1.48" height="20.97" transform="translate(635.6 586.73) rotate(180)" style="opacity:0.2"></rect><rect x="313.8" y="282.88" width="1.48" height="20.97" transform="translate(629.08 586.73) rotate(180)" style="opacity:0.2"></rect><rect x="310.54" y="282.88" width="1.48" height="20.97" transform="translate(622.56 586.73) rotate(180)" style="opacity:0.2"></rect><rect x="307.28" y="282.88" width="1.48" height="20.97" transform="translate(616.04 586.73) rotate(180)" style="opacity:0.2"></rect><rect x="304.02" y="282.88" width="1.48" height="20.97" transform="translate(609.52 586.73) rotate(180)" style="opacity:0.2"></rect><rect x="300.76" y="282.88" width="1.48" height="20.97" transform="translate(603 586.73) rotate(180)" style="opacity:0.2"></rect><rect x="297.5" y="282.88" width="1.48" height="20.97" transform="translate(596.48 586.73) rotate(180)" style="opacity:0.2"></rect><rect x="294.24" y="282.88" width="1.48" height="20.97" transform="translate(589.96 586.73) rotate(180)" style="opacity:0.2"></rect><rect x="290.98" y="282.88" width="1.48" height="20.97" transform="translate(583.44 586.73) rotate(180)" style="opacity:0.2"></rect><rect x="287.72" y="282.88" width="1.48" height="20.97" transform="translate(576.92 586.73) rotate(180)" style="opacity:0.2"></rect><rect x="284.46" y="282.88" width="1.48" height="20.97" transform="translate(570.4 586.73) rotate(180)" style="opacity:0.2"></rect><rect x="281.2" y="282.88" width="1.48" height="20.97" transform="translate(563.88 586.73) rotate(180)" style="opacity:0.2"></rect><rect x="277.94" y="282.88" width="1.48" height="20.97" transform="translate(557.36 586.73) rotate(180)" style="opacity:0.2"></rect><rect x="274.68" y="282.88" width="1.48" height="20.97" transform="translate(550.84 586.73) rotate(180)" style="opacity:0.2"></rect><rect x="271.42" y="282.88" width="1.48" height="20.97" transform="translate(544.32 586.73) rotate(180)" style="opacity:0.2"></rect><rect x="268.16" y="282.88" width="1.48" height="20.97" transform="translate(537.8 586.73) rotate(180)" style="opacity:0.2"></rect><rect x="197.38" y="281.95" width="58.91" height="22.83" transform="translate(453.66 586.73) rotate(180)" style="fill:#407BFF"></rect><rect x="182.24" y="281.95" width="15.13" height="22.83" style="fill:#407BFF"></rect><rect x="182.24" y="281.95" width="15.13" height="22.83" style="opacity:0.2"></rect><rect x="253.8" y="282.88" width="1.48" height="20.97" transform="translate(509.08 586.73) rotate(180)" style="opacity:0.2"></rect><rect x="250.54" y="282.88" width="1.48" height="20.97" transform="translate(502.56 586.73) rotate(180)" style="opacity:0.2"></rect><rect x="247.28" y="282.88" width="1.48" height="20.97" transform="translate(496.04 586.73) rotate(180)" style="opacity:0.2"></rect><rect x="244.02" y="282.88" width="1.48" height="20.97" transform="translate(489.52 586.73) rotate(180)" style="opacity:0.2"></rect><rect x="240.76" y="282.88" width="1.48" height="20.97" transform="translate(483 586.73) rotate(180)" style="opacity:0.2"></rect><rect x="237.5" y="282.88" width="1.48" height="20.97" transform="translate(476.48 586.73) rotate(180)" style="opacity:0.2"></rect><rect x="234.24" y="282.88" width="1.48" height="20.97" transform="translate(469.96 586.73) rotate(180)" style="opacity:0.2"></rect><rect x="230.98" y="282.88" width="1.48" height="20.97" transform="translate(463.44 586.73) rotate(180)" style="opacity:0.2"></rect><rect x="227.72" y="282.88" width="1.48" height="20.97" transform="translate(456.92 586.73) rotate(180)" style="opacity:0.2"></rect><rect x="224.46" y="282.88" width="1.48" height="20.97" transform="translate(450.4 586.73) rotate(180)" style="opacity:0.2"></rect><rect x="221.2" y="282.88" width="1.48" height="20.97" transform="translate(443.88 586.73) rotate(180)" style="opacity:0.2"></rect><rect x="217.94" y="282.88" width="1.48" height="20.97" transform="translate(437.36 586.73) rotate(180)" style="opacity:0.2"></rect><rect x="214.68" y="282.88" width="1.48" height="20.97" transform="translate(430.84 586.73) rotate(180)" style="opacity:0.2"></rect><rect x="211.42" y="282.88" width="1.48" height="20.97" transform="translate(424.32 586.73) rotate(180)" style="opacity:0.2"></rect><rect x="208.16" y="282.88" width="1.48" height="20.97" transform="translate(417.8 586.73) rotate(180)" style="opacity:0.2"></rect><rect x="204.9" y="282.88" width="1.48" height="20.97" transform="translate(411.28 586.73) rotate(180)" style="opacity:0.2"></rect><rect x="201.64" y="282.88" width="1.48" height="20.97" transform="translate(404.76 586.73) rotate(180)" style="opacity:0.2"></rect><rect x="198.38" y="282.88" width="1.48" height="20.97" transform="translate(398.24 586.73) rotate(180)" style="opacity:0.2"></rect><rect x="257.53" y="259.12" width="58.91" height="22.83" transform="translate(573.98 541.08) rotate(180)" style="fill:#407BFF"></rect><rect x="242.4" y="259.12" width="15.13" height="22.83" style="fill:#407BFF"></rect><rect x="242.4" y="259.12" width="15.13" height="22.83" style="opacity:0.2"></rect><rect x="313.96" y="260.05" width="1.48" height="20.97" transform="translate(629.4 541.08) rotate(180)" style="opacity:0.2"></rect><rect x="310.7" y="260.05" width="1.48" height="20.97" transform="translate(622.88 541.08) rotate(180)" style="opacity:0.2"></rect><rect x="307.44" y="260.05" width="1.48" height="20.97" transform="translate(616.36 541.08) rotate(180)" style="opacity:0.2"></rect><rect x="304.18" y="260.05" width="1.48" height="20.97" transform="translate(609.84 541.08) rotate(180)" style="opacity:0.2"></rect><rect x="300.92" y="260.05" width="1.48" height="20.97" transform="translate(603.32 541.08) rotate(180)" style="opacity:0.2"></rect><rect x="297.66" y="260.05" width="1.48" height="20.97" transform="translate(596.8 541.08) rotate(180)" style="opacity:0.2"></rect><rect x="294.4" y="260.05" width="1.48" height="20.97" transform="translate(590.28 541.08) rotate(180)" style="opacity:0.2"></rect><rect x="291.14" y="260.05" width="1.48" height="20.97" transform="translate(583.76 541.08) rotate(180)" style="opacity:0.2"></rect><rect x="287.88" y="260.05" width="1.48" height="20.97" transform="translate(577.24 541.08) rotate(180)" style="opacity:0.2"></rect><rect x="284.62" y="260.05" width="1.48" height="20.97" transform="translate(570.72 541.08) rotate(180)" style="opacity:0.2"></rect><rect x="281.36" y="260.05" width="1.48" height="20.97" transform="translate(564.2 541.08) rotate(180)" style="opacity:0.2"></rect><rect x="278.1" y="260.05" width="1.48" height="20.97" transform="translate(557.68 541.08) rotate(180)" style="opacity:0.2"></rect><rect x="274.84" y="260.05" width="1.48" height="20.97" transform="translate(551.15 541.08) rotate(180)" style="opacity:0.2"></rect><rect x="271.58" y="260.05" width="1.48" height="20.97" transform="translate(544.63 541.08) rotate(180)" style="opacity:0.2"></rect><rect x="268.32" y="260.05" width="1.48" height="20.97" transform="translate(538.11 541.08) rotate(180)" style="opacity:0.2"></rect><rect x="265.06" y="260.05" width="1.48" height="20.97" transform="translate(531.59 541.08) rotate(180)" style="opacity:0.2"></rect><rect x="261.8" y="260.05" width="1.48" height="20.97" transform="translate(525.07 541.08) rotate(180)" style="opacity:0.2"></rect><rect x="258.54" y="260.05" width="1.48" height="20.97" transform="translate(518.55 541.08) rotate(180)" style="opacity:0.2"></rect><rect x="192.07" y="259.12" width="58.91" height="22.83" transform="translate(443.04 541.08) rotate(180)" style="fill:#407BFF"></rect><rect x="192.07" y="259.12" width="58.91" height="22.83" transform="translate(443.04 541.08) rotate(180)" style="fill:#fafafa;opacity:0.4"></rect><rect x="176.93" y="259.12" width="15.13" height="22.83" style="fill:#407BFF"></rect><rect x="176.93" y="259.12" width="15.13" height="22.83" style="fill:#fafafa;opacity:0.4"></rect><rect x="176.93" y="259.12" width="15.13" height="22.83" style="opacity:0.2"></rect><rect x="248.49" y="260.05" width="1.48" height="20.97" transform="translate(498.46 541.08) rotate(180)" style="opacity:0.2"></rect><rect x="245.23" y="260.05" width="1.48" height="20.97" transform="translate(491.94 541.08) rotate(180)" style="opacity:0.2"></rect><rect x="241.97" y="260.05" width="1.48" height="20.97" transform="translate(485.42 541.08) rotate(180)" style="opacity:0.2"></rect><rect x="238.71" y="260.05" width="1.48" height="20.97" transform="translate(478.9 541.08) rotate(180)" style="opacity:0.2"></rect><rect x="235.45" y="260.05" width="1.48" height="20.97" transform="translate(472.38 541.08) rotate(180)" style="opacity:0.2"></rect><rect x="232.19" y="260.05" width="1.48" height="20.97" transform="translate(465.86 541.08) rotate(180)" style="opacity:0.2"></rect><rect x="228.93" y="260.05" width="1.48" height="20.97" transform="translate(459.34 541.08) rotate(180)" style="opacity:0.2"></rect><rect x="225.67" y="260.05" width="1.48" height="20.97" transform="translate(452.82 541.08) rotate(180)" style="opacity:0.2"></rect><rect x="222.41" y="260.05" width="1.48" height="20.97" transform="translate(446.3 541.08) rotate(180)" style="opacity:0.2"></rect><rect x="219.15" y="260.05" width="1.48" height="20.97" transform="translate(439.78 541.08) rotate(180)" style="opacity:0.2"></rect><rect x="215.89" y="260.05" width="1.48" height="20.97" transform="translate(433.26 541.08) rotate(180)" style="opacity:0.2"></rect><rect x="212.63" y="260.05" width="1.48" height="20.97" transform="translate(426.74 541.08) rotate(180)" style="opacity:0.2"></rect><rect x="209.37" y="260.05" width="1.48" height="20.97" transform="translate(420.22 541.08) rotate(180)" style="opacity:0.2"></rect><rect x="206.11" y="260.05" width="1.48" height="20.97" transform="translate(413.7 541.08) rotate(180)" style="opacity:0.2"></rect><rect x="202.85" y="260.05" width="1.48" height="20.97" transform="translate(407.18 541.08) rotate(180)" style="opacity:0.2"></rect><rect x="199.59" y="260.05" width="1.48" height="20.97" transform="translate(400.66 541.08) rotate(180)" style="opacity:0.2"></rect><rect x="196.33" y="260.05" width="1.48" height="20.97" transform="translate(394.14 541.08) rotate(180)" style="opacity:0.2"></rect><rect x="193.07" y="260.05" width="1.48" height="20.97" transform="translate(387.62 541.08) rotate(180)" style="opacity:0.2"></rect><path d="M248.07,287.13H79.84a.87.87,0,0,0-1,.74v17.39a.83.83,0,0,0,1.6,0V288.37H97.6v16.89a.83.83,0,0,0,1.6,0V288.37h17.11v16.89a.83.83,0,0,0,1.6,0V288.37H135v16.89a.83.83,0,0,0,1.6,0V288.37h17.1v16.89a.83.83,0,0,0,1.61,0V288.37h17.1v16.89a.83.83,0,0,0,1.6,0V288.37h17.11v16.89a.83.83,0,0,0,1.6,0V288.37h17.11v16.89a.83.83,0,0,0,1.6,0V288.37h17.11v16.89a.83.83,0,0,0,1.6,0V288.37h17.1v16.89a.83.83,0,0,0,1.6,0V287.75A.73.73,0,0,0,248.07,287.13Z" style="fill:#407BFF"></path><path d="M248.07,287.13H79.84a.87.87,0,0,0-1,.74v17.39a.83.83,0,0,0,1.6,0V288.37H97.6v16.89a.83.83,0,0,0,1.6,0V288.37h17.11v16.89a.83.83,0,0,0,1.6,0V288.37H135v16.89a.83.83,0,0,0,1.6,0V288.37h17.1v16.89a.83.83,0,0,0,1.61,0V288.37h17.1v16.89a.83.83,0,0,0,1.6,0V288.37h17.11v16.89a.83.83,0,0,0,1.6,0V288.37h17.11v16.89a.83.83,0,0,0,1.6,0V288.37h17.11v16.89a.83.83,0,0,0,1.6,0V288.37h17.1v16.89a.83.83,0,0,0,1.6,0V287.75A.73.73,0,0,0,248.07,287.13Z" style="fill:#fafafa;opacity:0.6000000000000001"></path><path d="M284.8,304.78a14.6,14.6,0,0,0,9.28-3.33l31.12-25.63a14.6,14.6,0,0,1,9.29-3.33h133a2.73,2.73,0,0,1,2.68,3.18c-4.05,24.78-11.61,41.09-20.37,55.41-1.37,2.25-2.77,4.45-4.19,6.63l-1.41,2.13c-1.48,2.22-3,4.42-4.46,6.63a299.47,299.47,0,0,0-16.3,26h0a170.91,170.91,0,0,0-12.76,30.15A19.59,19.59,0,0,1,392,416.24H96.71a19.55,19.55,0,0,1-19.18-15.71l-5.64-28.11h0l-5.2-25.95-1.33-6.63-.43-2.13-1.32-6.63L59,308a2.72,2.72,0,0,1,2.66-3.25ZM427,283.69a3,3,0,0,0,2.15.9h25.36a3.06,3.06,0,0,0,0-6.12H429.1a3.07,3.07,0,0,0-3.06,3.06A3,3,0,0,0,427,283.69Zm-53.67-4.32a3.06,3.06,0,0,0-2.16-.9H345.76a3.05,3.05,0,0,0-2.16,5.22,3,3,0,0,0,2.16.9h25.36a3.05,3.05,0,0,0,2.16-5.22Zm41.67,0a3,3,0,0,0-2.16-.9H387.43a3.05,3.05,0,0,0-2.16,5.22,3,3,0,0,0,2.16.9h25.36a3.05,3.05,0,0,0,2.16-5.22Z" style="fill:#407BFF"></path><path d="M64.93,337.71l.43,2.13,1.33,6.63H439.75c1.5-2.21,3-4.41,4.46-6.63l1.41-2.13Z" style="opacity:0.30000000000000004"></path><rect x="290.86" y="316.33" width="56.17" height="13.91" rx="6.95" transform="translate(637.89 646.57) rotate(-180)" style="opacity:0.30000000000000004"></rect><rect x="221.61" y="316.33" width="56.17" height="13.91" rx="6.95" transform="translate(499.38 646.57) rotate(-180)" style="opacity:0.30000000000000004"></rect><rect x="360.11" y="316.33" width="56.17" height="13.91" rx="6.95" transform="translate(776.39 646.57) rotate(-180)" style="opacity:0.30000000000000004"></rect><path d="M410.69,402.58A19.59,19.59,0,0,1,392,416.24H96.71a19.55,19.55,0,0,1-19.18-15.71l-5.64-28.11H423.45A171.35,171.35,0,0,0,410.69,402.58Z" style="opacity:0.30000000000000004"></path></g></svg>