<svg xmlns="http://www.w3.org/2000/svg" width="720" height="361"><path d="M232.406 135.466s5.116 8.526 8.956 17.712c.903 2.159 3.644 2.818 5.374 1.243 4.796-4.364 13.041-13.2 17.198-25.412z" fill="#dcb491"/><path d="M494.022 103.609c-1.025-1.49-3.458-.74-3.356 1.065.247 4.345-.813 9.805-6.036 14.268-9.125 7.798-5.033 19.183-5.033 19.183l5.508 6.458s27.862-13.455 8.917-40.974z" fill="#ebc9a0"/><path d="M484.25 214.476c-3.419-18.233 7.027-31.244 7.027-50.996 0-20.512-12.255-33.808-31.337-40.17-30.769-10.255-115.096 0-142.446-17.092-5.279-3.3-10.768-11.847-16.145-19.733-3.382-4.96-7.845-9.197-13.273-11.76-12.705-5.998-27.146-3.114-36.605 6.22-13.29 13.114-25.047 28.148-30.263 35.078a9.09 9.09 0 00-1.36 8.36l2.494 7.481c1.27 3.808 4.862 6.359 8.875 6.232 9.777-.31 27.99-1.942 40.428-9.251 9.725 18.505 16.045 64.708 52.306 77.274l9.117 37.605v40.265l-7.92 18.273c-.924 2.135.64 4.519 2.967 4.519h14.815a3.232 3.232 0 003.227-3.048l5.429-94.666c15.278 1.513 48.809 2.689 85.87-9.549 5.744 9.56 17.734 24.746 41.855 40.598l-6.077 43.873-7.919 18.273c-.925 2.135.64 4.518 2.966 4.518h15.077a3.233 3.233 0 003.198-2.76l9.432-63.93c.255-1.724-.2-3.47-1.297-4.824-2.925-3.612-8.736-11.7-10.44-20.79z" fill="#f5dcb4"/><path d="M267.543 69.56l12.1 8.964c1.883 1.394 4.458 1.132 6.14-.5 11.641-11.294 25.759-17.531 33.542-20.35 1.5-.545 1.233-2.786-.35-2.983-29.12-3.626-51.432 14.87-51.432 14.87z" fill="#825a5a"/><path d="M258.28 102.086c-2.517 0-4.58-2.041-4.58-4.558s2.019-4.558 4.536-4.558h.045a4.558 4.558 0 010 9.116z" fill="#4b3f4e"/><g fill="#6e4848"><path d="M468.282 306.78h15.077a3.233 3.233 0 003.198-2.76l1.515-10.273-16.66-5.554-6.096 14.07c-.925 2.134.64 4.518 2.966 4.518zM328.116 306.78h14.814a3.232 3.232 0 003.228-3.047l.594-10.37-15.506-5.17-6.097 14.07c-.925 2.134.64 4.518 2.967 4.518z"/></g><g fill="#ebc9a0"><path d="M437.457 199.519c-1.96-3.671-3.431-6.781-4.525-9.305-1.865-4.304-6.743-6.39-11.194-4.907-25.466 8.486-51.585 10.239-63.227 10.581a6.791 6.791 0 00-6.585 6.467l-.34 6.712c15.279 1.513 48.81 2.689 85.87-9.548zM293.278 132.142c1.234-10.92-5.223-14.53-8.832-13.01-4.55 1.916-4.368 4.937-12.8 9.712 9.724 18.506 16.044 64.709 52.305 77.274-18.233-12.914-33.167-51.916-30.673-73.976zM253.207 135.497c-13.893-4.68-20.913-19.172-22.397-31.661a380.254 380.254 0 00-9.601 12.187 9.09 9.09 0 00-1.36 8.36l2.494 7.481c1.269 3.808 4.862 6.36 8.874 6.232 5.501-.174 13.679-.812 21.99-2.6z"/></g><path d="M320.183 55.778c-24.397 2.156-38.046 12.499-44.704 19.662l4.164 3.084c1.883 1.396 4.457 1.132 6.14-.499 11.64-11.294 25.758-17.532 33.541-20.351.866-.314 1.084-1.17.86-1.896z" fill="#6e4848"/><path d="M256.076 65.189c.31 4.169 1.41 12.034 5.27 19.766 1.026 2.056 3.48 2.982 5.597 2.089l11.192-4.726c2.87-1.21 3.609-5.033 1.315-7.14-7.582-6.96-16.21-10.595-20.598-12.123a2.086 2.086 0 00-2.776 2.134z" fill="#ebc9a0"/><path d="M226.081 122.084c-.665-2.07-3.352-3.093-6.404-2.678-.386 1.626-.374 3.339.172 4.977l1.39 4.171c3.447-1.306 5.6-4.109 4.842-6.47z" fill="#825a5a"/></svg>