<svg xmlns="http://www.w3.org/2000/svg" width="720" height="360"><defs><clipPath id="prefix__a"><path fill="#616161" stroke="#263238" stroke-linecap="round" stroke-linejoin="round" d="M330.91 278.32s-13.86 10-21.23 24.27c-7.37 14.27-14.3 46.36-23.39 61.52-9.09 15.16-17.29 26.43-26 32.89-8.71 6.46-21.66 10.83-29 12.13-7.34 1.3-27.3 3.47-27.3 3.47l.87 16.46s16.9.44 49-2.6 71.06-26.43 71.06-26.43l-1.3 48.1h111.71s6.93-68.46 3.47-103.56c-3.46-35.1-23.4-60.57-40.3-70.15-16.9-9.58-34.66-7.36-45.49-6.5-10.83.86-22.1 10.4-22.1 10.4z"/></clipPath><clipPath id="prefix__b"><path fill="#fff" stroke="#263238" stroke-linecap="round" stroke-linejoin="round" d="M289.37 208.18s0 18.7 1 22.64c1 3.94 7.55 22.63 9.19 27.88 1.64 5.25 14.43 28.53 17.38 32.14 2.95 3.61 15.74-5.25 15.74-5.25l7.22 15.75s15.59-25.88 19.2-32.12c3.61-6.24 5.65-13.12 3-23-2.65-9.88-2.88-10.2-19.28-18.07-16.4-7.87-40.34-17.05-44.93-20.33-4.59-3.28-7.89-1.93-8.52.36z"/></clipPath><clipPath id="prefix__c"><path fill="#616161" stroke="#263238" stroke-linecap="round" stroke-linejoin="round" d="M276.42 206.8s29.32 17 48.77 25.45c19.45 8.45 44.22 21.67 46 32.72 1.78 11.05-10.61 21.23-15.47 25.2-4.86 3.97-14.6 13.71-14.6 13.71s23.88-13.26 32.28-19.45c8.4-6.19 11.5-16.81 8-35.82s-5.75-48.2-16.36-64.56-36.7-7.52-55.71.88a125.47 125.47 0 00-32.91 21.87z"/></clipPath><clipPath id="prefix__d"><path fill="#616161" stroke="#263238" stroke-linecap="round" stroke-linejoin="round" d="M395 294.79s-13 0-20.8 21.23c-7.8 21.23-16.46 75-16.46 75s-19.07 14.74-33.37 21.67A250.61 250.61 0 01300.15 423s6.68 13.46 6.07 18.63c-.22 1.83 2.15 4.38 2.15 4.38s36-2.65 56.34-6.55c20.34-3.9 45.49-13 49-31.63 3.51-18.63 17.73-60.29 12.1-71.56"/></clipPath></defs><path fill="#263238" d="M499.055 78.162c-2.274-7.419-11.289-11.096-17.74-13.87-3.007-1.306-3.87-3.636-4.088-6.813 0-.347 0-2.42.081-4.403h-12.732c.056 2.008.097 4.032.072 4.403-.217 3.177-1.08 5.507-4.088 6.814-6.41 2.773-15.441 6.45-17.74 13.869a17.877 17.877 0 00-.806 5.765h57.832a17.877 17.877 0 00-.79-5.765z"/><path fill="#263238" d="M470.083 11.952h1.726v42.31h-1.726z"/><path fill="none" stroke="#263238" stroke-linecap="round" stroke-linejoin="round" stroke-width=".806" d="M441.006 88l-11.547 26.488M500.781 88l11.547 26.488M447.578 86.991l-3.064 10.41M493.475 87.45l3.057 10.258M490.258 94.03l2.605 9.645M460.423 94.03l-1.218 9.032"/><g transform="translate(155.687 -18.6) scale(.80635)"><path fill="none" stroke="#263238" stroke-linecap="round" stroke-linejoin="round" d="M185.9 154.4h25.32v24.24h-27.49M215.93 204.15h19.17v-38.9h-18.09"/><path fill="#90caf9" stroke="#263238" stroke-linecap="round" stroke-linejoin="round" d="M173.6 150.42h15.92v9.05H173.6zM203.27 161.27h15.92v9.05h-15.92zM207.97 199.62h15.92v9.05h-15.92zM173.6 172.13h15.92v9.05H173.6z"/><rect width="65.33" height="38.67" x="186.11" y="224.52" fill="#fff" stroke="#263238" stroke-linecap="round" stroke-linejoin="round" rx="3.67"/><path fill="#90caf9" stroke="#263238" stroke-linecap="round" stroke-linejoin="round" d="M186.11 231.85h65.33v14h-65.33z"/><path fill="#fff" stroke="#263238" stroke-linecap="round" stroke-linejoin="round" d="M237.65 257a2.73 2.73 0 10-2.73 2.73 2.73 2.73 0 002.73-2.73zM245.24 257a2.73 2.73 0 10-2.73 2.73 2.73 2.73 0 002.73-2.73zM82.31 188.58h78.17v40.73H82.31z"/><path fill="#263238" stroke="#263238" stroke-linecap="round" stroke-linejoin="round" d="M82.31 188.58h78.17v7.22H82.31z"/><path fill="#90caf9" stroke="#263238" stroke-linecap="round" stroke-linejoin="round" d="M94.07 204.47h54.64v11.68H94.07z"/><path fill="#263238" d="M98.42 208.37h.94l-.14 1.6 1.32-1 .48.81-1.51.74 1.51.78-.48.82-1.32-1 .14 1.63h-.94l.18-1.75-1.33 1-.47-.82 1.46-.74-1.5-.7.48-.81 1.35 1zM104.05 208.37h.95l-.14 1.6 1.33-1 .47.81-1.5.74 1.5.78-.47.82-1.33-1 .14 1.63h-.93l.17-1.66-1.33 1-.47-.82 1.47-.74-1.5-.7.47-.81 1.36 1zM109.67 208.37h.94l-.14 1.6 1.32-1 .48.81-1.51.74 1.51.78-.48.82-1.32-1 .14 1.63h-.94l.18-1.66-1.33 1-.47-.82 1.46-.74-1.5-.7.48-.81 1.35 1zM115.3 208.37h.93l-.14 1.6 1.33-1 .47.81-1.5.74 1.5.78-.47.82-1.33-1 .14 1.63h-.93l.17-1.66-1.33 1-.47-.82 1.47-.74-1.5-.7.47-.81 1.36 1zM120.92 208.37h.94l-.14 1.6 1.32-1 .48.81-1.51.74 1.51.78-.48.82-1.32-1 .14 1.63h-.94l.18-1.66-1.33 1-.47-.82 1.46-.74-1.5-.7.48-.81 1.35 1zM126.55 208.37h.93l-.14 1.6 1.33-1 .47.81-1.5.74 1.5.78-.47.82-1.33-1 .14 1.63h-.93l.17-1.66-1.33 1-.47-.82 1.47-.74-1.5-.7.47-.81 1.36 1zM132.17 208.37h.94L133 210l1.32-1 .48.81-1.51.74 1.51.78-.48.82-1.32-1 .14 1.63h-.94l.18-1.66-1.33 1-.47-.82 1.46-.74-1.5-.7.46-.86 1.35 1zM137.8 208.37h.93l-.14 1.6 1.33-1 .47.81-1.5.74 1.5.78-.47.82-1.33-1 .14 1.63h-.93l.2-1.75-1.33 1-.47-.82 1.47-.74-1.5-.7.47-.81 1.36 1zM143.42 208.37h.94l-.14 1.6 1.32-1 .48.81-1.51.74 1.51.78-.48.82-1.32-1 .14 1.63h-.94l.18-1.66-1.33 1-.47-.82 1.46-.74-1.5-.7.48-.81 1.35 1z"/><path fill="none" stroke="#263238" stroke-linecap="round" stroke-linejoin="round" stroke-width=".5" d="M251.75 177.91h14.83M251.75 182.26h14.83M251.75 186.6h14.83M251.75 190.94h14.83M160.72 238.16h14.83M160.72 242.5h14.83M160.72 246.85h14.83M160.72 251.19h14.83M85.39 235.59h39.58M85.39 239.93h39.58M85.39 244.27h39.58M85.39 248.61h39.58"/></g><g><path fill="#fff" stroke="#263238" stroke-linecap="round" stroke-linejoin="round" stroke-width=".806" d="M325.778 311.859h7.967v30.35h-7.967z"/><path fill="#263238" stroke="#263238" stroke-linecap="round" stroke-linejoin="round" stroke-width=".806" d="M324.529 311.859h10.458v22.037h-10.458z"/><path fill="#fff" stroke="#263238" stroke-linecap="round" stroke-linejoin="round" stroke-width=".806" d="M265.69 210.887h131.902V314.06H265.69z"/><path fill="#263238" stroke="#263238" stroke-linecap="round" stroke-linejoin="round" stroke-width=".806" d="M272.753 216.403h117.792v92.134H272.753z"/><path fill="#90caf9" d="M283.953 222.74h-3.032a.75.75 0 110-1.491h3.032a.75.75 0 110 1.492zm.75 2.726a.75.75 0 00-.75-.75h-3.032a.75.75 0 000 1.5h3.032a.75.75 0 00.75-.75zm0 3.467a.75.75 0 00-.75-.75h-3.032a.75.75 0 000 1.5h3.032a.742.742 0 00.75-.733zm0 3.476a.742.742 0 00-.75-.75h-3.032a.75.75 0 100 1.492h3.032a.742.742 0 00.75-.742zm0 3.467a.75.75 0 00-.75-.75h-3.032a.75.75 0 000 1.5h3.032a.75.75 0 00.75-.75zm0 3.467a.75.75 0 00-.75-.75h-3.032a.75.75 0 000 1.5h3.032a.742.742 0 00.75-.75zm0 3.476a.742.742 0 00-.75-.75h-3.032a.75.75 0 100 1.492h3.032a.742.742 0 00.75-.742zm0 3.467a.75.75 0 00-.75-.75h-3.032a.75.75 0 000 1.5h3.032a.75.75 0 00.75-.75zM296.064 222a.75.75 0 00-.75-.75h-7.966a.75.75 0 100 1.492h7.966a.75.75 0 00.75-.742zm0 3.467a.75.75 0 00-.75-.75h-7.966a.75.75 0 100 1.5h7.966a.75.75 0 00.75-.75zm0 3.467a.75.75 0 00-.75-.75h-7.966a.75.75 0 000 1.5h7.966a.75.75 0 00.75-.733zm0 3.476a.75.75 0 00-.75-.75h-7.966a.75.75 0 100 1.492h7.966a.75.75 0 00.75-.742zm0 3.467a.75.75 0 00-.75-.75h-7.966a.75.75 0 000 1.5h7.966a.75.75 0 00.75-.75zm9.54 3.467a.75.75 0 00-.742-.717h-7.967a.75.75 0 000 1.5h7.967a.742.742 0 00.741-.783zm0 3.476a.742.742 0 00-.75-.75h-7.967a.75.75 0 100 1.492h7.975a.742.742 0 00.741-.742zm0 3.467a.75.75 0 00-.75-.75h-7.967a.75.75 0 000 1.5h7.975a.75.75 0 00.741-.75zM299.571 222a.87.87 0 10-.87.863.87.87 0 00.87-.863zm2.604 0a.87.87 0 10-.87.863.87.87 0 00.87-.863zm2.597 0a.87.87 0 10-.863.863.863.863 0 00.863-.863zm2.604 0a.87.87 0 10-.87.863.87.87 0 00.87-.863zm2.605 0a.87.87 0 10-.87.863.87.87 0 00.87-.863zm2.604 0a.87.87 0 10-.87.863.87.87 0 00.87-.863zm-13.014 6.95a.87.87 0 10-.87.871.863.863 0 00.87-.87zm2.604 0a.87.87 0 10-.87.871.87.87 0 00.87-.87zm2.597 0a.87.87 0 10-.863.871.863.863 0 00.863-.87zm2.604 0a.87.87 0 10-.87.871.863.863 0 00.87-.87zm2.605 0a.87.87 0 10-.87.871.863.863 0 00.87-.87zm2.604 0a.87.87 0 10-.87.871.87.87 0 00.87-.87zm-4.12 9.975a.87.87 0 10-.87.871.87.87 0 00.87-.887zm2.596 0a.87.87 0 10-.862.871.863.863 0 00.862-.887zm2.605 0a.87.87 0 10-.87.871.863.863 0 00.87-.887zm2.605 0a.87.87 0 10-.871.871.863.863 0 00.87-.887zm2.596 0a.87.87 0 10-.863.871.863.863 0 00.863-.887zm2.604 0a.87.87 0 10-.862.871.863.863 0 00.862-.887zm-13.006 7.16a.87.87 0 10-.87.871.879.879 0 00.87-.887zm2.596 0a.87.87 0 10-.862.871.87.87 0 00.862-.887zm2.605 0a.87.87 0 10-.87.871.87.87 0 00.87-.887zm2.605 0a.87.87 0 10-.871.871.87.87 0 00.87-.887zm2.596 0a.87.87 0 10-.863.871.87.87 0 00.863-.887zm2.604 0a.87.87 0 10-.862.871.87.87 0 00.862-.887zM283.953 250.511h-3.032a.75.75 0 010-1.5h3.032a.75.75 0 010 1.5zm.75 2.718a.742.742 0 00-.75-.742h-3.032a.75.75 0 100 1.492h3.032a.742.742 0 00.75-.75zm0 3.475a.742.742 0 00-.75-.75h-3.032a.75.75 0 000 1.5h3.032a.75.75 0 00.75-.75zm0 3.468a.75.75 0 00-.75-.75h-3.032a.75.75 0 000 1.5h3.032a.75.75 0 00.75-.75zm0 3.467a.75.75 0 00-.75-.75h-3.032a.75.75 0 000 1.5h3.032a.742.742 0 00.75-.766zm0 3.475a.742.742 0 00-.75-.75h-3.032a.75.75 0 000 1.5h3.032a.75.75 0 00.75-.75zm0 3.468a.75.75 0 00-.75-.75h-3.032a.75.75 0 000 1.5h3.032a.75.75 0 00.75-.75zm0 3.467a.75.75 0 00-.75-.75h-3.032a.75.75 0 000 1.5h3.032a.742.742 0 00.75-.75zm11.361-24.287a.75.75 0 00-.75-.75h-7.966a.75.75 0 100 1.5h7.966a.75.75 0 00.75-.75zm0 3.467a.75.75 0 00-.75-.742h-7.966a.75.75 0 100 1.492h7.966a.75.75 0 00.75-.75zm0 3.475a.75.75 0 00-.75-.75h-7.966a.75.75 0 100 1.5h7.966a.75.75 0 00.75-.75zm0 3.468a.75.75 0 00-.75-.75h-7.966a.75.75 0 000 1.5h7.966a.75.75 0 00.75-.75zm0 3.467a.75.75 0 00-.75-.75h-7.966a.75.75 0 000 1.5h7.966a.75.75 0 00.75-.766zm9.54 3.475a.742.742 0 00-.75-.75h-7.967a.75.75 0 100 1.5h7.975a.75.75 0 00.741-.75zm0 3.468a.75.75 0 00-.75-.75h-7.967a.75.75 0 000 1.5h7.975a.75.75 0 00.741-.75zm0 3.467a.75.75 0 00-.742-.75h-7.967a.75.75 0 100 1.5h7.967a.742.742 0 00.741-.75zm-6.032-24.287a.87.87 0 10-.87.87.87.87 0 00.87-.87zm2.604 0a.87.87 0 10-.87.87.879.879 0 00.87-.87zm2.597 0a.87.87 0 10-.863.87.87.87 0 00.863-.87zm2.604 0a.87.87 0 10-.87.87.87.87 0 00.87-.87zm2.605 0a.87.87 0 10-.87.87.87.87 0 00.87-.87zm2.604 0a.87.87 0 10-.87.87.879.879 0 00.87-.87zm-13.014 6.942a.87.87 0 10-.87.863.87.87 0 00.87-.863zm2.604 0a.87.87 0 10-.87.863.87.87 0 00.87-.863zm2.597 0a.87.87 0 10-.863.863.863.863 0 00.863-.863zm2.604 0a.87.87 0 10-.87.863.87.87 0 00.87-.863zm2.605 0a.87.87 0 10-.87.863.87.87 0 00.87-.863zm2.604 0a.87.87 0 10-.87.863.87.87 0 00.87-.863zm-4.12 9.975a.87.87 0 10-.87.863.87.87 0 00.87-.863zm2.596 0a.87.87 0 10-.862.863.863.863 0 00.862-.863zm2.605 0a.87.87 0 10-.87.863.87.87 0 00.87-.863zm2.605 0a.87.87 0 10-.871.863.87.87 0 00.87-.863zm2.596 0a.87.87 0 10-.863.863.863.863 0 00.863-.863zm2.604 0a.87.87 0 10-.862.863.863.863 0 00.862-.863zm-13.006 7.152a.87.87 0 10-.87.871.87.87 0 00.87-.87zm2.596 0a.87.87 0 10-.862.871.863.863 0 00.862-.87zm2.605 0a.87.87 0 10-.87.871.863.863 0 00.87-.87zm2.605 0a.87.87 0 10-.871.871.863.863 0 00.87-.87zm2.596 0a.87.87 0 10-.863.871.863.863 0 00.863-.87zm2.604 0a.87.87 0 10-.862.871.863.863 0 00.862-.87zM283.953 278.943h-3.032a.75.75 0 010-1.5h3.032a.75.75 0 010 1.5zm.75 2.718a.75.75 0 00-.75-.75h-3.032a.75.75 0 000 1.5h3.032a.75.75 0 00.75-.742zm0 3.467a.75.75 0 00-.75-.75h-3.032a.75.75 0 000 1.5h3.032a.742.742 0 00.75-.742zm0 3.476a.742.742 0 00-.75-.75h-3.032a.75.75 0 100 1.491h3.032a.742.742 0 00.75-.725zm0 3.467a.75.75 0 00-.75-.75h-3.032a.75.75 0 000 1.5h3.032a.75.75 0 00.75-.742zm0 3.467a.75.75 0 00-.75-.75h-3.032a.75.75 0 000 1.5h3.032a.742.742 0 00.75-.742zm0 3.476a.742.742 0 00-.75-.75h-3.032a.75.75 0 100 1.491h3.032a.742.742 0 00.75-.733zm0 3.467a.75.75 0 00-.75-.75h-3.032a.75.75 0 000 1.5h3.032a.75.75 0 00.75-.742zm11.361-24.287a.75.75 0 00-.75-.75h-7.966a.75.75 0 100 1.5h7.966a.75.75 0 00.75-.742zm0 3.467a.75.75 0 00-.75-.75h-7.966a.75.75 0 000 1.5h7.966a.75.75 0 00.75-.742zm0 3.467a.75.75 0 00-.75-.75h-7.966a.75.75 0 000 1.5h7.966a.75.75 0 00.75-.742zm0 3.476a.75.75 0 00-.75-.75h-7.966a.75.75 0 100 1.491h7.966a.75.75 0 00.75-.725zm0 3.467a.75.75 0 00-.75-.75h-7.966a.75.75 0 100 1.5h7.966a.75.75 0 00.75-.742zm9.54 3.467a.75.75 0 00-.75-.75h-7.967a.75.75 0 000 1.5h7.975a.742.742 0 00.741-.742zm0 3.476a.742.742 0 00-.742-.718h-7.967a.75.75 0 100 1.492h7.967a.742.742 0 00.741-.766zm0 3.467a.75.75 0 00-.75-.75h-7.967a.75.75 0 100 1.5h7.975a.75.75 0 00.741-.742zm-6.032-24.287a.87.87 0 10-.87.862.87.87 0 00.87-.854zm2.604 0a.87.87 0 10-.87.862.87.87 0 00.87-.854zm2.597 0a.87.87 0 10-.863.862.863.863 0 00.863-.854zm2.604 0a.87.87 0 10-.87.862.87.87 0 00.87-.854zm2.605 0a.87.87 0 10-.87.862.87.87 0 00.87-.854zm2.604 0a.87.87 0 10-.87.862.87.87 0 00.87-.854zm-13.014 6.934a.87.87 0 10-.87.871.863.863 0 00.87-.863zm2.604 0a.87.87 0 10-.87.871.87.87 0 00.87-.863zm2.597 0a.87.87 0 10-.863.871.863.863 0 00.863-.863zm2.604 0a.87.87 0 10-.87.871.863.863 0 00.87-.863zm2.605 0a.87.87 0 10-.87.871.863.863 0 00.87-.863zm2.604 0a.87.87 0 10-.87.871.87.87 0 00.87-.863zm-4.12 9.975a.87.87 0 10-.87.87.87.87 0 00.87-.862zm2.596 0a.87.87 0 10-.862.87.863.863 0 00.862-.862zm2.605 0a.87.87 0 10-.87.87.863.863 0 00.87-.862zm2.605 0a.87.87 0 10-.871.87.863.863 0 00.87-.862zm2.596 0a.87.87 0 10-.863.87.863.863 0 00.863-.862zm2.604 0a.87.87 0 10-.862.87.863.863 0 00.862-.862zm-13.006 7.16a.87.87 0 10-.87.871.879.879 0 00.87-.863zm2.596 0a.87.87 0 10-.862.871.87.87 0 00.862-.863zm2.605 0a.87.87 0 10-.87.871.87.87 0 00.87-.863zm2.605 0a.87.87 0 10-.871.871.87.87 0 00.87-.863zm2.596 0a.87.87 0 10-.863.871.87.87 0 00.863-.863zm2.604 0a.87.87 0 10-.862.871.87.87 0 00.862-.863zM330.568 222.74h-3.032a.75.75 0 110-1.491h3.032a.75.75 0 110 1.492zm.75 2.726a.75.75 0 00-.75-.75h-3.032a.75.75 0 100 1.5h3.032a.75.75 0 00.75-.75zm0 3.467a.75.75 0 00-.75-.75h-3.032a.75.75 0 000 1.5h3.032a.742.742 0 00.75-.733zm0 3.476a.742.742 0 00-.75-.75h-3.032a.75.75 0 100 1.492h3.032a.742.742 0 00.75-.742zm0 3.467a.75.75 0 00-.75-.75h-3.032a.75.75 0 000 1.5h3.032a.75.75 0 00.75-.75zm0 3.467a.75.75 0 00-.75-.75h-3.032a.75.75 0 000 1.5h3.032a.742.742 0 00.75-.75zm0 3.476a.742.742 0 00-.75-.75h-3.032a.75.75 0 100 1.492h3.032a.742.742 0 00.75-.742zm0 3.467a.75.75 0 00-.75-.75h-3.032a.75.75 0 000 1.5h3.032a.75.75 0 00.75-.75zM342.68 222a.75.75 0 00-.75-.75h-7.975a.75.75 0 000 1.492h7.999a.75.75 0 00.726-.742zm0 3.467a.75.75 0 00-.75-.75h-7.975a.75.75 0 000 1.5h7.999a.75.75 0 00.726-.75zm0 3.467a.75.75 0 00-.75-.75h-7.975a.75.75 0 000 1.5h7.999a.75.75 0 00.726-.733zm0 3.476a.75.75 0 00-.75-.75h-7.975a.75.75 0 000 1.492h7.999a.75.75 0 00.726-.742zm0 3.467a.75.75 0 00-.75-.75h-7.975a.75.75 0 000 1.5h7.999a.75.75 0 00.726-.75zm9.539 3.467a.75.75 0 00-.75-.75h-7.967a.75.75 0 100 1.5h7.967a.742.742 0 00.75-.75zm0 3.476a.742.742 0 00-.75-.75h-7.967a.75.75 0 100 1.492h7.967a.742.742 0 00.75-.742zm0 3.467a.75.75 0 00-.75-.75h-7.967a.75.75 0 100 1.5h7.967a.75.75 0 00.75-.75zM346.187 222a.87.87 0 10-.87.863.87.87 0 00.87-.863zm2.597 0a.87.87 0 10-.863.863.863.863 0 00.863-.863zm2.604 0a.87.87 0 10-.863.863.863.863 0 00.863-.863zm2.605 0a.87.87 0 10-.871.863.87.87 0 00.87-.863zm2.604 0a.87.87 0 10-.87.863.87.87 0 00.87-.863zm2.597 0a.87.87 0 10-.863.863.863.863 0 00.863-.863zm-13.007 6.95a.87.87 0 10-.87.871.863.863 0 00.87-.87zm2.597 0a.87.87 0 10-.863.871.863.863 0 00.863-.87zm2.604 0a.87.87 0 10-.863.871.863.863 0 00.863-.87zm2.605 0a.87.87 0 10-.871.871.863.863 0 00.87-.87zm2.604 0a.87.87 0 10-.87.871.863.863 0 00.87-.87zm2.597 0a.87.87 0 10-.863.871.863.863 0 00.863-.87zm-4.12 9.975a.87.87 0 10-.864.871.863.863 0 00.863-.887zm2.604 0a.87.87 0 10-.863.871.863.863 0 00.863-.887zm2.604 0a.87.87 0 10-.87.871.863.863 0 00.87-.887zm2.605 0a.87.87 0 10-.871.871.87.87 0 00.903-.887zm2.596 0a.87.87 0 10-.863.871.863.863 0 00.863-.887zm2.605 0a.87.87 0 10-.863.871.863.863 0 00.863-.887zm-13.015 7.16a.87.87 0 10-.863.871.87.87 0 00.863-.887zm2.605 0a.87.87 0 10-.863.871.87.87 0 00.863-.887zm2.604 0a.87.87 0 10-.87.871.87.87 0 00.87-.887zm2.605 0a.87.87 0 10-.871.871.879.879 0 00.903-.887zm2.596 0a.87.87 0 10-.863.871.87.87 0 00.863-.887zm2.605 0a.87.87 0 10-.863.871.87.87 0 00.863-.887zM330.568 251.18h-3.032a.75.75 0 010-1.5h3.032a.75.75 0 010 1.5zm.75 2.726a.742.742 0 00-.75-.75h-3.032a.75.75 0 100 1.492h3.032a.742.742 0 00.75-.701zm0 3.468a.75.75 0 00-.75-.75h-3.032a.75.75 0 000 1.5h3.032a.75.75 0 00.75-.75zm0 3.467a.75.75 0 00-.75-.75h-3.032a.75.75 0 100 1.5h3.032a.75.75 0 00.75-.75zm0 3.467a.742.742 0 00-.75-.742h-3.032a.75.75 0 100 1.492h3.032a.742.742 0 00.75-.75zm0 3.476a.75.75 0 00-.75-.75h-3.032a.75.75 0 100 1.5h3.032a.75.75 0 00.75-.75zm0 3.467a.75.75 0 00-.75-.75h-3.032a.75.75 0 100 1.5h3.032a.75.75 0 00.75-.75zm0 3.467a.742.742 0 00-.75-.742h-3.032a.75.75 0 100 1.492h3.032a.742.742 0 00.75-.75zm11.362-24.287a.75.75 0 00-.75-.75h-7.975a.75.75 0 000 1.5h7.999a.75.75 0 00.726-.75zm0 3.475a.75.75 0 00-.726-.766h-7.975a.75.75 0 000 1.492h7.975a.75.75 0 00.726-.685zm0 3.468a.75.75 0 00-.75-.75h-7.975a.75.75 0 000 1.5h7.999a.75.75 0 00.726-.75zm0 3.467a.75.75 0 00-.75-.75h-7.975a.75.75 0 000 1.5h7.999a.75.75 0 00.726-.75zm0 3.467a.75.75 0 00-.75-.742h-7.975a.75.75 0 000 1.492h7.999a.75.75 0 00.726-.75zm9.539 3.476a.75.75 0 00-.75-.75h-7.967a.75.75 0 000 1.5h7.967a.75.75 0 00.75-.75zm0 3.467a.75.75 0 00-.75-.75h-7.967a.75.75 0 100 1.5h7.967a.75.75 0 00.75-.75zm0 3.467a.742.742 0 00-.75-.742h-7.967a.75.75 0 100 1.492h7.967a.742.742 0 00.75-.75zm-6.032-24.287a.87.87 0 10-.87.87.863.863 0 00.87-.87zm2.597 0a.87.87 0 10-.863.87.863.863 0 00.863-.87zm2.604 0a.87.87 0 10-.863.87.863.863 0 00.863-.87zm2.605 0a.87.87 0 10-.871.87.863.863 0 00.87-.87zm2.604 0a.87.87 0 10-.87.87.863.863 0 00.87-.87zm2.597 0a.87.87 0 10-.863.87.863.863 0 00.863-.87zm-13.007 6.943a.87.87 0 10-.87.862.87.87 0 00.87-.862zm2.597 0a.87.87 0 10-.863.862.863.863 0 00.863-.862zm2.604 0a.87.87 0 10-.863.862.863.863 0 00.863-.862zm2.605 0a.87.87 0 10-.871.862.87.87 0 00.87-.862zm2.604 0a.87.87 0 10-.87.862.87.87 0 00.87-.862zm2.597 0a.87.87 0 10-.863.862.863.863 0 00.863-.862zm-4.12 9.974a.87.87 0 10-.864.87.87.87 0 00.863-.87zm2.604 0a.87.87 0 10-.863.87.87.87 0 00.863-.87zm2.604 0a.87.87 0 10-.87.87.87.87 0 00.87-.87zm2.605 0a.87.87 0 10-.871.87.879.879 0 00.903-.87zm2.596 0a.87.87 0 10-.863.87.87.87 0 00.863-.87zm2.605 0a.87.87 0 10-.863.87.87.87 0 00.863-.87zm-13.015 7.16a.87.87 0 10-.863.863.863.863 0 00.863-.863zm2.605 0a.87.87 0 10-.863.863.863.863 0 00.863-.863zm2.604 0a.87.87 0 10-.87.863.87.87 0 00.87-.863zm2.605 0a.87.87 0 10-.871.863.87.87 0 00.903-.863zm2.596 0a.87.87 0 10-.863.863.863.863 0 00.863-.863zm2.605 0a.87.87 0 10-.863.863.863.863 0 00.863-.863z"/></g><g><path fill="#616161" d="M422.516 205.823s-11.176 8.064-17.118 19.57c-5.943 11.507-11.531 37.383-18.861 49.607-7.33 12.225-13.942 21.312-20.965 26.521-7.023 5.21-17.466 8.733-23.384 9.781-5.919 1.049-22.014 2.798-22.014 2.798l.702 13.273s13.627.355 39.511-2.097c25.884-2.45 57.3-21.311 57.3-21.311l-1.049 38.785h90.078s5.588-55.203 2.798-83.506c-2.79-28.303-18.869-48.84-32.496-56.565-13.628-7.725-27.948-5.935-36.681-5.242-8.733.694-17.82 8.386-17.82 8.386z"/><g clip-path="url(#prefix__a)" transform="translate(155.687 -18.6) scale(.80635)"><path d="M398.5 274.42c-12-6.78-24.49-7.64-34.58-7.26l-22.81 36.72S367.5 290 375 288s23 4.5 27.5 21 6 80 7.5 98.5-6.5 33.5-9 36c-1.16 1.16-3.3 2.87-4 4.67h38.33s6.93-68.46 3.47-103.56c-3.46-35.1-23.4-60.61-40.3-70.19z" opacity=".3"/><path fill="#90caf9" d="M345.9 404.27c-20.95-.64-15.95-28.13-21.46-43.58-5.51-15.45-5.64-41.73 15.74-42.2 21.38-.47 25 29 28.34 44.36s-1.67 42.06-22.62 41.42zm-19.64-43.72c5.25 13.58.9 40.76 19.94 41.22 19.04.46 23.86-24.52 20.82-39-3.04-14.48-7.41-42.07-26.79-41.72-19.38.35-19.23 25.95-13.97 39.5zm26.28-31.62c-2.28 7-4.18 14.1-6.1 21.22.95 1.82 2 3.48 2.89 5.37a50.52 50.52 0 012 6c4.89.32 9.75.78 14.65 1-3.05-10.91-5.98-24.88-13.44-33.59zm-13 21c-2.95-7.31-6.41-14.36-9.92-21.41-7.33 9.81-6.24 21.25-1.48 31.95a50 50 0 0110.59.31c-.65-3.73-1.12-7.48.84-10.87zm8.2 23.63c-2.26 2-4 2.19-5.6-.54a189.09 189.09 0 01-5.9 21.42c5.85 7 14.84 7.18 21.15.54-3.54-7.21-7.39-13.66-9.62-21.44zm.19-12.19c-.38-2.61-1.43-7.82-4.93-8-3.5-.18-3.18 5.56-2.67 7.86.51 2.3.9 8.46 4.15 8.56 3.25.1 3.86-5.79 3.52-8.44z"/><path d="M319.5 357.5s-6-23-5.5-12.5 1 35-10.5 48-20.5 9.5-29.5 15c-5.18 3.17-19.4 12-30.28 19.39 3.17-.26 6.52-.55 10.07-.89 32.06-3 71.06-26.43 71.06-26.43l-.16 5.82c.51-5.17 1.46-22.63-5.19-48.39z" opacity=".3"/><path fill="none" stroke="#263238" stroke-linecap="round" stroke-linejoin="round" d="M325.28 395.74s-1.73-39.43-14.73-62.82"/></g><path fill="none" stroke="#263238" stroke-linecap="round" stroke-linejoin="round" stroke-width=".806" d="M422.516 205.823s-11.176 8.064-17.118 19.57c-5.943 11.507-11.531 37.383-18.861 49.607-7.33 12.225-13.942 21.312-20.965 26.521-7.023 5.21-17.466 8.733-23.384 9.781-5.919 1.049-22.014 2.798-22.014 2.798l.702 13.273s13.627.355 39.511-2.097c25.884-2.45 57.3-21.311 57.3-21.311l-1.049 38.785h90.078s5.588-55.203 2.798-83.506c-2.79-28.303-18.869-48.84-32.496-56.565-13.628-7.725-27.948-5.935-36.681-5.242-8.733.694-17.82 8.386-17.82 8.386z"/><path fill="#263238" stroke="#616161" stroke-linecap="round" stroke-linejoin="round" stroke-width=".806" d="M333.366 324.1s-6.37-9.992-11.192-15.16c-4.822-5.169-18.086-1.548-23.078-.863-4.991.685-16.022 7.58-18.086 8.612-2.065 1.032.863 3.274 3.79 3.959s6.023-2.064 8.95-2.58c2.927-.516 1.895.862 6.032 4.136 4.136 3.274 5.684 6.37 12.401 7.919a36.995 36.995 0 0018.772-.863c4.484-1.556 2.411-5.16 2.411-5.16z"/><path fill="#263238" stroke="#616161" stroke-linecap="round" stroke-linejoin="round" stroke-width=".806" d="M331.302 320.817s-5.516.516-8.612 2.234c-3.096 1.717-3.79 5.685-1.895 6.547 1.895.863 7.75 1.38 11.54-.169 3.789-1.548 3.62-3.443 2.757-6.2-.863-2.758-3.79-2.412-3.79-2.412zM306.152 304.972s-4.645-1.894-7.056-.346c-2.41 1.548-3.274 3.274-3.104 6.37.17 3.096-1.38 9.128-1.718 12.055-.338 2.927.855 3.62 3.097 3.967 2.241.347 3.273-1.548 4.136-4.306s2.75-11.2 3.79-13.264a9.717 9.717 0 00.855-4.476z"/><path fill="#263238" stroke="#616161" stroke-linecap="round" stroke-linejoin="round" stroke-width=".806" d="M315.28 305.827s-1.718-3.096-4.476-3.096c-2.757 0-6.023 0-6.2 2.419-.178 2.419-1.718 12.055-3.444 15.845-1.725 3.79.517 6.031 3.097 6.031s2.758-.347 5.169-4.483c2.41-4.137 4.136-12.055 4.136-12.055"/><path fill="#263238" stroke="#616161" stroke-linecap="round" stroke-linejoin="round" stroke-width=".806" d="M323.892 311.343s-2.065-5.685-5.161-6.201c-3.096-.516-5.516-.347-5.645 2.927-.129 3.274-.693 9.676-2.757 13.434-2.065 3.757-3.79 5.515-1.202 6.378 2.589.863 4.306 1.032 6.37-1.21 2.065-2.241 5.17-12.055 5.17-12.57"/><path fill="#474747" stroke="#263238" stroke-linecap="round" stroke-linejoin="round" stroke-width=".806" d="M380.473 148.71s1.42 17.11 1.065 32.084c-.355 14.974 13.91 25.675 22.505 31.383 8.596 5.71 16.401 8.556 19.965 10.693a17.16 17.16 0 015.346 4.991s3.927-5.7 10.346-8.2c6.418-2.5 16.756-10.338 18.852-19.256 2.097-8.919-2.136-27.811-24.239-42.068-22.102-14.256-48.816-13.2-48.816-13.2z"/><path fill="#fff" d="M389.02 149.266s0 15.079.807 18.256c.806 3.177 6.088 18.247 7.41 22.48 1.323 4.234 11.636 23.006 14.015 25.917 2.378 2.91 12.692-4.233 12.692-4.233l5.822 12.7s12.57-20.869 15.482-25.9c2.91-5.032 4.555-10.58 2.419-18.546-2.137-7.967-2.323-8.225-15.547-14.571s-32.528-13.749-36.23-16.393c-3.7-2.645-6.361-1.557-6.87.29z"/><g clip-path="url(#prefix__b)" transform="translate(155.687 -18.6) scale(.80635)"><path fill="#90caf9" d="M362.11 246.26c-2.63-9.84-2.88-10.2-19.28-18.07-5.17-2.48-11.1-5.1-16.93-7.62 6.75 9.61 19.54 28.63 21.26 37.21 2.34 11.73-10.56 23.07-22.29 28.94-3.52 1.76-6 3.17-7.79 4.27 2.57 2.55 11.07-2.48 14.31-4.56l21.24-15.74a6.63 6.63 0 013.95 2.77c1.06-1.78 1.93-3.25 2.5-4.24 3.6-6.22 5.65-13.12 3.03-22.96z"/><path fill="#fff" d="M362.11 246.26c-2.63-9.84-2.88-10.2-19.28-18.07-5.17-2.48-11.1-5.1-16.93-7.62 6.75 9.61 19.54 28.63 21.26 37.21 2.34 11.73-10.56 23.07-22.29 28.94-3.52 1.76-6 3.17-7.79 4.27 2.57 2.55 11.07-2.48 14.31-4.56l21.24-15.74a6.63 6.63 0 013.95 2.77c1.06-1.78 1.93-3.25 2.5-4.24 3.6-6.22 5.65-13.12 3.03-22.96z" opacity=".5"/></g><path fill="none" stroke="#263238" stroke-linecap="round" stroke-linejoin="round" stroke-width=".806" d="M389.02 149.266s0 15.079.807 18.256c.806 3.177 6.088 18.247 7.41 22.48 1.323 4.234 11.636 23.006 14.015 25.917 2.378 2.91 12.692-4.233 12.692-4.233l5.822 12.7s12.57-20.869 15.482-25.9c2.91-5.032 4.555-10.58 2.419-18.546-2.137-7.967-2.323-8.225-15.547-14.571s-32.528-13.749-36.23-16.393c-3.7-2.645-6.361-1.557-6.87.29z"/><path fill="#263238" stroke="#263238" stroke-linecap="round" stroke-linejoin="round" stroke-width=".806" d="M390.883 148.234s-5.354 4.281-6.45 11.24c-1.097 6.96 1.072 8.024 4.281 4.838a62.815 62.815 0 005.895-6.958s-2.677 4.281 1.064 5.354c3.741 1.072 11.24-3.226 13.918-4.282 2.677-1.056-3.185-20.368-18.708-10.192zM390.867 172.013s1.613 2.911 10.846 4.766c9.232 1.854 21.69 1.322 25.658.258a111.494 111.494 0 0010.845-3.968s2.379-.258 2.113 1.855-6.08 3.177-6.08 3.177-1.323 8.193-3.71 10.58c-2.386 2.386-14.28 3.983-19.303 3.176-5.024-.806-6.612-8.2-7.403-9.257-.79-1.056-1.612-2.644-3.177-2.644-1.564 0-1.612 5.822-1.322 8.732.29 2.911.532 1.323-2.113 1.323s-6.878-2.911-7.41-8.999c-.532-6.088-1.847-8.733 1.056-8.999z"/><path fill="#90caf9" d="M404.607 181.02s1.137 6.798 4.25 7.935c3.112 1.136 3.685 1.128 8.499-2.839 4.814-3.967 11.055-2.548 11.055-2.548s3.403-3.685 3.403-5.096-1.137-.855-1.137-.855-2.137 1.387-11.636 1.839c-3.395.161-14.716-.702-14.716-.702zM399.148 177.343l.09 2.806a3.975 3.975 0 01-3.073 3.435 10.894 10.894 0 01-5.701.089s-1.089-7.959-1.089-8.87a1.83 1.83 0 01.363-1.266s2.806 3.21 9.41 3.806zM429.935 185.407a1.758 1.758 0 11-1.701-1.307 1.54 1.54 0 011.7 1.307z"/><path fill="#fff" stroke="#263238" stroke-linecap="round" stroke-linejoin="round" stroke-width=".806" d="M400.124 181.27s-1.846 12.958-2.903 16.401c-1.056 3.443 8.991 1.847 12.16 1.323"/><path fill="none" stroke="#263238" stroke-linecap="round" stroke-linejoin="round" stroke-width=".806" d="M423.928 211.686a146.135 146.135 0 0013.756-9.781"/><path fill="none" stroke="#263238" stroke-linecap="round" stroke-linejoin="round" stroke-width="2.419" d="M405.656 175.73s1.298-5.184 14.804-4.104M398.278 174.392s-2.645-4.492-6.879-4.758"/><path fill="#fff" stroke="#263238" stroke-linecap="round" stroke-linejoin="round" stroke-width=".806" d="M430.806 246.859l-1.484-18.998-3.806 18.207z"/><path fill="#616161" d="M378.578 148.153s23.643 13.708 39.326 20.522c15.684 6.813 35.657 17.473 37.092 26.384 1.436 8.91-8.555 17.118-12.474 20.32-3.919 3.2-11.773 11.055-11.773 11.055s19.256-10.692 26.03-15.684c6.773-4.991 9.272-13.555 6.45-28.883-2.822-15.329-4.636-38.866-13.192-52.058-8.555-13.192-29.593-6.064-44.922.71a101.173 101.173 0 00-26.537 17.634z"/><g clip-path="url(#prefix__c)" transform="translate(155.687 -18.6) scale(.80635)"><path d="M303.76 210.08S322.13 221 337 228.85c14.87 7.85 33.23 19.55 37.54 26.2 4.31 6.65 3.12 10.55-.79 17.59-3.91 7.04-9 10.95-3.52 11.34 5.48.39 10.95-10.17 10.95-18.77s-1.56-17.2-3.91-31.67c-2.35-14.47-9-43-15.64-50-6.64-7-18.37-5.86-30.49 2.35-12.12 8.21 11.33 12.12 9 18.38-1.67 4.43-11.91.09-14.68-.7-9.34-2.66-13.68-2.26-22.75 1.48-2.77 1.08-.8 3.95 1.05 5.03z" opacity=".3"/></g><path fill="none" stroke="#263238" stroke-linecap="round" stroke-linejoin="round" stroke-width=".806" d="M378.578 148.153s23.643 13.708 39.326 20.522c15.684 6.813 35.657 17.473 37.092 26.384 1.436 8.91-8.555 17.118-12.474 20.32-3.919 3.2-11.773 11.055-11.773 11.055s19.256-10.692 26.03-15.684c6.773-4.991 9.272-13.555 6.45-28.883-2.822-15.329-4.636-38.866-13.192-52.058-8.555-13.192-29.593-6.064-44.922.71a101.173 101.173 0 00-26.537 17.634z"/><path fill="#616161" d="M474.196 219.104s-10.483 0-16.773 17.119c-6.29 17.119-13.272 60.476-13.272 60.476s-15.377 11.886-26.908 17.474a202.08 202.08 0 01-19.53 8.313s5.387 10.854 4.895 15.023c-.178 1.475 1.733 3.532 1.733 3.532s29.029-2.137 45.43-5.282 36.681-10.483 39.511-25.505c2.83-15.022 14.297-48.615 9.757-57.702"/><g clip-path="url(#prefix__d)" transform="translate(155.687 -18.6) scale(.80635)"><path d="M395 294.79a13.65 13.65 0 00-5.16 1.4l.12 1.31s7-.5 13.5 9.5 4.5 17.5 6.5 42.5.5 48.5-4 48.5-17.5-5.5-15.5-2.5 5 5.5 5 9.5-9.5-7.5-12-7.5-1 1.5.5 10 0 1.5-16 6.5-41 24-47.5 26.5c-4.16 1.6-10.35 4.22-14.28 5.9v.47s38.12-3.47 58.49-7.37c20.37-3.9 45.49-13 49-31.63 3.51-18.63 17.76-61.52 12.13-72.79z" opacity=".3"/><path fill="none" stroke="#263238" stroke-linecap="round" stroke-linejoin="round" d="M360.38 392.27s15.16 1.74 22.53 10.84M373.81 393.57s10.4-.43 16.9 10.84"/></g><path fill="none" stroke="#263238" stroke-linecap="round" stroke-linejoin="round" stroke-width=".806" d="M474.196 219.104s-10.483 0-16.773 17.119c-6.29 17.119-13.272 60.476-13.272 60.476s-15.377 11.886-26.908 17.474a202.08 202.08 0 01-19.53 8.313s5.387 10.854 4.895 15.023c-.178 1.475 1.733 3.532 1.733 3.532s29.029-2.137 45.43-5.282 36.681-10.483 39.511-25.505c2.83-15.022 14.297-48.615 9.757-57.702"/><path fill="#263238" stroke="#616161" stroke-linecap="round" stroke-linejoin="round" stroke-width=".806" d="M405.607 331.405a13.127 13.127 0 00-1.862-4.758c-.992-1.54-2.371-3.427-3.589-4.136-2.185-1.274-6.733.177-9.83.54-3.095.363-4.37-1.452-10.377-6.185-6.007-4.733-32.585-8.007-36.044-8.007-3.459 0-6.733 1.814-12.901 2.177-6.169.363-8.016 2.185-3.282 5.104 4.733 2.92 11.289 1.815 15.66.54 4.37-1.273 7.82 5.645 9.095 5.645 1.274 0 .185 1.274-2.177 2-2.363.726-8.016 0-11.475.185-3.46.186-8.37 4.37-6.37 5.822 2 1.452 7.104 1.274 12.74 1.274 5.637 0 14.934-.725 16.934-.363 2 .363 7.257 4.193 15.11 6.919a27.924 27.924 0 0015.652.548c1.097-.185 7.83 3.097 11.466 2.363 2.532-.508 1.88-6.241 1.25-9.668z"/><path fill="#263238" stroke="#616161" stroke-linecap="round" stroke-linejoin="round" stroke-width=".806" d="M359.75 306.674s-5.467-2.734-8.563-2.734c-3.097 0-4.032 3.097-4.032 6.008a78.273 78.273 0 01-1.613 13.288c-.734 2.548.726 4.37 4.032 3.822s5.83-13.288 6.37-16.385c.54-3.096 3.83-1.612 4.919-2.362 1.088-.75-1.113-1.637-1.113-1.637z"/><path fill="#263238" stroke="#616161" stroke-linecap="round" stroke-linejoin="round" stroke-width=".806" d="M370.12 309.222s-4.37-3.822-7.459-4.193c-3.088-.371-6.37.911-7.104 3.83-.734 2.92-.363 8.918-1.451 11.83-1.089 2.91-3.823 6.918-1.274 7.466a5.765 5.765 0 006.007-2.008c1.613-1.822 4.185-6.37 6.007-9.28 1.823-2.912 5.274-7.645 5.274-7.645z"/><path fill="#263238" stroke="#616161" stroke-linecap="round" stroke-linejoin="round" stroke-width=".806" d="M385.78 323.236s-3.283-8.74-8.556-12.014c-5.274-3.274-9.467-4.37-11.08-1.089-1.612 3.282-2.185 8.37-4.733 12.555-2.548 4.185-1.613 5.467 2 5.096 3.612-.37 5.281-5.273 7.83-8.555 2.548-3.282 2.725-2.363 2.725-2.363"/></g><g stroke="#263238" stroke-linecap="round" stroke-linejoin="round"><path fill="#fff" stroke-width=".806" d="M264.205 334.864h6.282v2.096h-6.282zM273.043 334.864h6.281v2.096h-6.281zM281.889 334.864h6.281v2.096h-6.281zM290.726 334.864h6.282v2.096h-6.282zM299.572 334.864h6.281v2.096h-6.281zM308.41 334.864h6.281v2.096h-6.281zM317.255 334.864h6.282v2.096h-6.282zM326.093 334.864h6.281v2.096h-6.281zM334.939 334.864h6.281v2.096h-6.281zM343.776 334.864h6.282v2.096h-6.282zM352.622 334.864h6.281v2.096h-6.281zM361.46 334.864h6.281v2.096h-6.282zM370.305 334.864h6.282v2.096h-6.282z"/><path fill="none" stroke-width=".806" d="M379.143 334.864h6.281v2.096h-6.281zM387.988 334.864h6.282v2.096h-6.282z"/><path fill="#263238" stroke-width=".806" d="M259.779 336.63h136.507v3.814H259.779z"/><path fill="#fff" stroke-width=".806" d="M350.525 336.63h45.76v3.814h-45.76zM298.233 191.89l23.546 101.6h-89.102l-23.545-101.6z"/><path fill="#263238" stroke-width=".806" d="M292.992 191.89l23.546 101.6h-89.102l-23.546-101.6z"/><path fill="#fff" stroke-width=".806" d="M275.107 253.576h-23.561l-17.643 82.756a3.596 3.596 0 003.507 4.33h54.22l-2.621-2.621h-29.585a1.863 1.863 0 01-1.83-2.201z"/><path fill="#616161" stroke-width=".806" d="M237.426 340.662h17.442a1.887 1.887 0 010-.807l17.522-86.28h-20.844l-17.643 82.757a3.596 3.596 0 003.523 4.33z"/></g><g stroke="#263238" stroke-linecap="round" stroke-linejoin="round"><path fill="#263238" stroke-width=".806" d="M198.73 340.121h322.54v7.524H198.73z"/><path fill="#fff" stroke-width=".806" d="M421.396 340.121h99.874v7.524h-99.874z"/></g></svg>