<svg xmlns="http://www.w3.org/2000/svg" width="720" height="360"><defs><clipPath id="prefix__a"><path d="M283 227.87s10.65 22.73 10.65 23.93c0 1.2-9.45 6.34-11.25 7.42a43.72 43.72 0 01-4.31 2.15l1.08 10.53s16.27-3.71 23.09-7.42 6.58-7.9 5-14.12c-1.58-6.22-12.09-30.26-12.09-30.26z" fill="#fff" stroke="#263238" stroke-linecap="round" stroke-linejoin="round"/></clipPath><clipPath id="prefix__b"><path d="M206.16 222.85s-7.77 28.47-8 33.5c-.23 5.03 15.43 14.95 16 15.55.57.6-.89-17.3-.89-17.3l5.31-26z" fill="#fff" stroke="#263238" stroke-linecap="round" stroke-linejoin="round"/></clipPath><clipPath id="prefix__c"><path d="M231.05 175.83s3.11 11 9 17.47c5.89 6.47 8 8 11.13 7.53 3.13-.47 6.46-4.54 11.12-13 4.66-8.46 5-14.95 5.39-15.55.39-.6-1-12.56-7.66-17.71s-14.12-7.41-20.58-1.79c-6.46 5.62-10.56 14.79-8.4 23.05z" fill="#fff" stroke="#263238" stroke-linecap="round" stroke-linejoin="round"/></clipPath></defs><path d="M514.838 147.781c1.376-37.27-12.013-74.992-41.528-92.944-14.568-8.863-31.602-14.055-48.645-13.29-18.285.819-35.498 8.26-52.74 14.397-17.24 6.137-35.912 11.041-53.683 6.686-12.86-3.15-24.17-10.933-36.894-14.478-50.13-13.957-93.78 42.922-69.251 88.138 6.02 11.086 15.297 19.977 23.099 29.902 7.801 9.925 14.343 21.911 13.29 34.482-.9 10.41-6.803 19.68-9.26 29.83-4.696 19.445 4.626 40.834 20.742 52.685 16.116 11.85 37.856 14.613 57.293 9.736 19.436-4.877 36.533-16.809 50.004-31.584 7.198-7.919 14.253-17.17 24.61-19.86 9.943-2.573 20.192 1.62 30.28 3.546a69.728 69.728 0 0053.783-12.238c24.34-18.006 37.658-51.327 38.9-85.008z" fill="#ccafff"/><path d="M514.838 147.781c1.376-37.27-12.013-74.992-41.528-92.944-14.568-8.863-31.602-14.055-48.645-13.29-18.285.819-35.498 8.26-52.74 14.397-17.24 6.137-35.912 11.041-53.683 6.686-12.86-3.15-24.17-10.933-36.894-14.478-50.13-13.957-93.78 42.922-69.251 88.138 6.02 11.086 15.297 19.977 23.099 29.902 7.801 9.925 14.343 21.911 13.29 34.482-.9 10.41-6.803 19.68-9.26 29.83-4.696 19.445 4.626 40.834 20.742 52.685 16.116 11.85 37.856 14.613 57.293 9.736 19.436-4.877 36.533-16.809 50.004-31.584 7.198-7.919 14.253-17.17 24.61-19.86 9.943-2.573 20.192 1.62 30.28 3.546a69.728 69.728 0 0053.783-12.238c24.34-18.006 37.658-51.327 38.9-85.008z" opacity=".7" fill="#fff"/><g transform="matrix(.89984 0 0 .89984 132.794 -49.976)"><ellipse ry="27.04" rx="135.21" cy="422.16" cx="246.39" fill="#ccafff"/><ellipse ry="27.04" rx="135.21" cy="422.16" cx="246.39" opacity=".5" fill="#fff"/></g><g transform="matrix(.89984 0 0 .89984 132.794 -49.976)"><rect rx="6.03" height="119.53" width="109.55" y="62.45" x="286.41" fill="#fff" stroke="#263238" stroke-linecap="round" stroke-linejoin="round"/><path d="M292.44 62.45h97.48a6 6 0 016 6v6.26H286.41v-6.23a6 6 0 016.03-6.03z" fill="#263238" stroke="#263238" stroke-linecap="round" stroke-linejoin="round"/><path fill="none" stroke="#263238" stroke-linecap="round" stroke-linejoin="round" d="M292.38 126.27h44.08M292.38 131.96h44.08M292.38 137.65h44.08M292.38 143.34h44.08M292.38 149.03h44.08M292.38 154.73h44.08M292.38 160.42h44.08M292.38 166.11h44.08M292.38 171.8h44.08M344.21 126.27h44.08M344.21 131.96h44.08M344.21 137.65h44.08M344.21 143.34h44.08M344.21 149.03h44.08M344.21 154.73h44.08M344.21 160.42h44.08M344.21 166.11h44.08M344.21 171.8h44.08"/><path d="M321.86 90.24a7.08 7.08 0 00.34-2.09c0-2.59-2.63-2.74-5.21-2.74h-.65v-.61h11.26v.61c-2.93 0-4 1.87-4.91 4.64l-6 17.91c-.45 1.33-.83 2.32-2.24 2.32h-.12l-5.28-17.11-4.91 14.83c-.46 1.33-.84 2.32-2.25 2.32h-.11l-7.68-24.91h-2.7v-.61h9.88v.61h-2.81l5.7 19.62h.23L308.7 92l-2-6.54H304v-.66h9.89v.61h-2.81l5.7 19.62h.22z" fill="#ccafff"/><path fill="#ccafff" stroke="#263238" stroke-width="2" stroke-linecap="round" stroke-linejoin="round" d="M343.24 79.13h45.36v41h-45.36z"/><path d="M388.6 96.27a28 28 0 00-4.52.63c-6.89 1.5-8.69 11.39-16.48 11.39-6.9 0-7.49-9.29-17.38-10.49a10.92 10.92 0 00-7 1.24v21.09h45.38z" fill="#263238" stroke="#263238" stroke-linecap="round" stroke-linejoin="round"/><path d="M358.31 88.51a5.1 5.1 0 11-5.09-5.09 5.09 5.09 0 015.09 5.09zM289.7 66.04h100.97v3.89H289.7z" fill="#fff" stroke="#263238" stroke-linecap="round" stroke-linejoin="round"/><path d="M384.37 205.83h-43.71a6.48 6.48 0 00-6.48 6.48v23.38a6.48 6.48 0 006.48 6.48H342c-1.36 3-4 7.6-8.17 10.33 0 0 8.87-.62 18.11-10.33h32.41a6.48 6.48 0 006.48-6.48v-23.38a6.48 6.48 0 00-6.46-6.48z" fill="#263238" stroke="#263238" stroke-linecap="round" stroke-linejoin="round"/><path d="M355 223.17a3.34 3.34 0 10-3.33 3.33 3.34 3.34 0 003.33-3.33zM366.33 223.17a3.33 3.33 0 10-3.33 3.33 3.34 3.34 0 003.33-3.33zM377.67 223.17a3.34 3.34 0 10-3.34 3.33 3.35 3.35 0 003.34-3.33z" fill="#ccafff" stroke="#263238" stroke-linecap="round" stroke-linejoin="round"/></g><g transform="matrix(.89984 0 0 .89984 132.794 -49.976)"><path d="M144 76.63h72a6.46 6.46 0 016.46 6.46V133h-84.89V83.09a6.46 6.46 0 016.43-6.46z" fill="#ccafff" stroke="#263238" stroke-linecap="round" stroke-linejoin="round"/><path fill="#263238" stroke="#263238" stroke-linecap="round" stroke-linejoin="round" d="M137.57 124.95h84.85v8.02h-84.85z"/><path fill="#fff" stroke="#263238" stroke-linecap="round" stroke-linejoin="round" d="M141.46 127.69h77.08v2.54h-77.08z"/><circle r="11.72" cy="102.21" cx="180" fill="#263238" stroke="#263238" stroke-linecap="round" stroke-linejoin="round"/><path fill="#fff" stroke="#263238" stroke-linecap="round" stroke-linejoin="round" d="M174.71 109.52v-14.6l12.65 7.3z"/><rect rx="2.82" height="36.33" width="86.17" y="153.5" x="102.37" fill="#263238" stroke="#263238" stroke-linecap="round" stroke-linejoin="round"/><path d="M112.63 158.45l.42.7c-1.9 1.06-3.67 2.92-3.67 5.1a2.82 2.82 0 002.69 3c.28 0 .47-.14.47-.42 0-.28-.14-.37-.42-.42a1.65 1.65 0 01-1.21-1.76 2.29 2.29 0 012.46-2.23 2.52 2.52 0 012.51 2.6 3.15 3.15 0 01-3.3 3.11 3.76 3.76 0 01-4-3.9c-.03-2.53 1.92-4.57 4.05-5.78zm8.59 0l.42.7c-1.91 1.06-3.67 2.92-3.67 5.1a2.81 2.81 0 002.69 3c.28 0 .47-.14.47-.42 0-.28-.14-.37-.42-.42a1.65 1.65 0 01-1.21-1.76 2.28 2.28 0 012.46-2.23 2.52 2.52 0 012.51 2.6 3.16 3.16 0 01-3.3 3.11 3.77 3.77 0 01-4-3.9c-.04-2.53 1.91-4.57 4.05-5.78z" fill="#ccafff"/><path fill="none" stroke="#fff" stroke-linecap="round" stroke-linejoin="round" d="M129.44 165.85h49.04M129.44 170.06h49.04M129.44 174.27h49.04M129.44 178.49h49.04"/><circle transform="rotate(-9.27 166.828 227.881)" r="18.57" cy="227.83" cx="166.82" fill="#263238" stroke="#263238" stroke-linecap="round" stroke-linejoin="round"/><circle transform="rotate(-48.71 166.844 227.846)" r="15.67" cy="227.83" cx="166.82" fill="#fff" stroke="#263238" stroke-linecap="round" stroke-linejoin="round"/><path fill="none" stroke="#263238" stroke-width="2" stroke-linecap="round" stroke-linejoin="round" d="M166.82 216.5v11.33h7.66"/></g><g transform="matrix(.89984 0 0 .89984 132.794 -49.976)"><path d="M283 227.87s10.65 22.73 10.65 23.93c0 1.2-9.45 6.34-11.25 7.42a43.72 43.72 0 01-4.31 2.15l1.08 10.53s16.27-3.71 23.09-7.42 6.58-7.9 5-14.12c-1.58-6.22-12.09-30.26-12.09-30.26z" fill="#fff"/><g clip-path="url(#prefix__a)"><path style="mix-blend-mode:multiply" d="M302.23 264.48c6.82-3.71 6.58-7.9 5-14.12-1.58-6.22-12.09-30.26-12.09-30.26l-1.7 1.08-.54 1s9.81 24.08 10.4 32.1c.4 5.39-10.45 12.11-17.62 15.95 5.32-1.41 12.56-3.58 16.55-5.75z" opacity=".5" fill="#ccafff"/></g><path d="M283 227.87s10.65 22.73 10.65 23.93c0 1.2-9.45 6.34-11.25 7.42a43.72 43.72 0 01-4.31 2.15l1.08 10.53s16.27-3.71 23.09-7.42 6.58-7.9 5-14.12c-1.58-6.22-12.09-30.26-12.09-30.26z" fill="none" stroke="#263238" stroke-linecap="round" stroke-linejoin="round"/><path d="M206.16 222.85s-7.77 28.47-8 33.5c-.23 5.03 15.43 14.95 16 15.55.57.6-.89-17.3-.89-17.3l5.31-26z" fill="#fff"/><g clip-path="url(#prefix__b)"><path style="mix-blend-mode:multiply" d="M209.72 225.18l-.17-.77-3.39-1.56s-7.77 28.47-8 33.5c-.23 5.03 15.43 14.95 16 15.55.23.24.14-2.44-.05-5.75-4.66-3.95-11.35-9.51-12.13-11.85" opacity=".5" fill="#ccafff"/></g><path d="M206.16 222.85s-7.77 28.47-8 33.5c-.23 5.03 15.43 14.95 16 15.55.57.6-.89-17.3-.89-17.3l5.31-26z" fill="none" stroke="#263238" stroke-linecap="round" stroke-linejoin="round"/><path d="M242.65 194.25s-3 2.16-8.85 2.4c-5.85.24-6.13-4-13.4-4-8.81 0-19.86 27.87-19.86 27.87s5.5 5.39 10.89 7.66a38.62 38.62 0 009.33 2.75l.84 18.31h59.34l.71-18.31 18.55-12.03s-9.1-16.27-13.52-22.37c-4.42-6.1-11.85-3.83-14.12-2.28-2.27 1.55-9 1.92-11.48 1.56a99.14 99.14 0 01-9.58-2.63s-3.82-3.18-8.85 1.07z" fill="#ccafff" stroke="#263238" stroke-linecap="round" stroke-linejoin="round"/><path fill="none" stroke="#263238" stroke-width=".5" stroke-linecap="round" stroke-linejoin="round" d="M221.36 200.71l-.24 30.39M223.51 203.47s.84 14.83 4 23.09M228.06 227.75a40.79 40.79 0 002.51 5.86M225.42 201.79a94.91 94.91 0 004.79 15.79M277 204.42s-2.87 11.73-5.39 17M281.65 230.98l-.12-23.69M280.34 207.77s-2.16 15-7.42 22.85M277.71 227.63s-2.4 4.55-4.07 6.94M239.3 196.05s1.68 10.29 4.07 15.55c2.39 5.26 6.58 6.34 10.17 4.79 3.59-1.55 6.22-9.22 6-19"/><path d="M230.81 174.51s-2.28-3.94-4.07-1.91c-1.79 2.03 1.44 6.7 3.23 8.25 1.79 1.55 3.11.6 3-1.07-.11-1.67-2.16-5.27-2.16-5.27z" fill="#ccafff" stroke="#263238" stroke-linecap="round" stroke-linejoin="round"/><path d="M230.81 174.51s-2.28-3.94-4.07-1.91c-1.79 2.03 1.44 6.7 3.23 8.25 1.79 1.55 3.11.6 3-1.07-.11-1.67-2.16-5.27-2.16-5.27z" opacity=".5" fill="#fff"/><path d="M230.81 174.51s-2.28-3.94-4.07-1.91c-1.79 2.03 1.44 6.7 3.23 8.25 1.79 1.55 3.11.6 3-1.07-.11-1.67-2.16-5.27-2.16-5.27z" fill="none" stroke="#263238" stroke-linecap="round" stroke-linejoin="round"/><path d="M267 174.51s2.27-3.94 4.07-1.91c1.8 2.03-1.44 6.7-3.23 8.25-1.79 1.55-3.12.6-3-1.07.12-1.67 2.16-5.27 2.16-5.27z" fill="#ccafff" stroke="#263238" stroke-linecap="round" stroke-linejoin="round"/><path d="M267 174.51s2.27-3.94 4.07-1.91c1.8 2.03-1.44 6.7-3.23 8.25-1.79 1.55-3.12.6-3-1.07.12-1.67 2.16-5.27 2.16-5.27z" opacity=".5" fill="#fff"/><path d="M267 174.51s2.27-3.94 4.07-1.91c1.8 2.03-1.44 6.7-3.23 8.25-1.79 1.55-3.12.6-3-1.07.12-1.67 2.16-5.27 2.16-5.27z" fill="none" stroke="#263238" stroke-linecap="round" stroke-linejoin="round"/><path d="M241.57 193.42a128.86 128.86 0 004.31 15.07c2.16 5.38 6.22 5.38 7.9 1.91 1.68-3.47 2.75-16.4 2.75-16.4s-11.25 1.57-14.96-.58z" fill="#fff" stroke="#263238" stroke-linecap="round" stroke-linejoin="round"/><path d="M231.05 175.83s3.11 11 9 17.47c5.89 6.47 8 8 11.13 7.53 3.13-.47 6.46-4.54 11.12-13 4.66-8.46 5-14.95 5.39-15.55.39-.6-1-12.56-7.66-17.71s-14.12-7.41-20.58-1.79c-6.46 5.62-10.56 14.79-8.4 23.05z" fill="#fff"/><g clip-path="url(#prefix__c)"><path style="mix-blend-mode:multiply" d="M260 154.53c-6.7-5.14-14.12-7.41-20.58-1.79-6.46 5.62-10.53 14.83-8.37 23.09 0 0 .59 2.12 1.76 5a3.78 3.78 0 01.15-1.09c1.43-4.53 5.65-13.3 19.85-9.28 11.28 3.18 9.9 13.1 8.85 18.39l.61-1.1c4.67-8.49 5-14.95 5.39-15.55.39-.6-.96-12.52-7.66-17.67z" opacity=".5" fill="#ccafff"/></g><path d="M231.05 175.83s3.11 11 9 17.47c5.89 6.47 8 8 11.13 7.53 3.13-.47 6.46-4.54 11.12-13 4.66-8.46 5-14.95 5.39-15.55.39-.6-1-12.56-7.66-17.71s-14.12-7.41-20.58-1.79c-6.46 5.62-10.56 14.79-8.4 23.05z" fill="none" stroke="#263238" stroke-linecap="round" stroke-linejoin="round"/><path d="M251.15 181.57a48.77 48.77 0 00-.6 7.06c.12 2.39.84 3.11-.24 3.35-1.08.24-2.27-1.44-2.27-1.44M239.18 183.49a4.24 4.24 0 004.79.12M254.38 183.49a4.23 4.23 0 004.78.12M246.82 179.46s-2.28-5.63-9.81-3M253.09 178.77s1.91-5.51 8.73-2.28" fill="none" stroke="#263238" stroke-linecap="round" stroke-linejoin="round"/><path d="M248.27 183.9c0 3.08-3.53 5.57-7.89 5.57-4.36 0-7.9-2.49-7.9-5.57s3.3-4.36 7.66-4.36 8.13 1.29 8.13 4.36zM266.46 183.9c0 3.08-3.54 5.57-7.9 5.57s-7.89-2.49-7.89-5.57 3.29-4.36 7.65-4.36 8.14 1.29 8.14 4.36z" fill="none" stroke="#263238" stroke-linecap="round" stroke-linejoin="round"/><path d="M165.63 279.83l-.49 121.23a1.44 1.44 0 001.44 1.44v0a1.43 1.43 0 001.43-1.39L171.47 280zM157.47 308.17L157 433.5a1.43 1.43 0 001.44 1.44v0a1.44 1.44 0 001.44-1.38l3.45-125.23zM333.23 279.83l.49 121.23a1.43 1.43 0 01-1.43 1.44v0a1.44 1.44 0 01-1.44-1.39L327.4 280zM341.4 308.17l.49 125.33a1.43 1.43 0 01-1.44 1.44v0a1.43 1.43 0 01-1.43-1.38l-3.46-125.23zM214.29 313.38L214 424.62a1.08 1.08 0 00.91 1.19v0a1.07 1.07 0 00.92-1.14L218 313.51zM284.7 309.8l.27 97.08a.92.92 0 01-.78 1v0a.91.91 0 01-.77-1l-1.85-97zM213.2 309.8l.27 97.08a.92.92 0 01-.78 1v0a.91.91 0 01-.77-1l-1.85-97z" fill="#fff" stroke="#263238" stroke-linecap="round" stroke-linejoin="round"/><path d="M282.69 313.38l.31 111.24a1.08 1.08 0 01-.91 1.19v0a1.08 1.08 0 01-.92-1.14L279 313.51z" fill="#fff" stroke="#263238" stroke-linecap="round" stroke-linejoin="round"/><ellipse ry="10.17" rx="44.5" cy="311" cx="248" fill="#fff" stroke="#263238" stroke-linecap="round" stroke-linejoin="round"/><path d="M226.33 397.33s-2.33 3.34-.66 5c1.67 1.66 3.33 1 3.16 2.67-.17 1.67-2.83 7.33-5.16 13.33s2.5 12 7 10.34c4.5-1.66 4-18.34 4.66-21.34.66-3 1.17-3.5 1-6.33-.17-2.83-.33-5.83-2.5-6.17-2.17-.34-6.5 1.34-7.5 2.5z" fill="#fff" stroke="#263238" stroke-linecap="round" stroke-linejoin="round"/><path d="M233.48 424.07c-3-1.14-7.6-.91-10.19-.65.87 3.77 4.2 6.42 7.38 5.25 1.33-.49 2.2-2.27 2.81-4.6z" fill="#ccafff" stroke="#263238" stroke-linecap="round" stroke-linejoin="round"/><path d="M221.17 390s4.83 8.17 6.16 10.33 5.84 1.5 6.34-1.5-1.84-11.33-1.84-11.33l-10 2.5z" fill="#fff" stroke="#263238" stroke-linecap="round" stroke-linejoin="round"/><path d="M209.67 377s-1.34 2.17-.67 3.67 2.5 5.83 3.67 8 6.5 3.5 12.66 2.5 9.67-3.84 9.84-6.34c.17-2.5-1-5.83-1.84-9.83-.84-4-3-3.83-6-3.83s-15.16 3.5-17.66 5.83z" fill="#ccafff" stroke="#263238" stroke-linecap="round" stroke-linejoin="round"/><path d="M227.67 328c.09-4.1 2.46-6.12 2.64-8.93a35.34 35.34 0 00-.91-11.07l-4.56-6.23c-13.12.17-22.52.39-22.67.44-.5.16-.84 3-1.17 5.33 0 0-5.57.71-4.57 16.21.14 2.16 5.76 27.15 6.17 30 2.5 17.41 8.07 26.13 8.07 26.13s.5 2.17 7 1.67 13-4.83 13-4.83-3.34-33.89-3-48.72z" fill="#263238" stroke="#263238" stroke-linecap="round" stroke-linejoin="round"/><path d="M200.1 305s-6.89 1-11.11 5.82-.64 8 7.56 7.14c8.2-.86 17.66-9.25 18.06-9.7.4-.45-8.55-6.15-14.51-3.26z" fill="#fff" stroke="#263238" stroke-linecap="round" stroke-linejoin="round"/><path d="M212.33 308a65.07 65.07 0 0113 2c5.67 1.67 15.67 5 18 5s1.67-8.67 1.67-10.33c0-1.66-30-2.67-33.67-2.67-3.67 0 1 6 1 6z" fill="#fff" stroke="#263238" stroke-linecap="round" stroke-linejoin="round"/><path d="M245 304.67s-2.67 1.33-3.67 6.33-2.33 7.67-.33 9 10.67 2.33 12 1 5-8 5.67-12.33c.67-4.33-13.67-4-13.67-4z" fill="#ccafff" stroke="#263238" stroke-linecap="round" stroke-linejoin="round"/><path d="M256.33 306.33a20.89 20.89 0 00-3.66 6 55.76 55.76 0 00-1.67 7 65.06 65.06 0 019.33 3.34c5.34 2.33 14.34 4 23 6s11 4 14 4 6.67-2.34 11.34-8 .66-17.67-4-21.34c-4.66-3.67-29.67-6.66-33-5.66-3.33 1-15.34 8.66-15.34 8.66z" fill="#263238" stroke="#263238" stroke-linecap="round" stroke-linejoin="round"/><path d="M193.79 318.05a20.09 20.09 0 00-3.9-8.19c-.31.29-.61.59-.9.92-3.71 4.22-1.39 7.22 4.8 7.27z" fill="#ccafff" stroke="#263238" stroke-linecap="round" stroke-linejoin="round"/><path d="M227.16 320.69s-3.44 36.81-10.46 42.54M224.73 355.63s-2.73 12-9.89 16.77M269 314s-10.67.67-3.67 5.33S285 327 285 327" fill="none" stroke="#fff" stroke-width=".5" stroke-linecap="round" stroke-linejoin="round"/><path d="M346.46 301.39l-3.6-3.24-8.32-18a4.79 4.79 0 00-4.36-2.71h-161.6a4.79 4.79 0 00-4.37 2.71l-10.37 22.42-1.71-.63v5.13l.08-.06a2.85 2.85 0 002.87 2.43h188.59a2.81 2.81 0 002.87-2.65z" fill="#263238" stroke="#263238" stroke-linecap="round" stroke-linejoin="round"/><path d="M343.67 304.75H155.08a2.76 2.76 0 01-2.64-3.86l11.77-25.43a4.77 4.77 0 014.37-2.71h161.6a4.77 4.77 0 014.36 2.71l11.77 25.43a2.76 2.76 0 01-2.64 3.86z" fill="#fff" stroke="#263238" stroke-linecap="round" stroke-linejoin="round"/><path style="mix-blend-mode:multiply" d="M164.63 287.67s-4.27 2.93-1.6 4c2.67 1.07 33.36.27 37.1-.8 3.74-1.07 8-10.94 8-12.54 0-1.6-5.38-2.75-7.36-2.84-1.98-.09-28.14 1.5-28.14 1.5z" opacity=".5" fill="#ccafff"/><ellipse style="mix-blend-mode:multiply" ry="4.54" rx="10.94" cy="288.2" cx="317.29" opacity=".5" fill="#ccafff"/><ellipse style="mix-blend-mode:multiply" ry="7.34" rx="39.23" cy="291.01" cx="247.64" opacity=".5" fill="#ccafff"/><path d="M309.29 270.34s-.72-2.87-3.11-1.91c-2.39.96-2.15 7.3-1.68 10.89.47 3.59 3.71 1.91 3.71 1.91v-2.15s-1.19.95-1.79-.36c-.6-1.31-.48-7.9.12-7.78.6.12 1.79 2.15 1.79 2.15s.36-.23.96-2.75z" fill="#ccafff" stroke="#263238" stroke-linecap="round" stroke-linejoin="round"/><path d="M307.57 270.82v15.72c0 1.85 4.25 3.35 9.5 3.35s9.49-1.5 9.49-3.35v-15.72z" fill="#ccafff" stroke="#263238" stroke-linecap="round" stroke-linejoin="round"/><path d="M326.56 270.82c0 1.6-4.25 2.89-9.49 2.89s-9.5-1.29-9.5-2.89 4.25-2.89 9.5-2.89 9.49 1.3 9.49 2.89z" fill="#fff" stroke="#263238" stroke-linecap="round" stroke-linejoin="round"/><path d="M325.32 270.82c0 1.39-3.7 2.51-8.25 2.51s-8.26-1.12-8.26-2.51c0-1.39 3.7-2.51 8.26-2.51s8.25 1.12 8.25 2.51z" fill="#fff" stroke="#263238" stroke-linecap="round" stroke-linejoin="round"/><path d="M310.7 272.42a22.72 22.72 0 0012.73 0 22.72 22.72 0 00-12.73 0z" fill="#263238" stroke="#263238" stroke-linecap="round" stroke-linejoin="round"/><path fill="#fff" stroke="#263238" stroke-linecap="round" stroke-linejoin="round" d="M199.82 283.74v-6.22l-36.37.48.12 5.38z"/><path fill="#fff" stroke="#263238" stroke-linecap="round" stroke-linejoin="round" d="M205.09 269.03l-5.51 9.57.24 5.14 5.27-11.36z"/><path fill="#fff" stroke="#263238" stroke-linecap="round" stroke-linejoin="round" d="M199.82 288.65v-6.22l-36.37.47.12 5.39z"/><path fill="#fff" stroke="#263238" stroke-linecap="round" stroke-linejoin="round" d="M205.09 273.93l-5.51 9.57.24 5.15 5.27-11.37zM177.45 264.36s.84-1.67-.36-2.39c-1.2-.72-2.51 1-3.23 1.55-.72.55-15.79 10.53-16.27 12.09-.48 1.56 0 5 3.23 5.38 3.23.38 6.1-1.79 7.54-2.15 1.44-.36 2-.48 2-.48l9.93-13.4z"/><path d="M160.82 281c3.23.36 6.1-1.79 7.54-2.15 1.44-.36 2-.48 2-.48l.36-.49-9.33-1.9a3.13 3.13 0 00-3.83-.36c-.45 1.54.03 5.01 3.26 5.38z" fill="#fff" stroke="#263238" stroke-linecap="round" stroke-linejoin="round"/><path d="M161.42 276h28c8.74 0 11.37-.48 11.37-.48l5.38-11.13s-17 1.08-22.25.72a39.59 39.59 0 01-6.46-.72z" fill="#fff" stroke="#263238" stroke-linecap="round" stroke-linejoin="round"/><path d="M161.42 276l.48 2.15s22.73.12 28.71.12 10.53.24 10.53.24l-.36-3zM206.16 264.36l-5.38 11.13.36 2.99 5.02-11.49zM281.9 291.92h-68.55a1.15 1.15 0 01-1.16-1.15v0a1.15 1.15 0 011.16-1.15h68.55a1.14 1.14 0 011.15 1.15v0a1.14 1.14 0 01-1.15 1.15zM282.48 289.6h-69.72a1 1 0 01-1-.94l-3.79-45.55a1 1 0 011-1.12h77.31a1 1 0 011 1.12l-3.79 45.55a1 1 0 01-1.01.94z" fill="#fff" stroke="#263238" stroke-linecap="round" stroke-linejoin="round"/><path d="M254.2 266.58c0 2.72-2.95 4.92-6.58 4.92s-6.59-2.2-6.59-4.92c0-2.72 2.95-4.91 6.59-4.91 3.64 0 6.58 2.2 6.58 4.91z" fill="#fff" stroke="#263238" stroke-linecap="round" stroke-linejoin="round"/><path d="M322.33 231a5.94 5.94 0 002.13-3.33 6.15 6.15 0 00-.07-3M314.35 266.66s6.65-4 4.48-8.57-9.51-7.6-9.51-14.72c0-6.14 6.53-8.41 10.79-10.87" fill="none" stroke="#263238" stroke-linecap="round" stroke-linejoin="round"/><path d="M320.49 266.53s3.71-2.47 3.71-6.39c0-2.63-2.81-4.35-6.52-8.58M315.63 249s-2.43-1.91-.64-5.5" fill="none" stroke="#263238" stroke-linecap="round" stroke-linejoin="round"/><path d="M259.33 144.25c1.19-.25 3.74-1.23 5.46-5.22a.5.5 0 00-.26-.66.51.51 0 00-.66.26c-1.58 3.66-3.84 4.47-4.78 4.65a11.48 11.48 0 002.63-7.23c0-6.94-6.43-12.56-14.36-12.56S233 129.11 233 136.05a11.48 11.48 0 002.4 7c-1.51-.08-4.06.56-7.29 4.33a.51.51 0 000 .71.52.52 0 00.33.12.49.49 0 00.38-.18c4.13-4.81 6.86-4 7.41-3.78a14.7 14.7 0 00-2.61 1.83c-4.61 4.15-7.42 12-7.06 18.54a24.11 24.11 0 004.55 12 27.9 27.9 0 008.13-9.1 76.41 76.41 0 004-8.17c0 2.93.38 6.47 1.92 9a12.76 12.76 0 0011.22 6.56 10.57 10.57 0 002.35-.23.5.5 0 00.32-.25c3.86.82 7.7.75 8.29-.07.95-1.31 2.3-5.4 2.75-10.4.82-8.48-4.52-15.84-10.76-19.71zm-13.24 23.49c-1.94-3.17-1.88-8.34-1.65-11.31l.13-.34a20.36 20.36 0 008.13 15.67 14.65 14.65 0 004.43 2.07c-2.45.17-7.49-.3-11.04-6.09z" fill="#263238"/><path d="M246.26 152s-.82 6.06 6.88 12 15 3.6 15 3.6M247.39 150s8.11 11.81 19.31 8.73M243.38 146.07a7.83 7.83 0 00-8.11.62c-4.31 2.87-6.47 9.65-6.47 9.65M243.59 149.36s-3.49-.93-5.65 1.23a13.92 13.92 0 00-2.67 3.29" fill="none" stroke="#fff" stroke-width=".5" stroke-linecap="round" stroke-linejoin="round"/></g></svg>