<svg xmlns="http://www.w3.org/2000/svg" height="800" width="1200" viewBox="-38.705 -11.649 335.445 69.892"><defs><linearGradient gradientUnits="userSpaceOnUse" gradientTransform="scale(.7945 1.25867)" id="prefix__a" y2=".413" x2="92.332" y1="34.521" x1="82.292"><stop offset="0%" stop-color="#D4202C"/><stop offset="10%" stop-opacity=".79" stop-color="#DC3D29"/><stop offset="20%" stop-opacity=".58" stop-color="#E45926"/><stop offset="32%" stop-opacity=".4" stop-color="#EA7123"/><stop offset="43%" stop-opacity=".25" stop-color="#F08521"/><stop offset="55%" stop-opacity=".14" stop-color="#F4941F"/><stop offset="68%" stop-opacity=".06" stop-color="#F79F1E"/><stop offset="82%" stop-opacity=".02" stop-color="#F8A51D"/><stop offset="100%" stop-opacity="0" stop-color="#F9A71D"/></linearGradient><linearGradient gradientUnits="userSpaceOnUse" gradientTransform="scale(.79477 1.25823)" id="prefix__b" y2="36.607" x2="13.451" y1="2.488" x1="23.501"><stop offset="0%" stop-color="#D4202C"/><stop offset="10%" stop-opacity=".79" stop-color="#DC3D29"/><stop offset="20%" stop-opacity=".58" stop-color="#E45926"/><stop offset="32%" stop-opacity=".4" stop-color="#EA7123"/><stop offset="43%" stop-opacity=".25" stop-color="#F08521"/><stop offset="55%" stop-opacity=".14" stop-color="#F4941F"/><stop offset="68%" stop-opacity=".06" stop-color="#F79F1E"/><stop offset="82%" stop-opacity=".02" stop-color="#F8A51D"/><stop offset="100%" stop-opacity="0" stop-color="#F9A71D"/></linearGradient></defs><g fill="none"><path fill="#FF5100" d="M76.195 0a7.87 7.87 0 00-6.88 4.05l-.16.33-6.13 12.16-7.8 15.37 5.11 10.07.28.55a8 8 0 003.41 3.23 8.05 8.05 0 003.41-3.23l.28-.55 15.31-30.21.37-.73a7.86 7.86 0 00-7.19-11zm-47.32 14.63l-5.1-10-.28-.55a7.89 7.89 0 00-3.4-3.22 7.92 7.92 0 00-3.4 3.21l-.29.56-15.33 30.18-.37.72a7.86 7.86 0 0014.06 7l.17-.32 6.17-12.16 7.79-15.36z"/><path fill="url(#prefix__a)" d="M76.174 0a7.86 7.86 0 00-6.87 4.05l-.17.33-6.17 12.16-7.81 15.37 5.12 10.07.28.55a7.94 7.94 0 003.41 3.23 7.94 7.94 0 003.41-3.23l.29-.55 15.36-30.21.36-.73a7.86 7.86 0 00-7.19-11z"/><path fill="url(#prefix__b)" d="M7.884 46.58a7.86 7.86 0 006.87-4l.17-.33 6.18-12.16 7.8-15.37-5.11-10.12-.28-.55a8 8 0 00-3.42-3.23 8 8 0 00-3.41 3.23l-.28.55-15.38 30.21-.37.73a7.86 7.86 0 007.19 11z"/><path fill="#FF8C44" d="M28.875 14.63l-5.1-10-.28-.55a7.94 7.94 0 00-3.41-3.23 8.31 8.31 0 011.49-.56 8.16 8.16 0 012-.25h10.68a7.92 7.92 0 016.86 4l.28.55 13.81 27.36 5.09 10 .28.55a8 8 0 003.45 3.26 8.05 8.05 0 01-3.47.81h-10.74a7.91 7.91 0 01-6.85-4l-.29-.55z"/><path fill="#6E6F71" d="M97.025 23.82a.76.76 0 01.84-.84h.6a.75.75 0 01.8.84v1.94c0 .407-.045.812-.13 1.21h.07a7.43 7.43 0 016.8-4.39c4.19 0 5.66 2.38 5.66 6.53V39a.76.76 0 01-.84.84h-.63a.74.74 0 01-.81-.84v-9.28c0-2.65-.43-5-3.68-5-3.59 0-6.4 2.95-6.4 6.88V39a.74.74 0 01-.81.84h-.63a.76.76 0 01-.84-.84zm26.89 5.7h1v-.54c0-3.25-1.78-4.36-4.16-4.36a8 8 0 00-4.09 1.18.79.79 0 01-1.13-.27l-.21-.34a.76.76 0 01.24-1.14 10.34 10.34 0 015.36-1.47c4 0 6.27 2.24 6.27 6.47v10a.74.74 0 01-.81.84h-.53a.75.75 0 01-.84-.84v-1.39a7.14 7.14 0 01.1-1.27h-.09a6.25 6.25 0 01-5.7 3.9c-2.85 0-5.7-1.67-5.7-4.92 0-5.55 7.04-5.85 10.29-5.85zm-4.19 8.77c3.25 0 5.16-3.35 5.16-6.3v-.8h-.94c-2.65 0-8 .1-8 3.88.02 1.62 1.27 3.22 3.78 3.22zm10.69-14.47a.76.76 0 01.84-.84h.6a.75.75 0 01.8.84v1.94c0 .407-.044.812-.13 1.21h.07a7.15 7.15 0 016.2-4.39c3.11 0 4.72 1.44 5.19 4.22h.04a7.16 7.16 0 016.2-4.22c4.09 0 5.59 2.38 5.59 6.53V39a.76.76 0 01-.83.84h-.61a.76.76 0 01-.84-.84v-9.32c0-2.74-.56-5-3.61-5-3.39 0-5.67 3.55-5.67 7v7.3a.73.73 0 01-.8.84h-.64a.76.76 0 01-.84-.84v-9.3c0-2.54-.37-5-3.55-5-3.42 0-5.76 3.62-5.76 7v7.3a.74.74 0 01-.81.84h-.63a.76.76 0 01-.84-.84zm35.89-1.24c4.49 0 7 3.25 7 8a.84.84 0 01-.88.84h-12.09c.1 4.29 3.05 6.74 6.54 6.74a7.17 7.17 0 004.42-1.55.7.7 0 011.11.2l.27.41a.78.78 0 01-.24 1.1 9.51 9.51 0 01-5.63 1.97 8.51 8.51 0 01-8.78-8.86c0-5.53 3.72-8.85 8.28-8.85zm4.72 7.17c-.14-3.55-2.28-5.3-4.8-5.3a5.82 5.82 0 00-5.8 5.3zm13.17-7.17a8.84 8.84 0 015.6 1.91.72.72 0 01.1 1.14l-.23.37c-.3.47-.67.47-1.14.17a7 7 0 00-4.26-1.55 6.5 6.5 0 00-6.57 6.81 6.5 6.5 0 006.6 6.77 7.35 7.35 0 004.73-1.78.67.67 0 011.11.2l.23.34a.8.8 0 01-.2 1.13 9.32 9.32 0 01-6 2.15 8.53 8.53 0 01-8.84-8.81 8.59 8.59 0 018.87-8.85zm8.48-5.46a.73.73 0 01.8-.84h.64a.76.76 0 01.84.84v8.41c0 .46-.044.919-.13 1.37h.06a7.43 7.43 0 016.74-4.32c4.19 0 5.66 2.38 5.66 6.53V39c0 .54-.26.84-.8.84h-.64a.76.76 0 01-.84-.84v-9.28c0-2.65-.4-5-3.68-5-3.55 0-6.37 2.92-6.37 7v7.3a.76.76 0 01-.84.84h-.64a.73.73 0 01-.8-.84zm25.1 5.46c4.49 0 7 3.25 7 8a.84.84 0 01-.87.84h-12.09c.1 4.29 3.05 6.74 6.53 6.74a7.2 7.2 0 004.43-1.55.69.69 0 011.1.2l.27.41a.78.78 0 01-.23 1.1 9.57 9.57 0 01-5.63 1.97 8.52 8.52 0 01-8.82-8.81c0-5.58 3.75-8.9 8.31-8.9zm4.73 7.17c-.13-3.55-2.28-5.3-4.8-5.3a5.8 5.8 0 00-5.79 5.3zm13.64-.23h1v-.54c0-3.25-1.78-4.36-4.16-4.36a7.85 7.85 0 00-4.08 1.18.8.8 0 01-1.14-.27l-.2-.34a.76.76 0 01.23-1.14 10.34 10.34 0 015.36-1.47c4 0 6.27 2.24 6.27 6.47v10a.74.74 0 01-.81.84h-.59a.75.75 0 01-.84-.84v-1.39a7.14 7.14 0 01.1-1.27h-.07a6.25 6.25 0 01-5.66 3.9c-2.85 0-5.7-1.67-5.7-4.92 0-5.55 7.04-5.85 10.29-5.85zm-4.19 8.77c3.25 0 5.16-3.35 5.16-6.3v-.8h-.94c-2.65 0-8 .1-8 3.88.02 1.62 1.26 3.22 3.78 3.22zm10.72-14.47a.74.74 0 01.81-.84h.54a.72.72 0 01.81.77v1.21a6 6 0 01-.1 1.14h.06a6.28 6.28 0 015.9-3.52c4.53 0 7.34 3.62 7.34 8.85 0 5.23-3.19 8.86-7.58 8.86a6.13 6.13 0 01-5.57-3.42h-.06c.09.488.133.984.13 1.48v7.4a.76.76 0 01-.84.84h-.63a.74.74 0 01-.81-.84zm7.54 14.38c3 0 5.47-2.48 5.47-6.77 0-4.13-2.22-6.77-5.33-6.77-2.82 0-5.47 2-5.47 6.8 0 3.38 1.88 6.74 5.33 6.74z"/></g></svg>